<?xml version="1.0" encoding="UTF-8"?>
<svg id="Layer_2" data-name="Layer 2" xmlns="http://www.w3.org/2000/svg" xmlns:xlink="http://www.w3.org/1999/xlink" viewBox="0 0 958.42 179.88">
  <defs>
    <style>
      .cls-1 {
        fill: url(#linear-gradient);
      }

      .cls-1, .cls-2 {
        opacity: .72;
      }

      .cls-3 {
        fill: none;
      }

      .cls-2 {
        fill: url(#linear-gradient-2);
      }
    </style>
    <linearGradient id="linear-gradient" x1="836.34" y1="57.26" x2="864.22" y2="29.38" gradientUnits="userSpaceOnUse">
      <stop offset="0" stop-color="#2c3e43"/>
      <stop offset="1" stop-color="#3b5359"/>
    </linearGradient>
    <linearGradient id="linear-gradient-2" x1="868.24" y1="110.89" x2="937.76" y2="41.38" xlink:href="#linear-gradient"/>
  </defs>
  <g id="Layer_1-2" data-name="Layer 1">
    <polygon class="cls-1" points="871.13 36.29 857.3 36.29 857.3 22.47 843.25 22.47 843.25 36.29 829.43 36.29 829.43 50.35 843.25 50.35 843.25 64.17 857.3 64.17 857.3 50.35 871.13 50.35 871.13 36.29"/>
    <path class="cls-2" d="m939.72,92.32l-26.18-43.07c-1.26-2.07-1.93-4.45-1.93-6.88v-15.02c0-2.59,1.09-5.05,3.01-6.79,1.05-.96.38-2.71-1.05-2.71h-21.15c-1.42,0-2.1,1.75-1.05,2.71,1.92,1.74,3.01,4.2,3.01,6.79v15.02c0,2.43-.67,4.81-1.93,6.88l-26.18,43.07c-3.71,6.1-2.73,13.96,2.36,18.97,3.29,3.23,7.72,5.05,12.33,5.05h44.07c4.61,0,9.04-1.81,12.33-5.05,5.09-5.01,6.07-12.87,2.36-18.97Zm-43.13-40.55c1.72-2.83,2.63-6.08,2.63-9.39v-15.02c0-1.6-.28-3.18-.8-4.67h9.16c-.53,1.49-.8,3.06-.8,4.67v15.02c0,3.31.91,6.56,2.63,9.39l12.09,19.89h-37l12.09-19.89Z"/>
  </g>
  <g id="Layer_5" data-name="Layer 5">
    <rect class="cls-3" width="958.42" height="179.88"/>
  </g>
</svg>