<?xml version="1.0" encoding="UTF-8"?>
<svg id="Layer_2" data-name="Layer 2" xmlns="http://www.w3.org/2000/svg" viewBox="0 0 418.13 143.58">
  <defs>
    <style>
      .cls-1 {
        fill: #1a262c;
      }

      .cls-2 {
        fill: #ce7b91;
      }
    </style>
  </defs>
  <g id="Layer_2-2" data-name="Layer 2">
    <g>
      <g>
        <path class="cls-1" d="m175.14,9.12v.69c-1.84,0-3.55,1.14-3.55,3.75v16.86c0,9.84-6.04,13.26-12.69,14.24l-.16-.69c3.51-1.27,6.77-4.69,6.77-13.55v-11.88c0-7.67,0-8.73-3.35-8.73v-.69h12.98Z"/>
        <path class="cls-1" d="m196.61,28.43c0,5.35-3.47,9.79-9.71,9.79s-9.71-4.45-9.71-9.79,3.51-9.8,9.71-9.8,9.71,4.41,9.71,9.8Zm-6.04,0c0-7.39-.73-9.1-3.67-9.1s-3.71,1.71-3.71,9.1.78,9.1,3.71,9.1,3.67-1.71,3.67-9.1Z"/>
        <path class="cls-1" d="m220.4,36.43v.69l-6.04,1.06c-1.1.16-1.14-.78-1.14-.78v-3.59c-.98,2.33-4.37,4.41-6.9,4.41-3.22,0-5.14-1.35-5.14-6.24v-8.73c0-2.45.08-2.82-2.29-3.14v-.69l7.35-.78v13.22c0,2.29,1.06,3.39,3.43,3.39,1.14,0,2.69-1.02,3.55-2.65v-9.22c0-2.49.16-3.02-1.92-3.26v-.69l7.02-.78v15.47c0,1.96.37,2.12,2.08,2.33Z"/>
        <path class="cls-1" d="m236.97,19.37c1.27,1.1,1.39,3.06.29,4.29-1.1,1.27-2.98,1.43-4.29.33-.61-.57-.94-1.27-.94-2,0-.45-1.67-.04-3.18,2.41v8.49c0,2.29.2,3.88,1.67,4.29v.69h-8.45v-.69c1.59-.49,1.63-2.16,1.63-4.29v-9.06c0-1.39-.37-2-2.04-2.86v-.69l7.18-1.63v4.61c2.16-3.39,3.84-4,4.82-4.41.86-.37,2.41-.2,3.31.53Z"/>
        <path class="cls-1" d="m259.54,37.16v.69h-8.41v-.69c1.55-.45,1.63-2.2,1.63-4.29v-7.92c0-1.96-1.27-3.39-3.31-3.39-1.59,0-3.47,1.71-3.47,3.35v8.04c0,2.24.25,3.8,1.67,4.2v.69h-8.37v-.69c1.55-.45,1.59-2.12,1.59-4.2v-9.22c0-1.43-.37-1.88-2.04-2.78v-.69l7.14-1.63v4.37c.94-2.49,4.16-4.37,6.73-4.37,3.18,0,5.14,1.27,5.14,6.2v8.04c0,2.24.2,3.92,1.67,4.29Z"/>
        <path class="cls-1" d="m280.88,35.04l.69.29c-.33,1.31-2.2,2.9-4.78,2.9,0,0-3.63,0-4.08-3.31-.61,1.8-3.02,3.31-5.92,3.31,0,0-4.69,0-4.69-4.16,0-4.45,3.43-4.86,10.57-6.65v-2.53c0-4.24-2.37-6.37-5.18-4.9-1.31.65-1.47,1.35-1.18,1.39.61.08,1.14.37,1.51.9.73,1.06.45,2.49-.61,3.22-1.06.69-2.49.45-3.22-.61-.49-.78-.53-1.75-.12-2.45.41-.69.94-1.8,3.18-2.98,1.84-.98,3.96-.82,3.96-.82,5.35,0,6.82,3.35,6.82,8.16v6.08s-.04,2.86,1.96,2.86c0,0,.86,0,1.1-.69Zm-8.2-6.9c-4,.9-5.35,2.82-5.35,4.9,0,0,0,2.69,2.65,2.69,1.39,0,2.33-1.1,2.69-2.08v-5.51Z"/>
        <path class="cls-1" d="m291.66,37.16v.69h-8.37v-.69c1.55-.45,1.63-2.16,1.63-4.24V12.27c0-1.43-.41-2.04-2.04-2.65v-.69l7.14-1.51v25.51c0,2.24.2,3.88,1.63,4.24Z"/>
        <path class="cls-1" d="m324.67,28.43c0,5.35-3.47,9.79-9.71,9.79s-9.71-4.45-9.71-9.79,3.51-9.8,9.71-9.8,9.71,4.41,9.71,9.8Zm-6.04,0c0-7.39-.73-9.1-3.67-9.1s-3.71,1.71-3.71,9.1.78,9.1,3.71,9.1,3.67-1.71,3.67-9.1Z"/>
        <path class="cls-1" d="m341.53,12.27c-.61,1.18-2.08,1.67-3.27,1.1-1.22-.61-1.71-2.04-1.1-3.27.29-.61.82-.98,1.43-1.1.61-.08,0-.86-1.51-.86-1.59,0-2.57,2.41-2.57,10.86h4.37l-.12.69h-4.24v13.55c0,2.24.2,3.51,1.67,3.92v.69h-8.37v-.69c1.55-.45,1.59-1.84,1.59-3.92v-13.55h-2.61l-.04-.69h2.65c0-9.43,2.65-11.55,7.59-11.55,2.24,0,3.92,1.35,4.33,2.04.49.73.61,1.92.2,2.78Z"/>
        <path class="cls-1" d="m192.24,58.1v.69c-6.16-.04-6.08,9.67-6.08,9.67v18.37h-2.16l-17.84-22.41v12s-.04,9.71,5.59,9.71v.69h-12.41v-.69c6.16,0,6.12-9.71,6.12-9.71v-12.73l-1.59-2c-2.61-3.26-3.8-2.82-4.86-2.9v-.69h10l16.45,20.28v-9.92s.04-9.71-5.59-9.67v-.69h12.37Z"/>
        <path class="cls-1" d="m214.03,77.4c0,5.35-3.47,9.79-9.71,9.79s-9.71-4.45-9.71-9.79,3.51-9.8,9.71-9.8,9.71,4.41,9.71,9.8Zm-6.04,0c0-7.39-.73-9.1-3.67-9.1s-3.71,1.71-3.71,9.1.78,9.1,3.71,9.1,3.67-1.71,3.67-9.1Z"/>
        <path class="cls-1" d="m236.73,86.14v.69h-8.41v-.69c1.55-.45,1.63-2.2,1.63-4.29v-7.92c0-1.96-1.27-3.39-3.31-3.39-1.59,0-3.47,1.71-3.47,3.35v8.04c0,2.24.25,3.8,1.67,4.2v.69h-8.37v-.69c1.55-.45,1.59-2.12,1.59-4.2v-9.22c0-1.43-.37-1.88-2.04-2.78v-.69l7.14-1.63v4.37c.94-2.49,4.16-4.37,6.73-4.37,3.18,0,5.14,1.27,5.14,6.2v8.04c0,2.24.2,3.92,1.67,4.29Z"/>
        <path class="cls-1" d="m240.24,78.34v-3.8h12.86v3.8h-12.86Z"/>
        <path class="cls-1" d="m270.92,84.99s-1.55,2.2-5.71,2.2c-4.94,0-7.39-1.88-7.39-1.88v-5.14h.69c.61,1.59,1.92,6.33,6.69,6.33,2.9,0,3.39-3.67.29-5.71l-4.12-2.49c-3.96-2.41-5.02-5.71-2.78-8.65,0,0,1.55-2.04,5.63-2.04,4.69,0,6.73,1.22,6.73,1.22v4.57h-.69c-.53-1.43-1.84-5.1-6.04-5.1-2.65,0-3.8,3.14-.24,5.39l4.12,2.57c3.63,2.24,4.86,5.8,2.82,8.73Z"/>
        <path class="cls-1" d="m287.29,82.87l.61.37c-.82,1.92-3.31,3.96-6.04,3.96-3.22,0-5.14-1.31-5.14-6.24v-12.28h-2.04l-.12-.69h2.16v-5.47l5.1-.86v6.33h4.86l-.16.69h-4.69v12.16c0,2.29.98,3.47,3.02,3.47,1.18,0,2.08-.82,2.45-1.43Z"/>
        <path class="cls-1" d="m308.76,84.01l.69.29c-.33,1.31-2.2,2.9-4.78,2.9,0,0-3.63,0-4.08-3.31-.61,1.8-3.02,3.31-5.92,3.31,0,0-4.69,0-4.69-4.16,0-4.45,3.43-4.86,10.57-6.65v-2.53c0-4.24-2.37-6.37-5.18-4.9-1.31.65-1.47,1.35-1.18,1.39.61.08,1.14.37,1.51.9.73,1.06.45,2.49-.61,3.22-1.06.69-2.49.45-3.22-.61-.49-.78-.53-1.75-.12-2.45.41-.69.94-1.8,3.18-2.98,1.84-.98,3.96-.82,3.96-.82,5.35,0,6.82,3.35,6.82,8.16v6.08s-.04,2.86,1.96,2.86c0,0,.86,0,1.1-.69Zm-8.2-6.9c-4,.9-5.35,2.82-5.35,4.9,0,0,0,2.69,2.65,2.69,1.39,0,2.33-1.1,2.69-2.08v-5.51Z"/>
        <path class="cls-1" d="m330.92,86.14v.69h-8.41v-.69c1.55-.45,1.63-2.2,1.63-4.29v-7.92c0-1.96-1.27-3.39-3.31-3.39-1.59,0-3.47,1.71-3.47,3.35v8.04c0,2.24.25,3.8,1.67,4.2v.69h-8.37v-.69c1.55-.45,1.59-2.12,1.59-4.2v-9.22c0-1.43-.37-1.88-2.04-2.78v-.69l7.14-1.63v4.37c.94-2.49,4.16-4.37,6.73-4.37,3.18,0,5.14,1.27,5.14,6.2v8.04c0,2.24.2,3.92,1.67,4.29Z"/>
        <path class="cls-1" d="m355.24,85.57v.69l-6,.9c-1.14.16-1.14-.73-1.14-.73v-2.53c-1.31,2.41-4.33,3.31-6.24,3.31-4.61,0-8.69-3.63-8.69-10.08s4.33-9.51,10.04-9.51c1.88,0,3.59.45,4.9,1.22v-7.79c0-1.43-.41-1.84-2.08-2.45v-.69l7.14-1.51v26.49c0,2,.41,2.49,2.08,2.69Zm-7.14-10.45c0-5.14-2.53-6.82-4.86-6.82-2.98,0-4.29,2.24-4.29,8.45,0,6.57,1.35,9.02,4.65,9.02,2.78,0,4.49-2.04,4.49-4.9v-5.75Z"/>
        <path class="cls-1" d="m376.3,84.01l.69.29c-.33,1.31-2.2,2.9-4.78,2.9,0,0-3.63,0-4.08-3.31-.61,1.8-3.02,3.31-5.92,3.31,0,0-4.69,0-4.69-4.16,0-4.45,3.43-4.86,10.57-6.65v-2.53c0-4.24-2.37-6.37-5.18-4.9-1.31.65-1.47,1.35-1.18,1.39.61.08,1.14.37,1.51.9.73,1.06.45,2.49-.61,3.22-1.06.69-2.49.45-3.22-.61-.49-.78-.53-1.75-.12-2.45.41-.69.94-1.8,3.18-2.98,1.84-.98,3.96-.82,3.96-.82,5.35,0,6.82,3.35,6.82,8.16v6.08s-.04,2.86,1.96,2.86c0,0,.86,0,1.1-.69Zm-8.2-6.9c-4,.9-5.35,2.82-5.35,4.9,0,0,0,2.69,2.65,2.69,1.39,0,2.33-1.1,2.69-2.08v-5.51Z"/>
        <path class="cls-1" d="m393.23,68.34c1.27,1.1,1.39,3.06.29,4.29-1.1,1.27-2.98,1.43-4.29.33-.61-.57-.94-1.27-.94-2,0-.45-1.67-.04-3.18,2.41v8.49c0,2.29.2,3.88,1.67,4.29v.69h-8.45v-.69c1.59-.49,1.63-2.16,1.63-4.29v-9.06c0-1.39-.37-2-2.04-2.86v-.69l7.18-1.63v4.61c2.16-3.39,3.84-4,4.82-4.41.86-.37,2.41-.2,3.31.53Z"/>
        <path class="cls-1" d="m418.13,85.57v.69l-6,.9c-1.14.16-1.14-.73-1.14-.73v-2.53c-1.31,2.41-4.33,3.31-6.24,3.31-4.61,0-8.69-3.63-8.69-10.08s4.33-9.51,10.04-9.51c1.88,0,3.59.45,4.9,1.22v-7.79c0-1.43-.41-1.84-2.08-2.45v-.69l7.14-1.51v26.49c0,2,.41,2.49,2.08,2.69Zm-7.14-10.45c0-5.14-2.53-6.82-4.86-6.82-2.98,0-4.29,2.24-4.29,8.45,0,6.57,1.35,9.02,4.65,9.02,2.78,0,4.49-2.04,4.49-4.9v-5.75Z"/>
        <path class="cls-1" d="m168.53,123.56v6.65c0,4.61,3.06,4.9,4.82,4.9v.69h-13.43v-.69c1.71,0,2.69-2.12,2.69-4.9v-17.75c0-2.53-1.14-4.69-2.94-4.69v-.69h10.33c8.12,0,13.88,1.43,13.88,8.24s-5.75,8.24-13.88,8.24h-1.47Zm0-.69h1.47c4,0,7.18-.33,7.18-7.55s-3.18-7.55-7.18-7.55h-1.47v15.1Z"/>
        <path class="cls-1" d="m206.57,135.11v.69h-8.37v-.69c1.55-.45,1.63-2.24,1.63-4.33v-7.71c0-2.33-1.06-3.43-3.43-3.43-1.14,0-2.53.82-3.39,2.45v8.69c0,2.24.2,3.92,1.67,4.29v.73h-8.41v-.73c1.55-.45,1.63-2.2,1.63-4.29v-20.57c0-1.43-.41-1.84-2.04-2.45v-.69l7.14-1.71v15.63c.78-2.16,4.2-4.41,6.73-4.41,3.27,0,5.14,1.43,5.14,6.33v7.88c0,2.24.25,3.96,1.67,4.33Z"/>
        <path class="cls-1" d="m226.93,126.01h-12.98c.33,4,2.37,6.08,5.1,6.69,2.2.49,5.47-.33,6.49-2.24l.69.37c-.65,2.12-3.06,5.35-8.53,5.35s-9.02-4.94-9.02-9.71c0-5.75,3.92-9.88,9.55-9.88,5.92,0,8.69,3.06,8.69,9.43Zm-4.98-.69c0-5.14-1.67-8.04-3.92-8.04-2.41,0-4.08,4.12-4.08,8.04h8Z"/>
        <path class="cls-1" d="m249.7,135.11v.69h-8.41v-.69c1.55-.45,1.63-2.2,1.63-4.29v-7.92c0-1.96-1.27-3.39-3.31-3.39-1.59,0-3.47,1.71-3.47,3.35v8.04c0,2.24.24,3.8,1.67,4.2v.69h-8.37v-.69c1.55-.45,1.59-2.12,1.59-4.2v-9.22c0-1.43-.37-1.88-2.04-2.78v-.69l7.14-1.63v4.37c.94-2.49,4.16-4.37,6.73-4.37,3.18,0,5.14,1.27,5.14,6.2v8.04c0,2.24.2,3.92,1.67,4.29Z"/>
        <path class="cls-1" d="m271.7,126.38c0,5.35-3.47,9.79-9.71,9.79s-9.71-4.45-9.71-9.79,3.51-9.8,9.71-9.8,9.71,4.41,9.71,9.8Zm-6.04,0c0-7.39-.73-9.1-3.67-9.1s-3.71,1.71-3.71,9.1.77,9.1,3.71,9.1,3.67-1.71,3.67-9.1Z"/>
        <path class="cls-1" d="m305.13,135.8h-8.41v-.69c1.55-.45,1.63-2.2,1.63-4.29v-7.92c0-2.29-1.14-3.39-2.98-3.39-1.51,0-3.22,1.84-3.22,3.47v7.84c0,2.24.2,3.92,1.67,4.29v.69h-8.41v-.69c1.55-.45,1.63-2.2,1.63-4.29v-7.92c0-2.29-1.1-3.39-2.94-3.39-1.51,0-3.27,1.88-3.27,3.35v8.04c0,2.24.25,3.8,1.67,4.2v.69h-8.37v-.69c1.55-.45,1.59-2.12,1.59-4.2v-8.94c0-1.43-.37-2.16-2.04-3.06v-.69l7.14-1.63v4.2c1.1-2.37,3.59-4.2,6.16-4.2,2.86,0,4.61,1.31,5.1,4.33.86-2.49,3.63-4.33,6.2-4.33,3.18,0,5.14,1.27,5.14,6.2v8.04c0,2.24.2,3.92,1.67,4.29v.69Z"/>
        <path class="cls-1" d="m325.45,126.01h-12.98c.33,4,2.37,6.08,5.1,6.69,2.2.49,5.47-.33,6.49-2.24l.69.37c-.65,2.12-3.06,5.35-8.53,5.35s-9.02-4.94-9.02-9.71c0-5.75,3.92-9.88,9.55-9.88,5.92,0,8.69,3.06,8.69,9.43Zm-4.98-.69c0-5.14-1.67-8.04-3.92-8.04-2.41,0-4.08,4.12-4.08,8.04h8Z"/>
        <path class="cls-1" d="m348.22,135.11v.69h-8.41v-.69c1.55-.45,1.63-2.2,1.63-4.29v-7.92c0-1.96-1.27-3.39-3.31-3.39-1.59,0-3.47,1.71-3.47,3.35v8.04c0,2.24.25,3.8,1.67,4.2v.69h-8.37v-.69c1.55-.45,1.59-2.12,1.59-4.2v-9.22c0-1.43-.37-1.88-2.04-2.78v-.69l7.14-1.63v4.37c.94-2.49,4.16-4.37,6.73-4.37,3.18,0,5.14,1.27,5.14,6.2v8.04c0,2.24.2,3.92,1.67,4.29Z"/>
        <path class="cls-1" d="m369.56,132.99l.69.29c-.33,1.31-2.2,2.9-4.78,2.9,0,0-3.63,0-4.08-3.31-.61,1.8-3.02,3.31-5.92,3.31,0,0-4.69,0-4.69-4.16,0-4.45,3.43-4.86,10.57-6.65v-2.53c0-4.24-2.37-6.37-5.18-4.9-1.31.65-1.47,1.35-1.18,1.39.61.08,1.14.37,1.51.9.73,1.06.45,2.49-.61,3.22-1.06.69-2.49.45-3.22-.61-.49-.78-.53-1.75-.12-2.45.41-.69.94-1.8,3.18-2.98,1.84-.98,3.96-.82,3.96-.82,5.35,0,6.82,3.35,6.82,8.16v6.08s-.04,2.86,1.96,2.86c0,0,.86,0,1.1-.69Zm-8.2-6.9c-4,.9-5.35,2.82-5.35,4.9,0,0,0,2.69,2.65,2.69,1.39,0,2.33-1.1,2.69-2.08v-5.51Z"/>
      </g>
      <rect class="cls-1" width="143.58" height="143.58"/>
      <g>
        <path class="cls-2" d="m80.51,98.89c.25-.51.43-1.04.64-1.56.33-.8.69-1.59.8-2.47.12-.95.17-1.91.27-2.86.12-1.16.06-2.29-.18-3.42-.17-.81-.31-1.62-.47-2.43-.16-.83-.36-1.64-.77-2.39-.29-.54-.55-1.08-.76-1.66-.18-.49-.46-.92-.83-1.32-1.23-1.31-2.69-2.25-4.37-2.85-.9-.32-1.8-.75-2.77-.65-.89.09-1.8.13-2.68.28-1.66.28-3.26.85-4.81,1.5-1.53.64-2.8,1.67-3.93,2.9-.49.54-.8,1.12-.95,1.82-.14.66-.16,1.33-.27,1.98-.21,1.19-.17,2.37-.03,3.56.12,1.07.48,2.08.75,3.12.52,1.96,1.49,3.68,2.76,5.23.93,1.14,2.02,2.15,3.1,3.15,1.28,1.18,2.69,2.14,4.57,1.91.01,0,.03,0,.04,0,.79,0,1.59.08,2.35-.11,1.64-.42,3.31-.75,4.88-1.4,1.14-.48,2.08-1.16,2.64-2.32Zm-4.13.73c-.02.38-.17.45-.48.24-1.09-.77-2.18-1.54-3.28-2.3-.38-.27-.57-.69-.84-1.05-.52-.7-1.17-1.29-1.68-2-1.37-1.91-2.26-4.05-3.14-6.2-.47-1.16-.57-2.42-.73-3.66-.2-1.54.09-3.08,0-4.62-.01-.24.11-.42.37-.2.32.27.7.41,1.07.57,1.3.6,2.22,1.59,2.93,2.82.54.93.99,1.9,1.53,2.82.61,1.04,1.13,2.12,1.59,3.22.65,1.55,1.44,3.05,1.88,4.68.29,1.1.6,2.21.74,3.35.05.4,0,.82,0,1.23,0,0,0,0,.01,0,0,.37.01.73,0,1.1Z"/>
        <path class="cls-2" d="m83.37,92.03c.26.02.29.2.29.4,0,.17.03.35-.05.52-.08.15-.06.31.02.56.24-2.51.53-4.91-.01-7.31-.01.2.19.46-.07.58-.23.11-.44-.04-.57-.28v6.47c.05-.19.08-.39.09-.58,0-.2.02-.39.3-.36Z"/>
        <path class="cls-2" d="m80.82,82.07c-.23-.6-.48-1.21-1.15-1.54,0,.28.18.45.28.65.2.42.64.65.82,1.1.38.9.63,1.83.86,2.77.3,1.26.52,2.54.8,3.81.13.6.24,1.21.15,1.8-.14.96-.16,1.91-.15,2.87.01,1.09-.26,2.12-.63,3.12-.09.25-.17.51-.15.89.23-.35.35-.63.44-.92.39-1.33.55-2.7.55-4.08,0-1.97,0-3.94,0-5.91,0-.87-.24-1.66-.69-2.39-.43-.69-.83-1.39-1.12-2.15Z"/>
        <path class="cls-2" d="m100.73,52.85c-1.12.14-1.36,1.23-1.2,2.06.09.46.51.52.84.67.14.06.31.07.46.09.65-.16,1-.27,1.19-.33.04-.11.1-.32.15-.65-.36.37-.99.59-1.42.42-.27-.1-.62-.18-.46-.62,0-.01,0-.03,0-.04-.02-.18-.26-.44-.16-.49.29-.16.11-.55.42-.68.22-.09.62-.22,1.03-.22.31-.06.53.08.71.29,0-.16,0-.33,0-.52v-.3s0-.04,0-.05c-.04-.17-.16-.16-.28-.19-.25-.07-.47-.17-.46-.49.02-.33-.02-.71.39-.83.19-.06.26-.22.37-.33v-.53s-.03,0-.05,0c-.26,0-.42-.11-.49-.34-.09-.28.1-.47.25-.65.08-.1.19-.14.29-.13v-1.27c-.07.18-.09.41-.06.71.01.17.03.25-.19.28-.7.12-1.02.73-.76,1.41.05.12.13.21-.01.34-.62.55-.5,1.23-.27,1.89.12.35.17.45-.29.51Z"/>
        <path class="cls-2" d="m138.3,6.33c0-.19,0-.38,0-.57-.02-.29-.19-.45-.48-.47-.13,0-.26,0-.39,0-43.76,0-87.52,0-131.28,0-.12,0-.23,0-.35,0-.31.01-.48.18-.5.49,0,.16,0,.32,0,.48,0,43.69,0,87.38,0,131.07,0,.15,0,.29,0,.44,0,.36.19.53.55.54.15,0,.29,0,.44,0,43.69,0,87.38,0,131.07,0,.15,0,.29,0,.44,0,.33,0,.51-.18.52-.51,0-.18,0-.35,0-.53,0-21.82,0-43.64,0-65.47s0-43.64,0-65.47ZM6.27,5.96c.12,0,.23,0,.35,0,43.44,0,86.88,0,130.32,0q.68,0,.68.69c0,3.26,0,6.52,0,9.78,0,.35-.09.51-.43.61-.46.13-.81.48-1.2.74-.54.35-1.16.64-1.76.89-.5.21-1.08.24-1.47.68.1.16.2.31.29.48.03-.28.24-.5.6-.62.49-.16.98-.22,1.49-.09.54.14.82.55.82,1.18,0,.37-.31.54-.47.81-.19.33-.45.37-.82.26-.28-.08-.61-.03-.91-.03-.01,0-.02,0-.04,0,.09.26.19.51.26.78.14-.02.29-.03.44-.03.93.05,1.39.72,1.01,1.57-.08.17-.12.29.09.43.29.2.3.58.41.88.25.7.28,1.45.52,2.15.13.37.33.64.64.85.34.24.52.55.52.99-.02,1.75,0,3.5,0,5.25-.06-.48-.32-.77-.7-1.1-.64-.55-1.18-1.23-1.66-1.95-.36-.54-.69-1.11-1.02-1.67-.08.4-.18.78-.3,1.17.21.37.44.72.68,1.07.49.72.88,1.5,1.29,2.26.41.75.81,1.51,1.36,2.17.22.27.35.55.35.91,0,9.08,0,18.15,0,27.23,0,.23-.02.41-.26.54-.19.1-.3.33-.48.44-.16.09-.14.48-.46.3-.31-.17-.72-.22-.68-.76.05-.56-.03-1.12,0-1.68.07-1.35-.17-2.67-.54-3.97-.17-.61-.25-1.25-.31-1.88-.07-.69-.31-1.33-.48-1.98-.23-.85-.3-1.72-.44-2.58-.08-.51-.27-1-.36-1.52-.15-.87-.23-1.75-.12-2.63.03-.27-.05-.44-.15-.64-.31-.64-.66-1.23-1.42-1.42-.22-.05-.25-.22-.09-.35.67-.57.63-1.15.23-1.91-.49-.93-.53-2.06-1.06-2.98-.48-.83-.54-1.77-.94-2.59-.19-.38-.34-.78-.48-1.18-.18.16-.37.31-.55.46.16.39.31.79.47,1.18.26.65.58,1.26.9,1.87.23.42.1.94.31,1.38.36.78.49,1.64.78,2.44.19.52-.03.9-.33,1.27-.08.1-.19.18-.27.28-.08.09-.23.17-.14.33.09.16.21.07.34.05.45-.09.86.12,1.08.54.55,1.08.88,2.2.82,3.43-.04.87.12,1.73.45,2.54.14.34.15.71.19,1.07.1.86.51,1.63.63,2.49.14,1,.27,2.01.39,3.02.15,1.18.29,2.36.42,3.54.03.26,0,.53,0,.74.08.5-.07.94,0,1.4.06.35-.49.83-.84.81-.01,0-.03,0-.04,0-.26-.08-.58.19-.77-.04-.16-.18-.17-.48-.26-.73-.24-.62-.48-1.25-.72-1.87-.04-.09-.08-.2-.08-.29.04-.77-.12-1.54-.09-2.31.04-1.22-.26-2.39-.45-3.57-.21-1.31-.79-2.52-.91-3.87-.06-.62-.3-1.26-.6-1.85-.29-.56-.51-1.16-.81-1.72-.46-.85-.21-1.65.35-2.34.28-.35.2-.46-.16-.59-.85-.3-1.14-1-1.28-1.81-.03-.19-.07-.37-.18-.53-.31-.44-.46-.94-.54-1.45-.06-.41-.18-.8-.36-1.14-.27-.5-.26-1.01-.22-1.53.01-.2-.01-.37-.1-.54-.1-.21-.2-.41-.3-.61-.21.12-.43.23-.65.34.02.06.04.13.07.19.33.9.44,1.85.71,2.76.28.92.58,1.86.7,2.8.13.99.76,1.49,1.45,1.97.18.13.23.22.12.36-.68.94-.46,1.86-.11,2.87.37,1.05.83,2.08,1.05,3.18.32,1.59.77,3.15.94,4.77.12,1.22.33,2.44.61,3.64.31,1.3.44,2.62.55,3.95,0,.05.01.12,0,.16-.02.06-1.18.45-1.25.42-.21-.08-.42-.09-.64-.09-.7,0-.94.14-1.19.8-.08.22-.13.27-.36.17-.62-.26-1.25-.04-1.62.53-.07.1-.06.3-.29.12-.79-.62-1.52-.51-2.11.3-.08.11-.13.21-.3.19-.19-.02-.24-.15-.27-.29-.11-.6-.27-1.19-.27-1.8,0-.42-.15-.8-.27-1.18-.25-.83-.21-1.71-.43-2.55-.11-.43-.18-.88-.28-1.32-.06-.27-.13-.53-.36-.72-.44-.36-.5-.88-.51-1.4,0-.37-.13-.72-.26-1.05-.2-.48-.23-.98-.16-1.46.17-1.02-.21-1.91-.53-2.82-.08-.23-.23-.4-.4-.56-.22-.22-.42-.44-.64-.66-.31-.3-.33-.58.05-.84.23-.15.17-.36.08-.54-.39-.76-.69-1.56-.98-2.36-.03-.08-.07-.18-.05-.25.2-.73-.22-1.28-.52-1.87-.03-.05-.08-.09-.09-.15-.28-1.24-1.13-2.21-1.53-3.39-.23-.68-.52-1.33-.83-1.97-.2,0-.39,0-.59-.02.11.16.22.33.34.49.13.17.21.38.27.59.39,1.54,1.31,2.87,1.78,4.39.11.36.31.69.46,1.03.16.37.32.74.3,1.17-.03.54.41.94.5,1.46.04.21.14.41.21.62.32.96-.07,1.5-1.33,1.49-.41-.04-.86-.34-1.21-.89-.7-1.09-1.19-2.29-1.75-3.44-.61-1.27-1.12-2.6-1.56-3.95-.2-.6-.68-1.03-1.15-1.44-.39-.35-.53-.85-.7-1.33-.08-.21-.14-.43-.21-.65-.03,0-.06,0-.09-.01,0,.61,0,1.18,0,1.71.25.34.57.62.76,1,.1.2.26.38.44.54.73.66,1.09,1.49,1.29,2.45.1.47.35.91.57,1.35.42.84.65,1.73.9,2.62.07.26.16.5.38.67.33.25.58.55.69.97.06.24.32.22.5.29.24.1.51.13.23.53-.44.63-.34,1.39-.28,2.11.02.3.31.51.47.77.04.07.06.14.09.22.27.05.58.12.94.2l.17.04c-.04-.91-.67-1.62-.86-2.48-.21-.92-.28-.94.65-.94.3,0,.61.02.91-.08.2-.06.34,0,.46.21.22.37.48.73.75,1.07.38.5.48,1.07.53,1.67.05.59.06,1.19.27,1.76.16.41.06.85.19,1.28.31,1.07.41,2.2.89,3.22.27.58.29,1.22.39,1.84.16.95.36,1.9.57,2.84.04.2.03.4.06.61.05.33-.08.66,0,1,.03.14-.04.25-.14.35-.17.16-.34.33-.38.57,0,.06-.04.15-.09.12-.42-.28-1.05.14-1.39-.5-.17-.32-.47-.6-.71-.91-.44-.59-.34-1.27-.46-1.92-.22-1.22-.29-2.46-.76-3.64-.14-.35-.22-.71-.27-1.09l-.73-.04c.26.76.53,1.51.67,2.3.25,1.38.52,2.76.68,4.16.03.27-.04.45-.32.58-.38.18-.61.54-.79.91-.12.25-.27.28-.52.22-.6-.14-1.2-.2-1.75.2-.32.23-1.03-.02-1.11-.4-.3-1.42-.77-2.8-.88-4.25-.03-.41-.21-.78-.32-1.17-.11-.38-.26-.73-.22-1.15.02-.2-.04-.39-.28-.52-.24-.14-.27-.48-.31-.74-.02-.13-.07-.26-.1-.39-.26,0-.52-.02-.77-.03.22.98.77,1.85.94,2.85.12.66.35,1.32.61,1.94.29.7.24,1.45.39,2.17.05.26.13.51.07.77.11.37-.12.68-.21,1-.07.26-.3.43-.62.23-.07-.04-.17-.09-.24-.08-.73.13-.91-.41-1.12-.91-.43-1.05-.67-2.15-.98-3.23-.25-.89-.52-1.78-.78-2.67-.18-.63-.21-1.26-.11-1.91.01-.09.05-.16.09-.24-.22,0-.45-.01-.66-.02-.29,1.01-.28,2.01.18,2.97.43.91.68,1.87.85,2.85.09.49.31.93.47,1.4.16.47.24.94.17,1.44-.04.26-.12.39-.41.37-.39-.03-.79-.05-1.09.31-.08.1-.19.05-.28.01-.4-.15-.82-.15-1.25-.15-.17,0-.36.02-.45.14-.41.57-.94.11-1.41.2-.03,0-.09-.03-.11-.06-.7-.87-1.65-.46-2.51-.51-.48.59-1.03.24-1.58.16-.31-.05-.36-.19-.33-.43.04-.37-.09-.67-.4-.86-.21-.13-.1-.2-.03-.33.29-.56.72-1.09.41-1.78-.03-.06,0-.1.04-.15.42-.77.37-1-.32-1.52-.03-.02-.05-.06-.08-.1.63-.15,1.04-.63,1.07-1.28,0-.16-.03-.28-.15-.39-.23-.23-.13-.35.15-.39.91-.11,1.39-1.04.95-1.82-.01-.02-.02-.05-.03-.07-.22,0-.43.01-.65.02.19.12.28.3.34.6.07.36-.09.6-.46.85.11-.61-.07-1.05-.45-1.43-.23,0-.46.01-.69.02.28.1.51.29.61.56.14.35.21.82-.13,1.14-.33.31-.69.64-1.15.52-.46,0-.85.03-1.01-.48-.19-.62-.12-.93.32-1.34.15-.14.29-.27.45-.37-.65.03-1.29.05-1.94.09,0,.19.14.39.4.67-.48.35-.75.78-.53,1.4.03.08,0,.15-.06.19-.31.22-.35.64-.72.84-.36.19-.4.55-.24.92.07.17.04.23-.13.33-.91.51-1,1.3-.2,1.96.19.15.18.2.04.39-.41.57-.66.95.08,1.7-.59.05-.93.44-1.28.81-.28.3-.94.22-1.2-.09-.71-.84-1.09-.9-2.05-.33-.58.35-1.12.31-1.76.06-.72-.28-1.3-.92-2.18-.8-.51.07-.92.24-1.23.64-.3.39-.85.51-1.2.22-.29-.24-.6-.33-.96-.32-.78,0-1.56,0-2.34,0-.43,0-.77.14-1.07.47-.24.27-.6.21-.88.04-.63-.36-1.09-.37-1.65.06-.09.07-.14.08-.23.04-.54-.23-1.08-.38-1.56.14-.02.02-.06.04-.08.03-.48-.27-1.06-.02-1.53-.3-.51-.3-1.25-.21-1.62.27-.15.19-.31.33-.53.48-.24-.56-.65-.82-1.2-.89-.51-.06-.86.22-1.06.62-.14.27-.22.18-.33.05-.47-.6-1.06-.61-1.69-.32-.51.24-1.01.19-1.53.07-.64-.15-1.24-.12-1.7.44-.1.12-.23.07-.36.07-.53.02-1.01-.22-1.53-.24-.47-.02-.81.21-1.15.45-.15.11-.28.19-.47.17-.48-.04-.85.17-1.13.54-.1.13-.16.16-.34.11-.6-.15-1.28.05-1.54.8-.02.07-.04.16-.09.19-.52.29-.96.66-1.2,1.22-.06.15-.21.04-.32.03-.94-.07-1.17.05-1.56.9-.07.15-.15.16-.26.15-.7-.06-1.2.15-1.35.91-.03.14-.16.14-.28.15-.97.07-1.2.3-1.27,1.27-.01.19-.07.27-.27.31-.54.11-.88.47-1.09.97-.07.17-.15.26-.35.25-.57-.03-.9.3-1.07.78-.07.19-.13.22-.3.19-.61-.12-1.28.46-1.38,1.12-.04.26-.14.5-.1.78-1.01-.48-1.79-.07-1.92,1.01-.02.2-.1.21-.26.25-.83.16-1.29.72-1.27,1.54,0,.18-.09.17-.2.22-.54.23-1.01.53-1.08,1.19-.02.18-.14.19-.27.22-.85.25-1.16,1.28-.82,1.95.16.31-.06.33-.24.4-.65.24-.97.71-.95,1.4.01.4.2.68.53.89.07.04.25.02.19.18-.04.1-.11.22-.24.24-.09.02-.17,0-.26.01-.64.02-1.01.54-.79,1.14.06.17.05.26-.03.42-.22.5-.48,1.06-.49,1.57-.02.65,0,1.25-.28,1.87-.14.29-.11.72.08,1.06.07.13.04.19-.09.27-.52.31-.68.8-.63,1.38.02.25.14.44.34.58.13.1.38.09.38.3,0,.24-.01.52-.18.71-.39.44-.37.9-.12,1.37.1.19,0,.26-.1.37-.45.5-.62,1.08-.41,1.73.06.19-.02.25-.16.34-.74.46-.89.85-.62,1.69.06.19.09.27-.16.31-.45.07-.84.41-1.33.35-.04,0-.09.02-.12.05-.38.45-.89.26-1.35.28-.25.01-.49-.02-.74.07-.11.04-.22,0-.34-.05-.96-.47-1.74-.14-2.16.61-.11.2-.24.4-.54.26-.07-.04-.17,0-.26,0-.59,0-.6,0-1.12-.29-.26-.15-.54-.2-.8-.13-.32.08-.58.03-.86-.1-.32-.15-.66-.09-.99-.08-.37.01-.56.26-.68.59-.05.14-.17.08-.26.03-.82-.4-1.51-.22-2.02.52-.21.3-.39.25-.64.13-.26-.12-.5-.25-.83-.19-.46.08-.77.32-1,.68-.11.18-.18.18-.36.06-1.14-.74-2.24-.28-2.6,1.07-.02.08.02.17-.14.13-.48-.1-.94.07-1.42.12-.42.05-.76.23-1.01.54-.18.23-.32.19-.55.09-.6-.29-1.2-.29-1.79.04-.15.09-.3.11-.45.02-.61-.35-1.28-.3-1.92-.22-.81.1-1.31.72-1.71,1.37-.11.18-.22.31-.39.42-.17.11-.34.23-.47.38-.18.21-.39.28-.66.26-.69-.05-1.32.02-1.64.77-.06.14-.22.11-.35.06-.5-.17-1-.18-1.49,0-.18.07-.24.02-.24-.16,0-.12,0-.23,0-.35,0-35.9,0-71.8,0-107.7,0-.13,0-.26,0-.39-.01-.23.09-.32.32-.31Zm130.47,14.83c.59-.13.89.12.89.72,0,.17,0,.35,0,.52v.48c0,.55-.14.74-.63.83-.4.07-.97-.24-1.11-.6-.24-.64-.12-1.3.32-1.67.16-.13.34-.23.54-.28Zm-.5-2.1c-.03-.45.56-1.12,1.04-1.28.27-.09.35,0,.35.25,0,.39,0,.79,0,1.18,0,.38,0,.76,0,1.14,0,.18-.03.34-.27.26-.77-.26-1.05-.54-1.11-1.55Zm-3.35,49.94c-.24.13-.51.19-.72.27-.48-.05-.69-.38-.58-.79.04-.14.04-.29.05-.43.02-.47.38-.73.83-.58.6.2.59.2.54,1.07-.01.17.06.38-.11.47Zm-.71,2.4c0,.33.31.43.45.7-.14.04-.25.09-.36.11-.5.09-.79-.15-.81-.64,0-.04,0-.09,0-.13.02-.14-.22-.4.08-.41.23,0,.65-.09.65.37Zm-.11-.82c-.37,0-.38-.23-.34-.55.05-.09-.13-.43.21-.32.28.1.78-.26.84.33.04.32-.31.54-.71.54Zm1.09-.05c.02-.1.05-.3.24-.23.15.05.37.07.35.31-.02.29.11.51.31.69.16.14.09.25-.05.35-.32.24-.88.15-1.11-.19-.08-.12-.17-.22-.27-.34.23-.15.45-.3.52-.6Zm.15-1.21c.17-.2.29-.46.31-.7.02-.34.24-.4.48-.45.48-.1,1.12.35,1.14.78.03.58-.5,1.08-1.19,1.08-.17.02-.37,0-.56-.09-.31-.13-.44-.32-.19-.62Zm.79,1.16c.33-.07.64-.05.9-.22.13-.09.22.05.21.12-.03.19.32.27.13.48-.27.3-.67.29-.94-.03-.09-.1-.18-.21-.3-.35Zm.82-3.55c0-.31.52-.7.9-.69.38.01.92.57.91.95-.01.39-.42.84-.75.82-.41-.02-1.07-.7-1.06-1.08Zm2.03,1.66c.28,0,.66.48.66.84,0,.63-.53,1.19-1.18,1.2-.44,0-.88-.44-.86-.87.02-.66.63-1.18,1.38-1.17Zm.09-1.85c-.25-.42-.03-.64.25-.88.08-.06.15-.13.3-.27v2.74c-.39-.04-.56-.18-.45-.61.08-.32.07-.7-.1-.98Zm-7.3,5.11c.47.04.81-.26,1.23-.43-.12.81-.45,1.06-1.2.98-.17-.02-.23-.07-.18-.24.03-.11-.12-.33.15-.31Zm.11-.42c-.62-.02-1-.73-.69-1.29.29-.53.78-.82,1.29-1.07.27-.13.79.33.84.72.01.09,0,.17,0,.24.15.59-.86,1.41-1.44,1.39Zm-.42-3.14c.07-.46.82-.81,1.25-.61.21.1.28.28.26.5.01.36-.06.61-.52.55-.26-.03-.54.01-.82.04-.37.03-.19-.33-.17-.47Zm-5.99,1.77c-.04-.19-.02-.27.18-.15.07.04.14.08.19,0,.27-.35.51-.07.71.06.15.1.19.31.1.51-.12.29-.32.44-.65.42-.2.03-.36-.08-.53-.17-.13-.07-.22-.16-.08-.3.11-.11.09-.25.07-.37Zm.17,1.84c.41-.47,1.4-.66,1.94-.38.29.15.35.65.11.95-.26.33-.38.38-1.07.46-.77.08-.97-.05-1.08-.69-.03-.16.03-.24.11-.34Zm2.17-1.26c-.32-.06-.55-.22-.46-.6.02-.09.03-.16,0-.25-.1-.43.04-.7.44-.84.33-.11.71.08.88.45.06.14.09.28.08.4,0,.64-.37.97-.95.85Zm.52,1.47c.13.3.72-.04.61.44-.14.59-.32.66-.92.49.21-.27.35-.56.31-.93Zm.43-.83c-.02-.26.52-.72.84-.71.31,0,.58.24.58.52,0,.46-.31.81-.73.81-.33,0-.66-.3-.68-.62Zm.72-1.94c0-.4.32-.75.7-.73.35.01.61.32.61.72,0,.41-.21.62-.62.62-.31,0-.68-.33-.69-.6Zm1.21,2.02c.4.37.39.8-.01,1.21-.18.18-.5.09-.94-.27.45-.17.91-.33.95-.94Zm-14.36,2.49c.14-.04.3-.07.4-.16.34-.31.64-.12.93.06.23.14.12.35.07.54-.1.39-.4.45-.73.47-.03,0-.06,0-.11,0-.19.04-.38-.05-.57-.1-.32-.09-.19-.42-.26-.63-.05-.17.16-.15.28-.18Zm-.62-.82c-.03-.3.14-.57.45-.58.29-.01.63.3.63.46,0,.34-.36.45-.69.51-.31.07-.37-.2-.39-.39Zm1.76-.45c-.02.11-.01.22-.02.33-.03-.45.08-.91-.3-1.3-.12-.12-.02-.44.14-.57.21-.16.5-.13.73,0,.12.07.22.19.3.31.11.17.2.31-.15.35-.47.06-.61.47-.71.87Zm1.13-.46c.51-.01.97.36.97.78,0,.36-.32.64-.72.64-.47,0-.95-.4-.95-.78,0-.19.49-.63.71-.64Zm.43-.92c.07-.42.16-.7.63-.67.34,0,.78.35.78.62,0,.29-.36.63-.66.63-.35,0-.79-.32-.75-.58Zm-.58,2.78c.56.06,1.15-.4,1.69.06-.54.55-1.06.61-1.63.17-.08-.06-.22-.25-.06-.23Zm1.67-.98c.13-.29-.14-.51-.24-.78.27-.06.53-.05.79-.18.19-.09.44.17.58.37.16.23.37.47.19.79-.19.33-.66.56-.94.46-.31-.11-.56-.24-.37-.66Zm.96-2.5c0-.61.41-1.13.92-1.11.59.03,1.17.36,1.19.82.02.66-.46,1.04-1.27,1.04-.4,0-.84-.4-.84-.75Zm2.07,1.59c.04.34-.23.56-.62.56-.42,0-.53-.12-.53-.6,0-.37.17-.49.7-.49.35,0,.43.27.46.53Zm-1.27,1.34c.09-.28.1-.42.43-.3.21.07.43-.05.63-.12.31-.1.41.02.39.29,0,.41-.58.84-.96.67-.22-.1-.67,0-.5-.54Zm1.67-2.41c.04-.08.14-.13.16-.2.08-.36.33-.39.62-.33.35.07.56.27.59.57,0,.32-.03.51-.37.39-.21-.07-.44-.03-.63.07-.25.13-.43.02-.56-.16-.15-.21.14-.22.19-.34Zm.81.91c.43.03.55.2.56.75,0,.44-.6.89-.94.64-.24-.17-.27-.55-.27-.85,0-.41.23-.57.65-.54Zm-11.19,1.95c-.32-.13-.49-.58-.31-.96.19-.4.54-.48.91-.39.82.02,1.1.4.81,1.05-.17.37-.87.52-1.4.3Zm.33,1.04c0,.25-.43.66-.71.68-.26.01-.62-.36-.62-.65,0-.42.16-.57.63-.57.41,0,.71.23.7.54Zm1.7-1.17c.06-.09.19,0,.28.03.13.05.16.17.13.29-.11.59-.44.97-1.11.66-.17-.08-.32-.19-.6-.35.54-.13,1.01-.19,1.29-.63Zm-.11-1.56c-.3.05-.6,0-.9-.07-.51-.13-.2-.55-.32-.82-.09-.21.24-.18.38-.24.13-.05.29-.03.34-.03.29,0,.49,0,.68.08.23.1.43.15.36.51-.07.34-.25.52-.55.57Zm-4.11,2.38c-.57,0-.75-.12-.81-.58-.05-.42.25-.59.58-.71.23-.08.48-.09.71-.16.15-.04.2.03.28.13.22.29.29.64.14.94-.17.32-.54.4-.9.38Zm.71.92c.04.19-.24.4-.51.39-.27,0-.55-.08-.66-.33-.09-.22.36-.56.74-.57.48-.19.4.35.43.51Zm-.14-2.83c-.25.12-.52.21-.8.15-.23-.05-.56-.07-.58-.35-.03-.34-.42-.73.07-1.06.19-.13.39-.08.56-.1.35,0,.66.02.92.25.47.42.42.83-.16,1.1Zm-16.45,26.81c.3-.02.61.01.88-.17.12-.08.21-.02.27.12.13.33.09.66-.13.9-.23.24-.57.33-.92.22-.13-.04-.12-.12-.09-.24.07-.27.03-.54-.01-.82Zm.13-.42c-.72,0-1.14-.4-1.14-1.07,0-.83.61-1.16,1.49-1.23.51-.04,1.08.5,1.08.97,0,.83-.54,1.32-1.43,1.32Zm-11.56,7.25c.42.12.81.02,1.23-.1-.06.26-.09.49-.17.7-.1.3-.81.57-1.08.43-.1-.05-.12-.14-.05-.22.21-.24.15-.51.07-.81Zm.59-.4c-.36.04-.68,0-1.01-.13-.58-.23-.78-.8-.49-1.36.23-.43.38-.9.88-1.14.28-.13.55-.27.81-.22.95.04,1.73.82,1.44,1.61-.24.67-.94,1.17-1.63,1.24Zm-27.73,5.08c-.12-.24.01-.3.18-.38.17-.09.39-.13.49-.34.04-.08.13-.13.22-.09.34.14.69.06,1.04.07.25,0,.32.11.34.34.06.72-.49,1.15-1.3,1.19-.21.03-.42-.08-.66-.05-.16.02-.3-.09-.28-.31.01-.14.04-.31-.02-.43Zm-3.07.44c-.46.22-.92.2-1.4.08-.26-.07-.39-.29-.39-.51,0-.26-.18-.57.21-.76.37-.18.62-.47.56-.93-.03-.24,0-.48.35-.28.05.03.1.04.16.01.83-.31,1.61.2,1.61,1.07.03.76-.4.96-1.11,1.31Zm.1.79c-.11.31-.36.44-.67.44-.36.02-.51-.26-.68-.48-.1-.13.04-.16.15-.17.32-.03.64-.03.94-.11.36-.09.35.09.26.31Zm-17.11,21.65c.03.26-.07.3-.24.27-1.08-.2-2.18.02-3.26-.23-.44-.1-.61-.45-.96-.63-.38-.19-.78-.32-1.16-.48-1.25-.54-2.55-.97-3.66-1.79-.83-.61-1.65-1.23-2.47-1.84-.22-.16-.47-.06-.71-.11-.3-.06-.6-.09-.87-.25-.27-.16-.46-.35-.41-.69.02-.15-.03-.3-.16-.38-.86-.54-1.48-1.35-2.25-1.98-1.17-.96-2.1-2.12-3-3.32-.2-.27-.4-.51-.48-.84-.16-.68-.75-1.13-1.01-1.76-.13-.33-.26-.65-.1-1,.04-.09.06-.22.2-.17.81.25,1.43-.25,2.05-.59.52-.28,1-.64,1.59-.76.42-.09.68-.43,1.01-.66.49-.36.88-.31,1.04.24.34,1.16.96,2.19,1.44,3.28.23.53.48,1.06.71,1.59.11.26.28.47.53.61.33.17.54.45.76.75.69.91,1.41,1.79,2.17,2.65,1,1.12,2.3,1.76,3.51,2.57.87.58,1.88.91,2.71,1.55.02.02.05.03.08.03,1.18.12,2.06.96,3.15,1.29.26.08.54.2.79.14.37-.09.53.09.72.37-1.22.17-1.87.96-1.73,2.14Zm-23.84-17.09c-.35-.21-.73-.21-1.1-.16-.41.05-.46-.17-.46-.47,0-.47.65-1.11,1.24-1.23.57-.11.94.05,1.13.55.13.34.18.69,0,1.04-.23.44-.39.52-.8.27Zm-.14,2.68c-.29.26-.65.63-1.1.5-.67-.02-1.16-.19-1.38-.84-.09-.26-.05-.37.18-.48.43-.21.64-.58.7-1.04.06-.49.33-.71.85-.65.56.06.91.37,1.09.91.21.62.12,1.2-.34,1.61Zm10.18-7.04c-.03-.17-.2-.42.08-.54.23-.1.44-.03.63.16.25.26.55.48.51.88.04.21-.03.34-.18.43-.23.13-.43.31-.59.51-.17.21-.33.15-.53.04-.28-.15-.04-.28.01-.38.17-.36.16-.72.08-1.1Zm5.41-2.68c.09-.18.17-.33.36-.41.57-.23,1.51.09,1.82.61.1.17.17.35.07.54-.08.17-.07.35-.42.22-.46-.17-1.01-.1-1.5.08-.09.03-.18.11-.17.23.26.16.53.04.79,0,.43-.08,1.01.23,1.17.63.33.85-.16,1.88-1.02,2.15-.14.04-.28.08-.42.1-.68.13-.9-.03-.86-.71.03-.49-.12-.85-.54-1.13.42-.26.78-.54.87-1.04,0-.43-.38-.81-.16-1.27Zm2.79.3c.6-.27,1.17-.3,1.75-.02,1.05.52,1.13,1.88.15,2.55-.28.2-.63.27-.92.16-.6-.24-1.11-.61-1.29-1.3-.04-.14,0-.25.08-.36.37-.55.33-1.11-.17-1.55-.32-.28-.22-.35.09-.51.34-.17.66-.3,1.02-.08.11.07.27.08.28.24.01.19-.18.16-.28.22-.16.09-.35.14-.51.23-.13.08-.28.18-.19.41Zm2.73,2.06s.03-.05.04-.08c.15-.63.56-.82,1.17-.71.12.02.25-.07.38-.07.18,0,.28-.33.45-.14.2.22.41.46.36.78-.02.61-.51,1.18-1.13,1.36-.34.1-.95-.2-1.23-.58-.13-.18-.19-.36-.03-.55Zm-.08-2.17c-.05-.27.46-.54.9-.54.43-.02.7.18.83.54.1.28.09.59-.19.79-.34.23-.79.41-1.08.13-.21-.2-.4-.58-.46-.92Zm5.4-.05c.23-.12.47-.22.69-.35.35-.2.77-.1,1.14.38.19.25.46.58.01.89-.07.05-.15.16-.13.21.15.45-.15.62-.47.78-.38.18-.77.23-1.17.06-.08-.03-.16-.06-.28-.11.46-.58.36-1.21.2-1.85-.45-.37-.88-.76-1.53-.75.72-.92,1.18-.91,2.22-.19-.25.3-.82.36-.69.93Zm7.91-21.41c.1.22-.01.34-.17.43-.24.14-.29.62-.63.48-.28-.11-.17-.51-.24-.77-.12-.46.43-1.07.92-1.05.18.03.21.17.15.32-.08.2-.11.4-.03.59Zm-.78,1.38c.45.12.7.65.52,1.08-.06.15-.13.24-.31.24-.36,0-.69.1-.93.39-.07.09-.17.13-.2.04-.11-.27-.49-.41-.4-.76.03-.69.68-1.16,1.32-1Zm.14,1.75c.43.01.36.35.35.64.01.43.25.79.41,1.16.07.17.11.24-.05.34-.51.32-1.73.09-1.85-.63-.1-.55.59-1.54,1.15-1.52Zm12.45-13.75c.23,0,.72.47.72.69,0,.42-.43.8-.92.8-.27,0-.71-.42-.71-.68,0-.33.55-.81.91-.8Zm-.62-1.03c.2-.13.33-.39.6-.32.53,0,.7.27.54.74-.05.15-.12.17-.24.17-.19,0-.37.02-.56.07-.14.04-.35.25-.44-.03-.06-.2-.19-.44.09-.62Zm2.46-.85c.17.5,0,.66-.49.56-.11-.02-.28.19-.31-.02-.03-.24-.28-.46-.07-.73.23-.29.5-.42.87-.32,0,.19-.04.36,0,.51Zm7.12-2.21c-.38.08-.69.06-1.04.29.4-.86.15-1.41-.64-1.77.38-.3.76-.39,1.17-.35.11.01.26.04.19.2-.27.58-.14,1.1.32,1.62Zm3.26-.94c.3.02.96.8.91,1.16-.05.32-.16.66-.34.91-.2.27-.57.32-.92.31-.79,0-1.2-.33-1.21-.97,0-.58.96-1.46,1.55-1.42Zm-1.46-.92c.04-.2.16-.3.36-.31.12,0,.23,0,.35,0,0,0,0,0,0,0,.15,0,.32-.05.43.01.14.08.47-.06.41.3-.04.27-.03.58-.46.5-.19-.04-.39.03-.55.11-.17.1-.29.13-.45-.03-.2-.19-.14-.38-.1-.59Zm3.92,2.97c.11.45-.28.41-.48.49-.23.09-.47.03-.46-.32,0-.06,0-.12-.02-.17-.09-.24-.3-.52-.08-.73.27-.26.62-.48,1.13-.44-.33.41-.17.8-.08,1.17Zm-.85-1.59c-.54-.02-.85-.39-.83-.99,0-.25.67-.8.95-.79.75.02,1.06.31,1.04.97-.01.52-.46.84-1.16.81Zm-3.16,2.13c-.1.11-.31.2-.48.12-.3-.14-.58-.31-.76-.61-.02-.04-.07-.08-.06-.11,0-.2-.43-.19-.25-.41.2-.25.47-.48.83-.46.28-.07.22.13.22.26,0,.35.07.66.34.91.08.08.28.17.16.3Zm-.99-1.96c-.38,0-.67-.25-.67-.58,0-.4.35-.72.81-.74.05,0,.65.63.65.69.02.21-.51.62-.79.62Zm-.56,2.05c.01.51-.65,1.35-1.39,1.28-.54,0-.88-.35-.89-.9-.01-.53.81-1.49,1.27-1.48.54.01.99.52,1.01,1.11Zm-4.77,1.93c.01-.43.38-.23.5-.32.52-.06.76.21.84.56.09.39-.15.71-.47.91-.34.21-.67.05-.96-.17-.06-.04-.11-.1-.05-.18.18-.24.13-.53.14-.8Zm.83-.83c.42-.36.51-.8.5-1.32,0-.31.37-.28.62-.27.34.01.16.22.11.37-.05.16.07.43-.1.48-.45.14-.63.67-1.13.74Zm.82.04c.18-.09.36-.34.61-.1.23.23.44.49.79.58.18.05.06.22.06.34-.05.56-.29.82-.76.8-.3-.01-.52-.09-.52-.48,0-.25-.1-.52-.23-.73-.12-.19-.15-.32.05-.42Zm1.53-3.41c0,.58-.46,1.09-1,1.09-.47,0-.87-.4-.86-.89.01-.59.28-.83.93-.89.36,0,.93.43.94.69Zm-1.82,1.31c-.06.05-.1.1-.16.14-.08.06-.12,0-.17-.06-.34-.39-.69-.74-1.23-.84-.18-.03-.07-.16-.04-.24.07-.16.76-.43.93-.38.08.03.12.08.12.16.03.42.17.79.46,1.1.03.03.05.07.08.12Zm-.99-.12c.3.22.41.55.49.89.11.53-.33,1.15-.99,1.37-.16.05-.33.13-.52.12-.32-.08-.65-.13-.96-.24-.27-.09-.39-.87-.24-1.28.15-.4.42-.69.72-.96.04-.04.11-.11.14-.09.44.18.95-.12,1.37.19Zm-1.12,2.74c.07-.02.18-.04.17.05-.04.22.18.41.04.63-.07.11-.14.03-.22.01-.33-.06-.71-.01-.96-.18-.23-.15-.06-.62-.36-.84.44.23.85.43,1.35.33Zm-.98.99c.68-.08,1.04.21,1.12.88,0,.03.01.06.01.09.03.24-.83.8-1.21.79-.35,0-.59-.26-.72-.58-.06-.16-.07-.34-.09-.47,0-.4.34-.64.89-.71Zm-.8-.19c-.22.13-.41.3-.65.45-.06-.27-.06-.51-.18-.68-.24-.36.05-.51.25-.6.21-.1.52-.15.69.14.14.24.18.52-.11.68Zm-.37,2.33c.12.22-.03.42-.14.6-.09.15-.25.19-.42.17-.22-.02-.11-.2-.13-.31-.02-.15-.08-.27-.16-.39-.07-.1-.24-.17-.13-.33.08-.11.21-.14.29-.13.35,0,.57.15.7.39Zm-1.91-.33c.21.1.34.22.38.42.05.24.09.47.22.69.12.19,0,.44-.19.51-.36.13-.69.38-1.13.36-.22,0-.49,0-.66-.2-.18-.21-.21-.51-.33-.77-.04-.09.17-.31.28-.45.28-.37.99-.79,1.43-.57Zm-1.48,2.9c0,.52-.43,1.01-.89,1.01-.42,0-.97-.5-.97-.87,0-.41.52-.83,1.04-.83.39,0,.82.36.83.69Zm.78-4.78c-.19.31-.31.6-.17.98.07.18-.04.3-.28.27-.47,0-.82-.44-.78-1,.03-.39.52-.82.91-.79.21.02.43.36.32.53Zm-1.05,1.77c.06.23-.34.5-.48.79-.07.15-.3.05-.43.08-.38,0-.69-.29-.68-.64,0-.41.54-1.06.86-.94.3.11.65.42.73.71Zm-1.41,1.83c0,.11.02.22-.13.28-.13.05-.21.02-.29-.09-.29-.36-.54-.79-1.09-.81-.08,0-.11-.1-.05-.17.21-.25.4-.54.78-.56.04,0,.12-.01.12-.01.07.53.76.75.67,1.36Zm-.65.66c.1.33-.08.42-.33.36-.75-.17-1.35.08-1.82.64-.23.28-.34.17-.43-.09-.07-.19-.11-.39-.16-.58-.01-.04-.03-.09-.02-.13.06-.33,1.24-1.17,1.59-1.13.49.05,1.05.51,1.17.93Zm-1.14,9.15c.43.28.43.83.55,1.28.06.23.1.47.2.7.18.41.38.82.51,1.25.22.71.63,1.29,1.08,1.86.25.31.52.6.81.86.15.13.19.25.05.4-.25.27-.12.54.03.79.11.19.24.37.4.51.56.51.69,1.21.78,1.89.07.55.2,1,.64,1.4.47.42.85.95,1.28,1.43.25.28.56.49.9.67.68.35,1.07,1,1.53,1.63-.5.07-.85.42-1.41.31-.63-.13-1.24.08-1.63.67-.17.26-.33.23-.55,0-1.15-1.23-1.99-2.66-2.87-4.08-.62-1-1.33-1.93-1.86-2.98-.17-.33-.49-.6-.7-.93-.84-1.36-1.43-2.84-2.04-4.32-.41-.99-.47-2.01-.66-3.03-.02-.11.05-.19.1-.28.18-.33.33-.68.33-1.07,0-.26.07-.37.35-.44.85-.22,1.08-1.08.5-1.75-.08-.09-.16-.17-.24-.26.28-.21.56-.41.87-.64.16.94.32,1.86.48,2.78,0,.03,0,.06,0,.09-.24.62.06.97.57,1.3Zm9.46,15.44c.63,0,1.14.32,1.31.75.13.32.09.59-.19.82-.23.18-.4.32-.59-.07-.18-.38-.59-.47-.96-.49-.28-.01-.4-.18-.55-.35-.1-.12-.09-.19.04-.28.31-.22.66-.34.95-.38Zm-2.96,1.09c.22-.22.47-.37.8-.39.19-.01.37.03.55.09.3.1.48.22.18.54-.12.13-.25.33-.24.5.03.49-.24.52-.61.46-.35.1-.54-.02-.54-.4,0-.08-.05-.17-.05-.25-.02-.19-.3-.33-.09-.55Zm-.39-.31c.29-.96.62-1.06,1.71-.48-.68-.08-1.25,0-1.71.48Zm-12.25-2.28c-.1-.08-.24-.11-.1-.29.15-.2.22-.04.31.04.8.67,1.29,1.58,1.92,2.48-.64.02-1.2.1-1.76.17-.21.03-.41-.02-.21-.32.08-.12.1-.27.17-.4.36-.72.28-1.17-.32-1.68Zm-2.06.34c.19.36.37.71.35,1.13,0,.28-.12.33-.36.21-.15-.07-.27-.16-.33-.32-.13-.32-.3-.61-.73-.53-.09.02-.15-.06-.17-.19.32.01.59-.11.8-.35.17-.19.28-.27.45.06Zm-.64-4.01c-.12.12-.81-.22-.97-.45-.17-.25.07-.34.16-.5.16-.29.48-.36.7-.56.07-.06.2-.1.24-.02.18.31.33.63.51.99-.1.24-.42.34-.64.55Zm.53,2.01c-.02-.29.58-.86.91-.87.29,0,.81.72.83,1.15,0,.22-.43.64-.67.63-.5,0-1.03-.47-1.07-.92Zm2.43-5.69c.04.08.07.18.02.25-.07.09-.15.02-.22-.03-.4-.3-.85-.43-1.46-.34.61-.56,1.36-.45,1.66.13Zm-1.18-2.92c.16-.26.51-.31.77-.47.34-.21.77.12.87.67.05.26.09.51.18.76.04.1.05.21-.01.33-.16.3-.73.64-1.06.61-.63.02-.94-.4-1.16-.89-.2-.45.23-.7.42-1.01Zm.26,10.68c.36,0,.48.37.56.66.09.31-.23.44-.42.58-.12.09-.15-.05-.17-.16-.09-.45-.09-.97-.8-.99.31-.1.58-.1.83-.1Zm1.99-.69c-.1-.22-.49-.33-.76-.46-.12-.06-.24-.12-.28-.26-.38-1.35-1.06-2.57-1.57-3.87-.21-.54-.11-1.03.08-1.52.09-.23.5-.28.71-.05.44.46.92.9,1.21,1.48.22.44.47.87.86,1.2.39.33.64.75.9,1.17.36.57.23,1.06-.32,1.46-.17.12-.53.2-.39.48.15.31.45.05.66,0,.37-.09,1,.13,1.23.46.26.37.49.76.63,1.19.21.65.6,1.22.88,1.84.04.09.07.18.11.27l-.14.13c-.21-.24-.41-.49-.63-.71-.35-.35-.8-.41-1.23-.15-.22.13-.26,0-.31-.13-.37-.96-1.24-1.59-1.67-2.52Zm3.42.87c-.22-.41-.45-.82-.66-1.23-.17-.34-.55-.35-.83-.52-.29-.18-.44-.3-.18-.61.47-.57-.04-1.02-.27-1.44-.45-.8-1.01-1.52-1.58-2.24-.48-.59-.45-1.75.04-2.43.07-.09.14-.18.22-.27.16.02.2.17.23.27.29.84.58,1.69.84,2.54.05.16.1.3.22.41.48.47.7,1.09,1.02,1.66.08.14.11.26.34.22.28-.05.6.45.51.73-.06.17-.09.34.03.5.59.81.96,1.75,1.59,2.54.52.65,1.04,1.31,1.57,2-.09.04-.23.07-.29.14-.36.45-.83.25-1.27.25-.18,0-.24-.13-.31-.26-.41-.76-.81-1.51-1.22-2.26Zm2.03-.54c-.27-.65-.78-1.11-1.2-1.64-.51-.65-.42-1.16.32-1.49.11-.05.3-.09.27-.24-.04-.18-.22-.15-.37-.12-.81.18-1.22.09-1.6-.82-.22-.52-.49-1.02-.78-1.51-.12-.2.02-.37-.03-.54-.1-.39-.18-.8-.4-1.15-.53-.84-.9-1.75-1.22-2.68-.16-.46-.36-.87-.64-1.26-.54-.75-.46-1.76.17-2.4.23-.23.9-.06,1.02.26.1.27.1.57.17.85.34,1.46.76,2.91,1.4,4.27.25.52.58,1.01.91,1.48.52.75.65,1.68,1.2,2.41.42.57.86,1.13,1.26,1.72.39.56.79,1.12,1.1,1.72.52.99,1.27,1.8,1.96,2.66.06.08.17.12.16.26-.44.09-.84.27-1.16.61-.14.15-.29.2-.42-.02-.04-.07-.07-.14-.18-.17-1.1-.34-1.57-1.26-1.96-2.21Zm-3.97-17.21c.05-.25.16-.31.4-.24.28.08.56.14.78.35.22.21.29.48.22.75-.08.35-.4.47-.72.55-.08.02-.17,0-.27,0-.2.04-.4-.02-.59-.09-.31-.1-.37-.33-.19-.59.16-.22.3-.46.36-.73Zm-.18-1.31c0-.07.05-.1.1-.13.06-.04.13-.08.18-.13.36-.38.74-.61,1.21-.16.03.03.09.01.13.03.14.06.41-.12.43.14.02.28-.1.54-.37.69-.15.09-.72.23-.92.23-.21,0-.75-.49-.75-.68Zm1.96-2c-.02.31.09.6.11.91.02.27,0,.31-.26.3-.37,0-.56-.26-.65-.55-.1-.32,0-.67.26-.9.13-.12.28-.35.46-.28.2.08.1.34.09.52Zm-1.17-.9c-.28,0-.43-.17-.43-.55,0-.15,0-.39.25-.31.2.06.58-.07.55.33-.02.22,0,.52-.37.53Zm-.06,1.01c.14.89-.63,1.47-1.32,1.36-.51-.08-.87-.44-.89-.97-.02-.51.24-.8.79-.91.32-.07.63-.15.98-.07.38.09.61.21.45.59Zm-1.05,3.17c0,.07-.01.18-.05.2-.4.2-.62.75-1.18.63-.58-.02-.91-.32-.98-.86-.05-.38.39-1.03.76-1.13.58-.17,1.49.57,1.46,1.17Zm-2.12.97c.1.05.2.15.3.16.57,0,.34.41.31.66-.05.35-.38.31-.59.25-.33-.1-.26-.49-.4-.73-.02-.04,0-.11.02-.21.02-.07-.09-.21.04-.28.16-.09.21.11.31.17Zm-1.48,5.06c.14.25-.22.87-.54.93-.13.02-.26.03-.45.05-.39,0-.72-.27-.78-.66-.06-.4.14-.68.57-.81.15-.05,1.12.34,1.2.48Zm-.7,1.53c.21,0,.19.17.17.38-.45-.33-.9-.38-1.36-.15-.18.08-.22.06-.27-.15-.07-.29.03-.51.16-.74.4.28.75.67,1.31.66Zm-1.13.71c.1-.11.24-.1.39-.1.32-.05.56.16.79.36.12.1.22.32.11.43-.27.27-.21.55-.17.88.03.24-.59.7-.9.72-.33.02-.66-.3-.79-.6-.32-.75.11-1.22.57-1.69Zm-.67,2.43c.24.21.53.2.83.2.11,0,.27-.06.3.09.03.13,0,.32-.17.36-.43.12-.65.46-.88.79-.05.08-.11.17-.2.08-.21-.21-.52-.36-.46-.74-.06-.33.17-.53.35-.76.07-.09.15-.08.23-.02Zm.29,4.41c.61.02.9.32.9.94,0,.38-.33.71-.74.73-.33.02-.85-.67-.86-1.14,0-.28.35-.55.7-.54Zm-.16,3.14c0,.07-.63.49-.74.48-.16,0-.77-.55-.77-.69,0-.21.39-.67.55-.67.27,0,.95.63.95.87Zm-.24,3.48c-.03.16-.15.33-.05.51.44-.05.47-.42.53-.72.07-.36,0-.72-.18-1.06-.18-.37-.1-.55.31-.61.63-.1,1.19.12,1.6.59.34.39.42.88.24,1.39-.19.54-.74.86-1.32.72-.4-.09-.78-.27-1.19-.3-.5-.1-1-.19-1.51-.04-.18.05-.19-.09-.25-.22-.19-.45-.37-.92-.84-1.17-.14-.07-.11-.19-.09-.31.11-.64.73-1.04,1.36-.88,1.15.28,1.57.92,1.38,2.11Zm-1.75,16.62c-.93.04-1.81-.73-1.75-1.64.02-.32.35-.49.56-.62.53-.33,1.11-.56,1.75-.2.75.42.89,1.17.27,1.77-.31.3-.6.65-.83.69Zm.43,1.68c-.86-.37-1.63-.54-2.41-.71-.15-.03-.36-.03-.39-.2-.03-.19.21-.14.31-.24.32-.29.75-.14,1.12-.27.09-.03.16.05.21.12.05.07.11.13.16.2.14.19.53-.05.57.35.02.25.2.44.43.75Zm-4.69-9.13s-.13-.06-.15-.04c-.33.27-.71.06-1.03.03-.36-.04-.58-.45-.64-.82-.05-.32-.21-.55-.39-.8-.48-.67-1.16-1.15-1.63-1.81-.53-.75-.48-.82.37-1.11.38-.13.75-.3,1.13-.44.21-.08.41-.06.5.18.38,1.02,1.07,1.8,1.94,2.41.44.31.52.7.54,1.15.03.55.03.57.53.35.24-.1.41-.1.62.1.18.17.39.3.55.49.31.38.71.6,1.17.72.88.23,1.35,1.23,1.2,2.14-.03.16-.02.32-.02.48,0,.45-.5.92-1.02.92-.28-.07-.68,0-.89-.39-.03-.06-.1-.13-.18-.1-.68.27-.98-.31-1.37-.63-.24-.2-.41-.49-.58-.76-.17-.26-.34-.47-.67-.56-.37-.1-.46-.76-.19-1.1.06-.08.14-.15.21-.22.05-.06.08-.13,0-.19Zm-.7-5.24c.14-.02.29-.11.42-.08.89.2,1.61-.28,2.35-.62.7-.32,1.37-.51,2.11-.18.19.09.24.09.16.34-.18.55-.35,1.07-.74,1.53-.21.25-.25.65-.02.99.09.13.02.25-.03.37-.16.37-.37.73-.19,1.16.03.08-.01.13-.08.17-.23.16-.28.43-.39.71-.25-.28-.56-.4-.77-.65-.1-.12-.27-.14-.44-.1-.41.1-.68-.03-.64-.48.03-.36-.2-.55-.41-.76-.61-.6-1.07-1.29-1.48-2.03-.12-.22-.11-.34.16-.38Zm-.17-1.5c.04-.27.25-.19.41-.2.42-.03.84.06,1.25-.07.08-.03.16,0,.15.13-.03.36-.66.88-1.02.83-.19-.06-.38-.1-.55-.18-.19-.1-.28-.28-.25-.51Zm4.73-.58c.16-.3.37-.57.51-.89.1-.22.39-.13.6-.14.17.01.34-.01.52.05.41.14.58.4.51.83-.07.38-.33.58-.68.64-.47.07-.92-.05-1.36-.2-.16-.06-.18-.13-.1-.28Zm.98,7.9c-.28-.17-.51-.43-.8-.59-.35-.2-.27-.42-.04-.61.27-.23.57-.5.97-.31.4.19.8.39.71.94.01.03.03.06.03.08-.05.29.02.68-.25.83-.25.14-.41-.22-.62-.35Zm-.08-2.15c-.52,0-.95-.37-.94-.81,0-.55.61-1.15,1.15-1.15.63,0,1.13.37,1.12.84-.01.6-.63,1.12-1.33,1.12Zm.99-2.38c-.59-.02-1.16-.55-1.17-1.09-.01-.51.5-.95,1.12-.95,1.05.05,1.08.14,1.09.86.01.64-.49,1.19-1.04,1.17Zm.81-2.96c-.08-.07-.14-.14-.09-.26.05-.1.1-.21.12-.32.07-.34.16-.63.54-.43.43.02.82.33.84.67,0,.16-.05.33-.23.43-.38.22-.85.2-1.18-.09Zm-6.07-2.63c.65.23,1.05.78.94,1.31-.11.52-.79.95-1.43.91-.14-.01-.29-.02-.43-.05-.21-.05-.39-.13-.35-.41.02-.18,0-.38-.17-.47-.47-.23-.57-.67-.41-1.06.16-.39.64-.38,1.07-.36.26-.03.52.03.79.13Zm-1.04-.51c-.33.04-.68.06-.99.26-.13.08-.28-.05-.22-.24.11-.35.72-.77,1.12-.78.2,0,.47-.03.49.21.02.22,0,.5-.39.55Zm-2.64,4.42c-.38.22-.78.59-1.11.2-.3-.35.07-.71.34-1.02.25.29.36.67.77.82Zm-1.64-.04c-.16.48-.57.64-1,.75-.41.11-.68-.18-.96-.41-.16-.12-.08-.26-.01-.39.14-.26.25-.52.35-.89.38.55.93.66,1.5.7.18.02.17.08.12.23Zm-4.82-.38c0,.35-.64.88-1.07.88-.7,0-1.11-.32-1.11-.88,0-.54.44-.98,1.01-.99.54-.01,1.17.52,1.18.98Zm.03-1.82c-.19.32-.47.52-.89.46-.37-.06-.77-.23-1.14.22,0-.5-.02-.87-.21-1.22-.1-.17.36-.74.69-.78.52-.07,1.05-.04,1.44.4.25.28.31.6.12.92Zm-2.24,3.87c.24-.22.59-.35.94-.39.65-.08,1.32.13,1.98-.14.16-.06.44.17.66.27.09.04.17.14.27.11.57-.17,1.09.06,1.63.16.26.05.5-.03.72-.11.25-.09.38,0,.52.16.3.36.52.77.73,1.17.16.32.38.59.66.8.07.05.18.09.2.16.33.93,1.22,1.46,1.62,2.34.16.34.47.54.71.81,1.03,1.15,2.19,2.14,3.62,2.77.22.1.35.3.54.48-.39.23-.6.59-.77.98-.22.49-.13.94.22,1.33.16.18.12.25-.06.35-.34.2-.63.46-.81.82-.08.17-.18.16-.35.12-1.21-.26-2.39-.59-3.49-1.17-1.2-.64-2.4-1.27-3.63-1.85-.56-.27-1.29-.28-1.44-1.09-.93-.69-1.37-1.73-1.98-2.66-.37-.57-.73-1.14-1.13-1.69-.62-.85-.85-1.87-1.16-2.84-.02-.07-.04-.14-.05-.21-.03-.24-.34-.5-.16-.68Zm.04,3.13c.3.65.74,1.21,1.17,1.78.73.94,1.31,1.99,1.98,2.97.11.16.26.27.38.41.22.25.62.4.37.91-.16.33.05.49.41.36.47-.17.86-.12,1.29.18.75.53,1.56.94,2.46,1.17.19.05.34.22.52.31.79.41,1.56.85,2.37,1.2.5.21,1.06.3,1.6.39,1,.16,1.96.51,2.95.71.38.08.59.45.96.56.16.05.15.23.06.37-.3.47-.66.88-1.08,1.24-.12.11-.28.14-.45.13-.82-.06-1.64-.09-2.45-.18-.71-.07-1.28-.53-1.96-.71-1.32-.34-2.43-1.17-3.67-1.69-1.11-.46-2.04-1.21-3.03-1.86-.5-.32-.31-.82-.46-1.22-.08-.22-.12-.28-.35-.23-.6.13-1.1-.05-1.48-.54-.78-1.01-1.55-2.01-2.24-3.09-.45-.7-.81-1.42-1.16-2.16-.45-.97-.84-1.96-1.26-2.95-.12-.28.03-.5.36-.44.3.05.61,0,.91.1.38.14.57-.3.91-.37.13.93.5,1.78.89,2.61Zm-1.94-4c-.01-.34.34-.6.81-.59.37,0,.63.22.62.52-.01.41-.42.74-.93.74-.44-.01-.48-.34-.5-.67Zm1.22-1.82c-.2.12-.4.26-.46-.17-.1-.66-.13-.85-1.49-.87.08-.19.15-.37.23-.53.24-.5.56-.68,1.07-.62.51.06.98.5,1.11,1.03.08.35-.15.97-.46,1.16Zm-2.27,2.55c-.2.27-.45.45-.8.36-.26.05-.46-.04-.65-.21-.13-.12-.15-.24-.14-.38.03-.21.2-.12.31-.12.28,0,.52-.1.77-.23.11-.06.15-.44.37-.15.16.21.34.45.13.74Zm-1.87-.83c-.15-.04-.16-.1-.16-.2,0-.49-.11-.91-.43-1.32-.21-.26.23-.5.39-.59.49-.27,1.02-.5,1.58-.06.26.2.44.41.42.71,0,.98-.89,1.68-1.8,1.46Zm-.2.92c.12.31.17.53,0,.8-.18.27-.42.43-.8.45-.22-.08-.5-.16-.76-.27-.12-.05-.25-.13-.18-.34.05-.16.04-.34.04-.52,0-.19.05-.3.26-.32.17-.02.35-.05.5-.13.43-.21.73-.23.95.32Zm-4.97-.94c.86-.42,1.95-.34,2.56.3.48.5.26,1.37-.22,1.71-.29.21-.63.28-.97.34-.28.04-.62.09-.58-.39-.52-.29-.22-.76-.26-1.17-.03-.35-.24-.6-.54-.79Zm2.97,2.07c.13-.13.17.08.26.14.18.12.35.24.54.38-.36.2-.73.23-1.11.21-.12,0-.19-.08-.18-.2.02-.3.32-.35.48-.52Zm1.1-1.9c-.18.09-.39.13-.57.21-.23.1-.37.03-.5-.18-.31-.54-.85-.71-1.42-.82-.17-.03-.51.13-.47-.19.03-.26.27-.49.57-.52.13.06.24.07.27-.02.17-.59.72-.51,1.08-.48.61.04,1.16.36,1.43.97.18.39.02.83-.39,1.03Zm-3.29-1.27c-.14.53-.67.56-1.02.81-.09.07-.16,0-.23-.05-.38-.26-.8-.31-1.27-.28.35-.84,1.05-1.12,1.85-1.26.1-.02.21-.02.3,0,.25.08.61,0,.73.21.15.26-.3.33-.36.56Zm-1.93.94c.34.12.63.31.92.5.21.14.25.77.08.92-.06.05-.11,0-.16,0-.13-.01-.26-.03-.39-.02-.45.05-.81.03-1.02-.51-.16-.41-.63-.4-1.09-.38.34-.49,1.27-.64,1.66-.5Zm-.71,3.27c.43-.13.47-.5.47-.88,0-.53.07-.59.69-.6.3.03.69.03.86.48.17.44.01.75-.27,1.1-.45.55-1.04.57-1.65.58-.22,0-.39-.09-.41-.35-.01-.23.12-.28.31-.33Zm3.32-.34c.2.03.41-.07.64-.11-.63,1-.99,1.15-1.88.81.24-.54.64-.77,1.24-.69Zm21.89,15.44c.5.24.96.53.89,1.19.05.24-.03.44-.1.64-.16.48-.36.52-.83.34-.37-.14-.77-.23-1.17-.29-.41-.06-.61-.23-.64-.66-.07-1.09,1.05-1.61,1.85-1.23Zm-.19-.93h1.68c-.68.58-1.17.56-1.68,0Zm1.63,2.74c.34.01.9.42.85.67-.09.39-.53.15-.74.36-.25-.11-.46-.25-.62-.44-.05-.05.43-.59.51-.58Zm.76,1.35c.31,0,.59.05.61.38.01.29-.15.56-.47.59-.5.04-.63-.13-.62-.68,0-.38.33-.21.48-.29Zm-.75-2.01c-.19-.36-.22-.77.02-1.16.13-.22.34-.26.54-.34.56-.24,1.51.15,1.74.71.16.37-.03.84-.4,1-.2.09-.4.16-.61.24-.07.02-.14.01-.27.02-.31-.14-.81-.05-1.02-.46Zm1.88-2.09c-.36.03-.73.06-1.09-.15.39-.26.93-.29,1.21-.69.28-.4.23-.88.2-1.41.33.21.71.21.85.62.25.73-.32,1.56-1.17,1.63Zm.35-2.71c-.11,0-.2-.02-.19-.17.01-.16.13-.13.22-.13.22,0,.44,0,.65,0,.52,0,.71.22.59.75-.02.11.05.24-.13.36-.24-.49-.62-.77-1.15-.81Zm.38-.68c-.44,0-.76-.45-.75-1.06,0-.39.76-1,1.23-.99.26,0,.72.57.73.89.03.63-.53,1.16-1.21,1.16Zm.67-3.21c-.01-.34.33-.68.69-.7.27-.01.64.36.64.63,0,.42-.3.71-.72.71-.33,0-.6-.28-.61-.64Zm-.06-1.38c-.06,0-.14.01-.2,0-.21-.05-.48,0-.59-.2-.12-.22.15-.33.26-.45.32-.33.24-.73.25-1.11,0-.7.07-.8.63-.95.43-.11.99.17,1.23.56.52.84-.48,2.28-1.57,2.15Zm1.12-3.42c-.67,0-1.18-.47-1.18-1.07,0-.67.64-1.24,1.37-1.23.72,0,1.37.51,1.38,1.07.01.64-.74,1.23-1.58,1.23Zm-.05-2.72c-.27.03-.6.15-.8.04-.33-.18.07-.47.05-.72-.04-.38-.03-.75.36-.99.11-.06.2-.11.32-.1.54,0,.88.33.92.88.03.41-.36.83-.85.89Zm.84-2.1c-.21.04-.42-.01-.59-.12-.2-.13-.5-.26-.24-.6.02-.02.01-.06.02-.08.05-.25-.13-.62.11-.73.31-.15.7-.15,1.05-.21.15-.03.39,0,.49.26.15.39.22.76-.05,1.11-.19.25-.44.42-.78.37Zm.64-2.54c-.1,0-.19.03-.28.02-.1,0-.23.03-.28-.07-.05-.1.05-.19.12-.26.16-.15.14-.35.12-.53-.05-.36.11-.46.44-.42.19.02.38-.02.57.01.16.03.42-.16.49.1.07.27.13.56-.16.79-.31.26-.63.4-1.02.35Zm.53-1.67c-.41-.06-.56-.31-.4-.68.13-.31.1-.63.08-.95-.01-.19.03-.24.22-.24.67-.01,1.04.34,1.04,1,0,.58-.41.96-.95.87Zm-.58-2.39c.43-.2.81-.47,1.33-.46.41,0,.67.24.97.42.2.12.13.36.04.55-.09.2-.24.36-.44.46-.02,0-.1-.06-.12-.11-.34-.81-1.01-.9-1.78-.87Zm1.7,3.69c.27-.41.35-.82.05-1.25-.02-.03.03-.1.06-.2.21.58.6.87,1.17.92.11,0,.23.04.18.18-.13.32-.26.64-.64.77-.32.11-.53-.02-.75-.21-.08-.07-.13-.11-.07-.21Zm.7-1.49c-.19-.4.01-.73.19-1.05.1-.17.25-.32.37-.48.07-.1.14-.13.25-.13.52,0,1.02.54.98,1.16-.04.53-.32,1.08-.97,1.05-.42.02-.66-.21-.82-.55Zm1.46.91c.2-.1.33-.28.5-.41.14-.1.07-.42.3-.36.22.05.44.18.61.33.18.16.28.4.29.71.05.25-.15.44-.36.54-.28.13-.61.26-.92.08-.17-.1-.32-.24-.5-.34-.25-.15-.21-.4.07-.54Zm.88-1.81c-.12-.06-.16-.16-.2-.27-.05-.12-.1-.24-.17-.35-.09-.16-.38-.3-.3-.42.17-.27.35-.58.73-.62.11-.01.22-.06.27-.07.63-.02.82.39,1.03.8.16.32-.02.55-.19.74-.25.28-.85.35-1.17.19Zm3.64,1.61c.32-.23.6-.5.81-.84.03-.05.08-.12.12-.11.35.03.66.18.83.48.13.23.27.49.02.76-.24.26-.45.54-.98.49-.2-.06-.54-.13-.82-.28-.19-.11-.19-.35.02-.5Zm1.18-1.31c-.41.08-.42-.27-.48-.52-.08-.3-.28-.54-.45-.85.26.02.45-.05.64-.16.63-.39,1.27-.22,1.62.41.22.39-.07,1.18-.5,1.27-.27.06-.52-.21-.83-.15Zm2.76-.3c-.44-.16-.98-.25-1-.91,0-.21-.14-.38-.3-.52-.31-.29-.18-.45.14-.6.27-.12.51-.29.78-.24.92.02,1.76.71,1.6,1.48-.11.53-.72.98-1.23.79Zm.97,1.52c.33-.29.28-.62.12-.94-.11-.22-.05-.31.15-.38.34-.12.52-.53.97-.49.33.03.62.06.88.28.08.07.34.77.31.85-.11.3-.24.6-.57.73-.46.18-.94.31-1.42.32-.12,0-.23,0-.32-.02-.24-.05-.28-.2-.11-.35Zm2.42-2.34c0-.36.45-.86.77-.81.26.04.57.08.56.48-.02.55-.3.94-.68.94-.38,0-.66-.26-.65-.6Zm1.65.34c.17-.39.51-.28.76-.37.18-.07.12.18.17.28.12.32.08.57-.21.81-.58.47-1.19.57-1.89.17.54-.13.96-.43,1.17-.89Zm.7-2.87c-.13.2-.2.19-.34.01-.87-1.1-1.89-2.05-2.93-2.99-1.28-1.15-2.4-2.41-2.77-4.17-.06-.29-.04-.56-.47-.71-.47-.16-.43-.88,0-1.15.07-.05.16-.09.21-.16.12-.16.44-.26.34-.49-.1-.23-.34-.01-.51,0-.42.03-.69-.18-.9-.49-.46-.69-.89-1.4-1.36-2.08-.32-.46-.35-1-.56-1.49-.3-.71-.27-1.51-.56-2.21-.31-.74-.34-1.56-.7-2.26-.49-.96-.3-2.01-.51-2.99-.09-.71.16-1.25.73-1.67.19-.14.36-.11.43.07.1.24.29.4.47.57.68.63,1.01,1.44,1.13,2.33.14,1.02.12,2.08.39,3.06.38,1.36.61,2.78,1.22,4.07.2.43.46.84.72,1.25.26.41.38.84.24,1.32-.09.31.1.52.32.66.56.34.74.91.96,1.46.34.86.65,1.75,1.33,2.4.89.86,1.63,1.82,2.28,2.86.38.61,1.11.89,1.47,1.52.02.04.06.06.09.1q.45.53-.19.81c-.2.09-.41.19-.52.37Zm.58.1c.46-.32.92-.4,1.27-.15.15.1.21.18.11.38-.18.37-.37.75-.17,1.2.13.28-.14.16-.25.23-.32-.09-.6-.31-.96-.31-.11,0,0-.35-.11-.52-.2-.3-.27-.57.11-.83Zm-.21,3.74c.43-.46.61-1.09,1.12-1.49.29-.23.54-.36.88-.11.28.2.59.28.94.26.35-.01.52.26.43.61-.15.62-.48,1.04-1.15,1.12-.27.04-.54.09-.82.14-.41-.11-.86-.08-1.26-.26-.13-.06-.28-.11-.14-.26Zm2.3-1.76c-.35-.24-.66-.48-.64-1-.05-.28.1-.48.37-.63.5-.26.98-.55,1.6-.35.37.12.84.55.84.91,0,.39-.5,1.01-.89,1.01-.43,0-.84.36-1.29.06Zm1.49,1.68c.1-.25.09-.58.05-.86-.07-.41.03-.57.46-.62.32-.04.5-.13.47.32-.02.37.17.72.48.93.35.24.21.45-.01.64-.2.17-.43.29-.72.27-.19-.01-.38-.06-.53-.17-.17-.12-.32-.23-.2-.52Zm1.04-3.05c-.06-.13-.08-.31-.18-.38-.35-.25-.23-.53-.09-.82.16-.31.39-.46.77-.45.71.03,1.01.27,1.01.95.05.36-.07.66-.52.75-.12.02-.2.11-.29.17-.28.18-.56.09-.69-.22Zm1.11.58c.64-.62,1.37-.31,1.99.13.41.29.52,1.18.23,1.65-.25.41-.66.54-1.11.58-.14.01-.29,0-.44,0-.12,0-.23,0-.35,0-.46-.02-.66-.2-.74-.65-.11-.63-.08-1.22.42-1.71Zm.68-2.16c-.07-.13.57-.62.8-.57.24.04.52.05.62.3.01.51-.43,1.07-.89,1-.21-.03-.39-.46-.54-.73Zm.35,1.42c.16-.11.25-.18.34-.24.54-.32.52-.31.86.22.23.36.53.63.97.76.17.05.48-.03.51.24.02.28-.13.54-.34.72-.32.29-.53.26-.63-.16-.23-.88-.82-1.32-1.71-1.53Zm2.55.47c-.64-.14-.82-.32-.85-.96-.04-1.18.71-1.97,1.85-1.96.7.01,1.27.46,1.41,1.12.12.56-.31,1.3-.89,1.55-.49.21-.97.37-1.53.25Zm1.74.27c.41,0,.95.48.95.85-.06.64-.52,1.13-1.23,1.15-.46.01-.94-.42-.96-.82-.02-.44.74-1.18,1.23-1.18Zm.85-3.19c-.1.21-.17.26-.37.08-.69-.61-1.45-.65-2.27-.26-.31.15-.66.21-.93.46-.14.13-.27.05-.43-.03-.68-.34-1.26-.33-1.6.13-.22.31-.37.3-.7.21-.4-.11-.84-.06-1.25.09-.33.12-.5.38-.57.71-.04.16-.07.22-.28.18-.47-.08-.96-.13-1.42.05-.24.1-.33-.07-.42-.21-.8-1.14-1.73-2.17-2.67-3.2-.81-.89-1.5-1.88-2.28-2.8-.67-.8-1.16-1.7-1.62-2.63-.15-.31-.33-.61-.71-.72-.2-.05-.32-.2-.3-.43.19-.93-.21-1.75-.49-2.6-.16-.48-.24-.98-.4-1.47-.22-.69-.47-1.37-.72-2.05-.08-.22-.09-.43-.04-.64.25-1.12-.07-2.15-.48-3.17-.24-.59-.35-1.22-.48-1.84-.03-.14.05-.2.18-.25.38-.16.69-.43.88-.81.16-.31.59-.37.71-.67.26-.63,1.01-.64,1.36-1.14.09-.13.27-.06.42-.07.57-.04,1.03-.46,1.09-1.03.02-.17.05-.28.25-.28.87-.02,1.6-.28,1.97-1.16.07-.17.24-.08.35-.04.35.12.69.06.96-.13.33-.25.66-.3,1.05-.26.33.03.62-.05.91-.23.33-.22.56-.46.49-.89-.04-.27.12-.36.33-.52.45-.34.94-.14,1.4-.26.32-.08.58-.23.75-.48.17-.26.45-.36.66-.55.18-.16.25.04.35.12.49.41,1.09.66,1.65.34.49-.28.93-.39,1.46-.35.08,0,.19-.03.24-.09.31-.43.77-.34,1.19-.33.6.02,1.1-.25,1.6-.51.13-.06.19-.19.34.01.31.43.79.47,1.27.37.21-.05.38,0,.58.03.5.09.97.25,1.46.4.65.21,1.24-.27,1.82-.57.19-.1.38-.24.5-.41.27-.37.48-.31.73,0,.56.7,1.28.79,2.07.52.19-.06.31-.07.47.07.24.21.53.29.85.26.24-.02.37.04.39.32.06.78.49,1.41.86,2.06.43.74.87,1.48,1.2,2.27.09.22.23.41.38.58.68.77,1.09,1.73,1.61,2.6.3.5.62.71,1.11.74.3.02.33.2.24.37-.31.59-.07,1.08.18,1.61.25.55.42,1.14.68,1.68.19.4.3.83.46,1.23.2.51.1,1.07.09,1.6-.02.82-.15,1.64.06,2.45.03.13-.02.19-.11.25-.6.4-.75.99-.63,1.65.06.33,0,.61-.11.9-.13.34-.62.89-.97,1.03-.39.16-.65.47-.74.86-.05.24-.18.31-.35.43-.31.22-.68.43-.65.91.01.21-.14.26-.3.32-.39.15-.67.37-.88.77-.2.38-.63.62-.84,1.04-.08.17-.2-.01-.28-.06-.56-.29-1.13-.25-1.69-.05-.3.1-.51.34-.62.64-.21.6-.45.79-1.09.81-.31,0-.57.15-.8.31-.29.2-.53.2-.85.09-.47-.16-1.05-.3-1.43.02-.54.45-1.03.35-1.6.22-.34-.07-.7-.03-1,.2-.15.11-.31.14-.5.14-.78-.01-1.38.31-1.72,1.03Zm-1.96-31.61c.64-.4,2.04.21,1.89.99.02.21-.06.37-.23.52-.48.42-1.06.54-1.66.55-.46.01-.8-.63-.7-1.08.11-.44.31-.75.69-.99Zm-.37-1.34c.11-.23.88-.46,1.16-.36.35.13.46.47.36.91-.1.44-.41.3-.68.32-.01,0-.03,0-.04,0-.22-.08-.5.21-.62,0-.1-.18-.08-.44-.18-.66-.03-.06-.01-.15.02-.21Zm6.22-.01c-.06-.07-.06-.2.04-.22.31-.06.64-.25.94,0,.28.24.4.51.27.92-.2.61-.74.5-1.2.67.21-.49.34-.94-.04-1.37Zm.9,1.56c.4.03.71.11.86.54.14.39.01.61-.27.87-.37.34-.79.53-1.24.69-.22.08-.41.06-.6-.12-.46-.42-.49-.77-.05-1.3.34-.41.8-.61,1.3-.67Zm.89-1.49c-.04-.31.16-.4.35-.52.21-.14.3.07.44.14.15.07.11.15.08.28-.07.27-.11.54.14.76.14.13.04.19-.07.25-.33.21-.67.24-1.03.03.15-.28.13-.61.09-.94Zm11.83-.32c-.03-.06.05-.09.1-.11.3-.1,1.09.29,1.17.6.07.24.39.39.26.67.02.82-.84,1.45-1.55,1.2-.21-.08-.32-.17-.22-.4.03-.08.09-.2.06-.24-.5-.63.45-1.11.17-1.71Zm8.72-2.02c-.18.02-.34-.01-.41-.29-.1-.38-.36-.65-.71-.84-.21-.11-.24-.23-.15-.48.31-.85,1.59-.83,2.14-.28.27.26.16.6.09.9-.11.55-.54.99-.96.99Zm.95.91c.11.36-.08.56-.38.73-.25.14-.48.32-.81.34-.3-.08-.68-.02-.84-.45-.11-.33-.09-.56.25-.71.29-.13.48-.46.88-.42.22.02.83.3.9.52Zm-.12-3.34c-.5-.28-1.04-.18-1.58-.24.52-.2,1.11-.17,1.55-.58.09-.08.15,0,.18.09.07.19.1.39.08.59-.02.15-.09.21-.23.13Zm.15-1.69c-.12-.32-.21-.63-.49-.86.22-.06.39-.11.57-.16.12-.03.25-.21.38-.03.12.18.13.39-.02.56-.13.16-.27.3-.43.48Zm-.8.7c-.25.16-.56.4-.95.13-.34-.24-.74-.4-.92-.82-.2-.47.22-1.11.71-1.09.81.03,1.27.39,1.45,1.05.1.35-.12.62-.3.73Zm-1.77.6c.22.15.6.37.07.65-.04.02-.07.1-.08.15-.11.62-.61.63-1.07.67-.24.02-.58-.44-.58-.84.01-.23.1-.49.4-.64.43-.22.87-.27,1.27,0Zm-.44,1.82c.23-.02.47.04.68.17.64.38.64,1,0,1.38-.27.16-.51.34-.87.24-.52-.15-.83-.56-.77-1.14.04-.39.41-.65.96-.64Zm-.08,2.74s0,.06-.02.07c-.42.44-.85.37-1.29.02-.1-.08-.27-.08-.45-.14.91-.55,1.21-.54,1.77.04Zm-.07,13.49c0,.57-.58,1.23-1.21,1.51-.76.33-1.4.15-2.01-.33-.16-.13-.15-.31-.19-.47-.21-.86.38-1.88,1.18-2.08.15-.04.28-.04.42.02.23.11.49.3.72.28.6-.07.66.52,1.01.73.13.08.06.24.08.34Zm-2.71,2.26c-.39.43-.53.9-.13,1.4.11.14.03.18-.1.24-.16.07-.31.05-.52.07-.22.09-.35-.08-.48-.27-.22-.31-.37-.66-.51-1.01-.03-.08-.06-.16-.03-.25.11-.43,1.03-.81,1.41-.59.07.04.16.06.24.09.15.06.26.13.1.31Zm.24,2.12c.54,0,.91.39.89.86-.03.51-.56,1.05-.97.99-.1-.01-.16-.07-.16-.17.02-.39-.22-.69-.45-.94-.22-.24-.15-.37.06-.51.21-.14.44-.21.64-.23Zm-5.97,11.53c.11.39-.29.45-.52.58-.31.17-.63.14-.85-.17-.15-.21-.27-.45-.22-.74-.11-.56.34-.72.7-.96.35-.23.59.03.87.16.17.08.09.17.06.28-.07.28-.13.54-.05.84Zm-.54-2.45c0-.36.46-.84.78-.83.58.01,1.08.44,1.08.92,0,.51-.44.79-.98.84-.47.04-.89-.44-.89-.93Zm1.49-1.66c0-.69.91-1.35,1.46-1.1.66.3.72.78.15,1.24-.23.19-.46.37-.61.61-.16.27-.31.24-.51.09-.3-.22-.43-.53-.49-.84Zm1.73-2.82c-.31-.99-.39-2.01-.42-3.04-.01-.3-.04-.61-.1-.91-.27-1.26-.55-2.52-1.11-3.69-.1-.21-.24-.4-.37-.58-.15-.21-.35-.41-.25-.7-.04-.29.04-.53.24-.73.12-.12.14-.27.06-.4-.1-.16-.22-.04-.34,0-.19.05-.39.1-.59.13-.1.02-.27-.02-.23-.13.11-.32-.14-.46-.25-.68-.4-.82-.9-1.56-1.5-2.23-.4-.45-.61-.98-.87-1.5-.42-.83-.87-1.64-1.3-2.46-.14-.27-.18-.57-.23-.88-.06-.46.21-.51.54-.51.13,0,.27.06.39.04.79-.15,1.22.2,1.42.94.13.49.61.72.87,1.13.6.93,1.36,1.73,2.06,2.59.32.4.45.83.45,1.32,0,.47-.04.94.11,1.39.07.2-.07.29-.15.42-.11.18-.18.32.17.36.47.04.81.2,1,.79.32,1.02.48,2.09.82,3.1.17.52.51.96.76,1.44.41.81,1.02,1.55,1.13,2.49.02.18-.03.37-.07.56-.12.53.04,1.09-.24,1.6-.21.37-.45.68-.86.81-.59.19-.94-.04-1.13-.63Zm-6.78-19.96c.41.28.87.18,1.31.17.33,0,.37.13.34.38-.05.42-.4.68-.81.61-.04,0-.08-.03-.12-.04-.8-.2-.84-.26-.72-1.12Zm2.07.36c-.03-.4.32-.26.51-.26.39,0,.12.48.39.59-.1.23-.31.19-.47.23-.4,0-.4-.31-.42-.55Zm7,8.73c0-.07,0-.18.03-.27.11-.27.21-.63.51-.65.25-.02.3.35.37.57.05.17.33.33.16.48-.22.19-.52.36-.8.4-.3.03-.25-.29-.26-.53Zm3.29-.09c-.22.31-.97.21-1.37-.15-.59-.54-.98-1.19-1.17-1.98-.35-1.47-.61-2.97-1.08-4.41-.03-.11-.03-.22-.05-.37.49.12.92.2,1.37.44.39.21.4.48.53.75.16.34.32.67.53.99.42.64.72,1.34.99,2.06.2.54.4,1.07.53,1.62.09.39-.06.75-.28,1.05Zm.21-4.53c.03-.51.02-.96-.28-1.33-.05-.07-.07-.11,0-.18.18-.16.74-.04.82.18.21.57.13.78-.55,1.34Zm-1.4-2.81c.17-.25.34-.43.7-.35.25.06.57,0,.73-.19.29-.34.63-.35,1.02-.33.17.01.35,0,.55,0-.35,1.3-1.46,1.62-2.99.86Zm.82-.85c-.31,0-.31-.23-.28-.46-.06-.27.1-.53.31-.5.27.04.4.39.44.63.04.24-.25.33-.46.33Zm-.25-2.28c.08.27-.08.96-.32,1.12-.27.18-.89.15-1.17-.06-.08-.06-.07-.12-.02-.18.11-.16.06-.34.06-.4.02-.33.03-.56-.08-.75-.21-.34,0-.37.25-.39.49-.05,1.15.22,1.28.67Zm-.72,1.65c.27-.02.32.09.27.33-.14.72-.52,1.02-1.36,1.02-.24.06-.47-.06-.69-.22-.17-.12-.39-.21-.13-.48.08-.09.05-.31.04-.46,0-.36.37-.64.66-.45.38.23.78.31,1.2.27Zm-1.75-.61c-.38.12-.8.14-1.19.02-.32-.1-.07-.38-.14-.5-.02-.23.02-.43-.05-.57-.22-.4.02-.51.32-.62.56-.19.8-.13,1.11.31.02.03.07.09.09.08.4-.14.39.11.39.38,0,.41-.12.77-.53.9Zm-.88.65c.18.24.1.64-.19.79-.56.28-1.32.31-1.86-.36.49-.08.92-.15,1.24-.54.18-.22.63-.13.81.11Zm-2.72,1.14c.41.5.96.55,1.53.57.1,0,.2,0,.31.01.39.03.57.2.63.63.15,1.12.39,2.22.82,3.28.19.47.31.96.47,1.44.04.14-.05.21-.12.31-.18.24-.38.48-.53.74-.27.46-.23.94.03,1.4.09.16.1.31.05.49-.16.63-.33,1.27-.08,1.92.06.15-.04.22-.13.29-.7.58-.85.52-1.16-.34-.24-.68-.31-1.41-.59-2.09-.11-.25-.22-.43-.49-.49-.49-.11-.65-.42-.58-.9.01-.09,0-.17,0-.3.02-.28-.04-.6.07-.92.05-.16-.03-.3-.1-.45-.63-1.26-1.44-2.4-2.3-3.52-.29-.38-.53-.8-.73-1.23-.22-.47-.21-.78.46-.82.54-.03,1.08-.09,1.6-.32.26-.12.64.04.84.29Zm-2.44-1.54c0-.41.69-.96,1.19-.96.46,0,.83.35.82.77,0,.5-.61.94-1.24.92-.31-.01-.76-.45-.76-.73Zm1.5-1.31c-.17-.04-.35-.09-.51-.05-.47.11-.59-.23-.74-.54-.05-.11-.03-.23.06-.32.31-.33,1.1-.45,1.51-.23.22.12.34.3.37.46.02.63-.18.82-.69.69Zm-1.53-.92c-.19-.13-.34-.25-.5-.34-.09-.05-.28-.03-.27-.17.01-.13.13-.26.26-.32.38-.15.75-.18,1.14.09-.3.17-.53.38-.64.74Zm-.15,1.42c-.3.59-.58.71-1.24.62-.17-.03-.36.07-.55.11-.62.13-1.21-.21-1.21-.7,0-.58.33-.98.91-1.16.43-.13.84-.23,1.31-.18.71.08,1.1.68.78,1.3Zm-3.13-.85c-.23.38-.48.2-.73.11-.29-.11-.32-.38-.27-.62.06-.28.26-.43.56-.45.43-.03.79.11,1.21.35-.35.12-.61.35-.76.61Zm-.77.78c.24.26.48.47.22.96-.24.45-.53.64-.96.74-.24-.05-.47-.1-.62-.35-.38-.64-.33-1.26.16-1.59.28-.19.89-.09,1.2.24Zm-1.84-.82c-.34-.13-.3-.37-.34-.62-.04-.28.18-.25.34-.33.58-.3.61.33.92.53-.34.11-.44.62-.93.43Zm-.25.38c.09.02.18.02.15.15-.04.16-.02.41-.3.24-.23-.14-.48-.08-.72-.13-.3-.07-.44-.28-.48-.54-.03-.17.07-.34.26-.4.08-.03.19-.13.25.04.13.41.46.56.84.64Zm-.87.63c.64.03,1.03.51,1.02,1.24,0,.39-.57.98-.92.96-.67-.04-1.41-.72-1.4-1.28,0-.46.7-.95,1.3-.92Zm-4.89.67c-.45.23-.93.17-1.37-.1-.2-.12-.14-.31-.17-.47-.09-.46.2-1.07.53-1.23.6-.29,1.28-.23,1.68.15.17.16.12.34.14.63.07.51-.37.79-.81,1.02Zm-1.39.32c.49.1.29.43.25.71-.04.34-.29.36-.51.34-.19,0-.32-.01-.47-.07-.28-.12-.45-.25-.25-.58.14-.22-.06-.6.3-.71.29-.09.43.26.67.31Zm-.8-.96c-.06.26-.28.13-.45.19-.11-.02-.25-.02-.35-.09-.13-.08-.44-.14-.33-.3.11-.16.15-.57.55-.4.06.03.15.01.21.04.16.08.36-.25.45-.02.06.16-.04.39-.08.58Zm9.57,31.73c0,.07.02.16-.08.17-.14.02-.13-.09-.12-.17.07-.55-.2-.96-.52-1.38-.14-.18-.36-.17-.49-.33-.04-.05-.17-.02-.1-.14.03-.04.09-.06.2-.14.03.06.04.12.07.16.27.33.56.62,1.02.67.11.01.16.07.11.17-.16.32-.08.66-.1.99Zm-4.05-.93c-.22.28-.25.66-.45.92-.18.23-.5.12-.77.04-.3-.09-.29-.32-.29-.59-.04-.26.08-.48.36-.58.36-.14.73-.18,1.08.03.07.04.12.12.07.18Zm-1.74,1.3c.04.14-.23.25-.45.17-.29-.12-.59-.15-.89-.03-.27.11-.53.14-.66-.16-.14-.32-.32-.67,0-1,.2-.21.44-.27.72-.24.26-.05.65,0,.74.11.26.32.43.74.54,1.15Zm-4.19.18c.13-.35.32-.65.65-.85.2-.12.38-.28.63-.25.35.04.1.38.26.52.04.03.02.13.06.16.6.56.21,1-.2,1.48-.21-.61-.69-.76-1.21-.79-.26-.01-.27-.05-.19-.26Zm.69,1.83c.13.06.45.06.41.43-.03.26-.19.45-.45.42-.29-.04-.41-.31-.42-.57,0-.18.1-.38.45-.29Zm.06,1.37c.27.04.47-.11.65-.29.06-.06.09-.23.22-.14.09.07.2.17.16.33-.1.42-.57.8-1.02.83-.27.01-.53.03-.38-.37-.08-.34.06-.41.37-.36Zm.95-1.35c.04-.67.85-1.54,1.45-1.54.68,0,1.57.65,1.55,1.14-.03.95-.78,1.62-1.82,1.6-.54,0-1.21-.69-1.18-1.21Zm2.84.99c.18-.2.33-.44.67-.19.13.1.34.04.56,0-.32.36-.59.66-1.07.6-.14-.02-.28-.04-.33-.17-.04-.1.1-.15.17-.22Zm.64-1.18c.03-.38.25-.61.6-.49.31.04.65-.14.66.31,0,.43-.28.75-.65.7-.3-.04-.65-.13-.61-.53Zm4.71-1.46c.26.08.53.2.55.52.03.38-.62,1.02-.95.89-.23-.09-.49-.33-.5-.63-.01-.37.5-.79.89-.77Zm.13-2.32c-.3,0-.69-.32-.7-.59-.02-.67.19-.86,1.01-.88.4,0,.75.3.76.66.01.47-.41.79-1.07.81Zm1.66.06c.49,0,1.01.48.99.96-.03.65-.43,1.2-1.18,1.17-.74,0-1-.25-1.03-.97-.02-.51.66-1.15,1.21-1.16Zm.1-1.35c.04-.6.2-.91.83-.93.61,0,1.11.44,1.11.99,0,.58-.34.86-1.02.85-.42,0-.95-.49-.93-.9Zm2.67.75c.19-.01.75.47.75.65,0,.65-.26,1.01-.74,1.02-.49,0-.92-.46-.92-1,0-.23.56-.64.92-.66Zm.8-.94c.28-.32.53-.54.92-.15.09.09.23.1.37.11.17.02.46-.11.48.13.02.23.01.53-.21.72-.24.2-.5.34-.85.31-.29.07-.53-.04-.73-.25-.29-.31-.25-.57.02-.87Zm1.53-.45c-.55,0-.83-.19-.95-.63-.11-.43.08-.8.53-1.06.24-.14.44-.31.75-.28.43.04.77.31.89.76.08.29-.16.81-.43.99-.15.09-.59.21-.79.21Zm2.3-4.73c-.27-.03-.25-.11-.11-.29.28-.36.6-.63,1.11-.54.11.02.24.01.35-.01.64-.16.93.06.93.71,0,.3-.03.59-.27.8-.16.14-.33.31-.53.37-.28.09-.26-.25-.38-.39-.3-.34-.64-.6-1.1-.64Zm2.1-2.84c-.08-.24.09-.43.1-.64.03-.41.3-.78.16-1.22-.06-.19.72-.4.99-.27.35.18.66.44.66.84,0,.42-.25.77-.63.98-.29.16-.58.48-.98.2-.05-.03-.2.08-.3.12Zm1.13-4.8c-.44,0-.83-.03-.98-.57-.09-.33.03-.63.21-.79.5-.46,1.09-.76,1.81-.68.42.05.72.29.78.69.06.4-.16.76-.5,1-.4.27-.86.34-1.33.35Zm1.05-2.46c.4-.06.8-.12,1.2-.19.25-.04.4.02.39.31-.01.24.05.5-.1.72-.07.1-.22.27-.26.03-.14-.7-.68-.78-1.22-.86Zm.37-.44c.33-.42.5-.8.53-1.27.01-.26.34-.15.52-.14.34,0,.38.32.49.54.1.21-.09.29-.21.41-.34.35-.75.47-1.33.46Zm.4-1.95c-.2-.16-.33-.33-.08-.61.31-.34.55-.74.53-1.24,0-.19.09-.25.28-.18.36.13.89.84.87,1.29-.09.33-.34.62-.68.83-.32.19-.65.13-.93-.09Zm1.37-2.97c-.41.19-.77.09-1.07-.22-.28-.29-.17-.73.2-.86.3-.1.53-.29.55-.6.02-.28.23-.27.39-.32.19-.06.28.09.35.24.13.29.27.57.26,1.02-.03.33-.31.57-.69.74Zm.07-2.4c-.16,0-.68-.48-.69-.65-.03-.47.27-.9.62-.91.42-.01.75.26.76.61.01.4-.38.93-.7.95Zm-.61-4.43c-.67.09-1.34-.74-1.35-1.28,0-.04,0-.09,0-.13-.05-.87.46-1.27,1.31-1,.34.1.72.1,1.01.37.34.32.37.68.05,1-.06.06-.13.12-.13.22.01.61-.21.82-.9.83Zm1.2-.03c.22-.16.3-.38.39-.61.06-.16,0-.43.28-.43.34,0,.71-.11.99.19.29.31.25.61.09.99-.3.7-.6.95-1.37.95-.18-.01-.49.06-.53-.19-.05-.29-.17-.65.15-.89Zm1.85-1.28c-.32-.17-.66-.21-1.01-.19-.26.02-.44-.04-.4-.35.02-.14-.05-.26-.1-.37-.04-.08-.1-.15.03-.2.37-.12.63-.56,1.07-.42.26-.02.48,0,.69.15.43.31.54.7.29,1.17-.13.24-.29.35-.56.2Zm1.38.84c.44-.01.9.34.91.7.01.37-.49.81-.93.82-.48,0-.99-.27-.99-.54,0-.63.33-.96,1-.97Zm.9-.44c-.06.11-.17.13-.26.11-.45-.11-.91-.09-1.37-.01.29-.26.5-.51.5-.91,0-.23.41-.39.7-.29.43.14.65.71.44,1.11Zm-.96-1.61c-.16.03-.22-.05-.27-.15-.07-.15.08-.16.15-.21.31-.17.65-.26,1.03-.21.47-.11.73.17.94.56.15.28,0,.44-.18.59-.21.18-.35.01-.47-.13-.33-.36-.72-.54-1.2-.46Zm2.36,2.23c.23,0,.69.44.69.64-.01.31-.4.61-.78.61-.36,0-.69-.29-.69-.63,0-.28.43-.62.79-.62Zm-.16-.93c-.07-.2.18-1.09.34-1.21.19-.14.81.03.92.29.11.26.17.55.25.84-.14.28-.3.53-.63.59-.34.06-.78-.2-.89-.51ZM6.27,115.31c.45-.16.9-.2,1.36-.07.49.14.81.7.81,1.45,0,.5-.11.97-.59,1.22-.59.31-1.17.23-1.72-.13-.16-.1-.18-.24-.18-.41,0-.54.01-1.08,0-1.62,0-.24.08-.36.32-.45Zm-.27,3.16c.14-.22.44.08.68.01.08-.02.18-.01.26,0,.21.03.48-.12.61.19.18.41.29.84-.02,1.23-.21.26-.44.48-.85.39-.72-.16-.73-.14-.71-1.05,0-.26-.09-.58.02-.77Zm6.62,19.15c-2.05,0-4.09,0-6.14.01-.39,0-.53-.08-.53-.51.02-2.21,0-4.41.01-6.62,0-.11,0-.22.02-.36.93.85,1.5,1.92,2.36,2.75.32.31.65.47,1.07.49.43.02.67.2.71.65.03.44.23.78.55,1.1.8.79,1.56,1.61,2.34,2.43-.12.12-.26.07-.38.07Zm1.91,0c-.16,0-.29-.05-.37-.18-.3-.44-.72-.76-1.08-1.14-.07-.07-.16-.14-.25-.17-.97-.33-1.5-1.11-1.98-1.92-.12-.21-.11-.5-.15-.76-.06-.37-.21-.57-.62-.66-.88-.19-1.51-.77-1.99-1.51-.32-.49-.69-.93-1.13-1.34-.63-.59-1.07-1.3-1.02-2.29.08-1.63.02-3.27.02-4.91,0-.09,0-.18,0-.26,0-.19,0-.45.18-.5.2-.05.27.22.35.38.31.63.76,1.17,1.16,1.73.44.61.76,1.3,1.25,1.88.24.29.46.6.68.9.84,1.19,1.4,2.53,2,3.85.15.33.1.69.1,1.04,0,.2.01.36.31.33,1.24-.13,1.86.76,2.53,1.56.92,1.09,2,2.03,2.99,3.05.36.36.83.55,1.3.92-1.5,0-2.9,0-4.29,0Zm5.83,0c-.66,0-1.12-.44-1.57-.78-1.05-.82-1.99-1.76-2.88-2.76-.6-.68-1.27-1.3-1.83-2.03-.21-.26-.6-.28-.89-.26-.61.03-.77-.41-.9-.79-.7-2.05-1.89-3.84-2.91-5.72-.69-1.26-1.57-2.36-2.44-3.48-.28-.36-.23-.38.21-.47.38-.08.74-.27,1.05-.52.46-.36.99-.54,1.54-.67.14-.03.3-.06.39.11.42.72,1.15,1.13,1.76,1.66.18.16.31.33.44.53.45.71.76,1.54,1.26,2.17.57.71.98,1.55,1.69,2.17.42.36.78.84,1.15,1.28.48.59,1.09,1.15,1.89,1.32.36.08.6.23.73.57.26.69.88,1.09,1.34,1.62,1.42,1.61,3.38,2.43,5.15,3.52,1.7,1.04,3.57,1.67,5.32,2.51-3.47,0-6.98,0-10.48,0Zm15.12-.93c-.87.58-1.83.53-2.81.39-.56-.08-1.11-.17-1.68-.14-.4.03-.78-.21-1.13-.4-.9-.49-1.84-.94-2.67-1.53-1.03-.74-2.28-1.05-3.29-1.83-.48-.37-1.04-.64-1.44-1.11-.52-.61-1.19-1.01-1.83-1.46-.29-.2-.55-.42-.81-.66-.34-.32-.08-.69-.05-1.04,0-.07.13-.13.06-.23-.08-.11-.17-.06-.27-.04-.19.03-.35.12-.53.17-.71.18-1.08-.38-1.55-.69-.37-.25-.67-.6-1.01-.9-1.35-1.22-2.32-2.73-3.18-4.32-.34-.64-.72-1.26-1.08-1.89-.07-.13-.15-.25-.3-.29-.41-.11-.62-.47-.91-.72-.13-.12-.06-.18.05-.27.33-.27.58-.59.71-1.01.08-.26.31-.42.54-.56.33,1.23.86,2.32,1.56,3.34.08.11.16.21.28.26.71.25,1.09.87,1.47,1.43.7,1.05,1.49,2.02,2.28,3,.2.25.51.39.78.49.46.17.76.52,1.11.81.5.43.52.6.26,1.21-.11.25-.11.31.2.32.78.04,1.56.13,2.25.57.17.11.27.25.42.37.44.34.96.52,1.41.83.85.57,1.7,1.15,2.57,1.68.67.4,1.33.8,2.07,1.09.74.29,1.43.7,2.19.94.16.05.32.11.51.09,1.22-.13,2.45-.15,3.68-.15.58,0,1.06.26,1.39.76.07.11.13.24.04.32-.25.23-.33.59-.67.74-.22.1-.4.28-.61.42Zm.83.93c-.2,0-.2-.08-.13-.24.17-.35.94-.44,1.34-.13.1.08.17.18.35.37-.61,0-1.09,0-1.56,0Zm2.63-.01c-.37.01-.78-.27-.79-.55,0-.21.4-.59.63-.59.3,0,.77.32.78.53.01.21-.38.6-.62.61Zm.7-2.77c-.33-.15-.34-.43-.23-.65.11-.23.46-.37.66-.28.23.1.37.42.25.72-.08.2-.15.41-.32.58-.13-.13-.22-.3-.37-.36Zm98,2.26c0,.43-.13.53-.55.53-32.23,0-64.46,0-96.68,0-.31,0-.52.02-.31-.41.12-.25.2-.6-.13-.83-.03-.02-.08-.09-.07-.1.27-.26.08-.73.5-.96.59-.32.67-1.05.22-1.55-.11-.13-.07-.16,0-.23.28-.22.36-.52.33-.86-.01-.15.02-.29.14-.4.42-.41.47-.91.32-1.45-.03-.12-.04-.21.03-.33.14-.23.24-.46.21-.74-.02-.2.16-.3.28-.43.46-.52.48-.92-.02-1.4-.21-.2-.16-.34,0-.5.21-.21.38-.45.66-.62.57-.35.63-.73.25-1.31-.12-.17-.05-.26.06-.37.2-.23.32-.49.26-.8-.07-.39.06-.7.32-.99.33-.36.29-.74.04-1.11-.07-.1-.14-.2-.09-.32.19-.47-.04-.98.16-1.45.05-.12.06-.31,0-.43-.13-.27.04-.37.2-.49.57-.44.77-.97.57-1.64-.12-.42-.46-.64-.84-.82-.09-.04-.3.03-.26-.14.05-.19.23-.34.43-.41.17-.06.24.09.28.21.05.17.08.34.12.51.03.14.12.26.26.24.14-.02.14-.17.14-.29,0-.1-.02-.2-.04-.3-.05-.37-.22-.71.15-1.06.19-.18.1-.56-.05-.83-.06-.1-.16-.19-.08-.31.39-.55.13-1.08-.08-1.62.11,0,.24.02.3-.03.44-.38.84-.18,1.25.04.35.18.7.12,1.05,0,.43-.15.86-.25,1.32-.11.46.13.89-.09,1.33-.18.34-.07.67-.12.98.02.58.25,1.09-.02,1.58-.21.4-.15.79-.14,1.18-.14.53,0,1.03-.08,1.55-.21.76-.2,1.57.12,2.36-.13.32-.1.66.04.99.12.27.07.51.05.74-.13.48-.38,1-.61,1.63-.64.46-.02.88-.22,1.35-.29.5-.07.98-.05,1.47-.03.72.03,1.39-.06,2.01-.44.2-.12.36-.12.58.05.59.46,1.68.23,2.02-.42.13-.26.28-.27.51-.26.67,0,1.35.09,1.9-.44.12-.12.25,0,.36.05.5.24.99.39,1.4-.15.09-.12.18-.08.29,0,.6.43,1.22.39,1.77-.15.27-.27.51-.36.91-.3.64.09,1.07-.4,1.43-.85.16-.2.27-.29.53-.22.23.06.51.1.73.03.42-.14.73.02,1.04.22.4.26.79.19,1.12-.1.28-.24.59-.48.72-.86.08-.26.27-.27.49-.17.84.38,1.26.29,1.85-.45.14-.17.23-.17.39-.1.85.35,1.85-.17,1.99-1.07.05-.3.16-.37.42-.35.46.04.86-.16,1.23-.39.7-.46.8-1.41.23-2.04-.04-.04-.06-.09-.12-.17.32-.02.63-.18.5.39-.13.57.34,1.07.92,1.07.4,0,.81.09,1.19-.18.36-.25.63-.52.55-1-.03-.19.05-.21.21-.23,1.11-.11,1.46-.5,1.52-1.63.01-.24.64-.58.92-.49.43.14.84.18,1.24-.12.49-.36.64-.68.43-1.27-.13-.37-.2-.68.17-.96.14-.1.17-.29.17-.48,0-.12-.04-.27.18-.34.03.45.11.89-.4,1.16-.1.06-.24.16-.14.32.12.19.24.06.37-.02.62-.38.88-.98.65-1.62-.08-.21.02-.24.13-.33.52-.48.83-.96.47-1.73-.1-.21.05-.25.17-.32.61-.37.69-.54.5-1.25-.06-.23.01-.37.2-.46.73-.36.92-.99.9-1.73,0-.12.04-.19.1-.28.08-.14.17-.3.11-.46-.24-.63.05-1.32-.23-1.94-.08-.18,0-.27.16-.33.42-.15.71-.45.84-.88.07-.22.24-.28.4-.36.64-.33.97-.69.43-1.58-.07-.11-.12-.17,0-.28.59-.51.56-.86-.09-1.34.08-.16.27-.13.39-.21.5-.3.66-.75.49-1.35-.08-.29-.29-.59.03-.88.03-.03.05-.13.02-.17-.26-.4.04-.61.24-.91.4-.61.19-1.27-.13-1.86-.11-.21-.07-.29.08-.37.29-.15.37-.41.33-.7-.07-.59-.11-1.2-.61-1.62-.22-.18-.15-.33.08-.42.35-.13.68-.23,1.08-.21,1.46.05,2.92.03,4.38.02.44,0,.86-.21,1.33-.11.26.06.44.13.62.32.44.47,1.15.54,1.76.19.16-.09.3-.14.49-.08.15.05.34.07.47.01.48-.2.97-.15,1.47-.16.38,0,.67-.18.9-.47.08-.1.19-.17.28-.25.3-.28.55-.2.87-.04.62.32,1.16.08,1.62-.37.16-.16.25-.19.45-.03.46.38,1.46.22,1.97-.27.5-.48.98-.53,1.54-.16.56.37,1.28.2,1.63-.41.11-.2.16-.24.43-.19.45.08.84.22,1.25.42.51.26.94.04,1.36-.54.27-.37.6-.42,1-.21.52.29,1.07.37,1.61.04.01,0,.03-.01.04-.02.17-.58.6-.35.96-.32.14.01.34.04.43-.04.46-.43.98-.33,1.51-.23.26.05.53-.01.73-.22.15-.15.3-.1.48-.06.65.16,1.29.25,1.86-.25.11-.1.25-.08.38-.08.17,0,.37.04.51-.08.5-.43,1.26-.43,1.68-1,.12-.17.3-.15.48-.15q.76-.01,1.27-.24c.11.11.06.25.06.37,0,22.13,0,44.26.01,66.39Zm-.01-113.05c0,1.12,0,2.23,0,3.45-.44-.66-.69-1.3-.9-1.96,0-.03,0-.07-.01-.09-.54-.64-.06-1.1.28-1.58.12-.17.36-.23.54-.2.16.02.08.25.08.38Z"/>
        <path class="cls-2" d="m112,35.43c.18,0,.34.1.45.23.47.08.92.14,1.35.18-.34-.38-.55-1.14-.38-1.53.18-.39.8-.56,1.22-.45.6.16.63.62.7,1.18,0,.27-.34.66-.71.87.37.02.72.04,1.05.04.9,0,1.73-.08,2.51-.21.04-.03.08-.04.12-.02.19-.04.38-.07.57-.11.02-.26.16-.52.4-.75.24-.23.3-.53.25-.85-.05-.33.04-.35.37-.29.49.09,1.01,0,1.47-.21.58-.27.83-.29,1.18.22,0,0,0,.01.01.02.04-.04.08-.07.12-.1.14-.13.26-.27.39-.41-.3-.47-.61-.93-1.02-1.34-.35-.35-.28-.88-.22-1.37.07-.52.54-.55.86-.75.3-.19.64-.17,1-.03.36.14.68.34.99.56.23-.81.36-1.7.37-2.68-.5.22-.88.07-1.06-.48-.09-.29-.14-.63-.1-.93.07-.54.41-.8.96-.85-.02-.12-.05-.24-.07-.36-.45,0-.9.15-1.22.47-.2.19-.38.27-.68.26-.79-.04-1.56.1-2.23.59-.36.26-.63.57-.64,1.03,0,.32-.21.31-.42.29-.58-.04-1.08.12-1.54.49-.34.27-.51.58-.5,1,0,.07,0,.15,0,.22.02.47.13.98-.64.97-.27,0-.51.28-.62.52-.15.34-.41.44-.7.57-.73.31-1.11,1.04-.94,1.8.07.31-.15.23-.28.22-.58-.03-1.04.19-1.43.61-.19.21-.23.47-.3.71-.06.21-.15.28-.37.24-.33-.07-.6-.06-.82.04,0,.15,0,.3,0,.45.07.01.13.02.19.03.11-.05.24-.09.36-.09Zm6.84-.52c-.45.55-1.24.9-1.97.9-.62,0-.93-.49-.78-1.25.2-1.01.78-1.48,1.84-1.5.6-.01.99.35,1.22.82.17.36-.07.73-.31,1.02Zm2.65-1.86c-.33.15-.63.4-1.03.34-.37-.05-.76.04-1.01-.39-.22-.37-.19-1.17.19-1.36.29-.15.57-.4.96-.32.43-.07.65.15.7.56.04.29.11.57.25.83.07.13.1.28-.05.34Zm2.01-4.64c0-.23.24-.09.33-.05.49.21.95.46.95,1.15-.41-.15-.79-.28-1.17-.39-.37-.11-.1-.47-.11-.71Zm-2.88-1.31c.22-.7,1.39-1.19,2.16-.9.37.14.61.43.62.76.02.45-.21.57-.65.44-.62-.19-1.26-.13-1.9-.04-.08.01-.17.1-.24.02-.07-.08-.03-.19,0-.29Zm-.18,1.13c.48-.56.58-.61,1.44-.61.61-.25.82.36,1.13.74.19.23.01.49-.3.52-.56.05-1.09.2-1.41.72-.13.2-.33.2-.5.14-.42-.15-.65-1.17-.36-1.51Zm-1.88-.03c.29-.13.59-.26.92-.22.25-.01.47-.07.35.37-.17.63.12,1.16.59,1.58.23.2.25.33-.07.45-.12.04-.23.12-.34.19-.52.32-.84.3-1.32-.08-.05-.04-.09-.09-.14-.1-.64-.09-.64-.65-.67-1.06-.04-.47.2-.91.67-1.13Zm-1.06,2.36c.34-.09.63,0,.83.29.05.08.05.18.14.26.39.33.33.77-.15.97-.17.07-.35.15-.54.13-.46.07-1.08-.62-1.03-.95.06-.36.38-.6.75-.7Zm-1.55,1.27c.23,0,.79.53.79.75,0,.32-.73.91-1.15.93-.23.01-.62-.39-.62-.64,0-.51.5-1.04.98-1.05Z"/>
        <path class="cls-2" d="m28.08,59.51c1.38-.76,2.53-1.7,3.43-2.82.3-.37.57-.76.82-1.17.25-.41.47-.85.67-1.31.6-1.39.98-3.03,1.16-4.91.08-1.12.13-4.67.13-10.62,0-11.03.05-17.08.14-18.16.1-1.08.35-1.8.78-2.16.11-.09.29-.18.56-.28.27-.1.61-.2,1.03-.3.64-.16,1.45-.32,2.45-.49.33-.06.68-.11,1.05-.17.07-.01.15-.03.23-.05.25-.05.57-.12.94-.19.15-.03.3-.05.46-.05.16,0,.33.02.49.05.48.11.88.19,1.19.25.1.02.2.04.28.05.44.07.86.15,1.26.22.79.14,1.48.27,2.08.39.6.12,1.1.23,1.5.33.61.15,1,.28,1.17.39.47.29.74.64.83,1.07.15.59.22,3.55.22,8.87,0,1.65-.05,7.02-.16,16.1-.08,6.4-.23,10.09-.45,11.07-.11.47-.28.8-.51.99-.15.14-.45.29-.91.44-.3.1-.67.2-1.11.31-.65.16-1.46.32-2.41.49-.38.09-.94.21-1.69.38v1.88c4.64-.23,7.9-.35,9.77-.35,1.67,0,3.63.07,5.87.2.75.04,1.53.09,2.34.15v-1.88c-.16-.04-.31-.07-.45-.1-.28-.06-.52-.11-.72-.14-.1-.02-.19-.03-.27-.04-1.01-.17-1.86-.35-2.56-.52-1.16-.28-1.89-.56-2.18-.82-.3-.28-.49-.6-.57-.99-.11-.48-.21-3.9-.31-10.27-.01-.91-.03-1.88-.04-2.91l-.16-18.8,17.4,20.94,13.26,16.48,2.07-.95c-.16-3.07-.26-6.66-.3-10.77-.01-1.37-.02-2.8-.02-4.28h0c0-2.51,0-5.07.03-7.67.02-2.6.05-5.24.08-7.93.07-5.38.12-8.27.14-8.67.08-.93.23-1.57.45-1.91.15-.25.34-.45.57-.57.08-.05.24-.11.48-.18s.55-.16.95-.26c.2-.05.41-.1.65-.16.71-.17,1.6-.36,2.66-.58.12-.02.26-.05.43-.08s.36-.08.59-.14c.18-.04.36-.07.54-.07h1.84c.17,0,.35.02.52.06.59.14,1.04.25,1.33.32,3.03.64,4.76,1.15,5.17,1.53.1.1.19.22.27.38.08.16.14.34.19.56.05.22.09.47.12.74.03.28.04.59.04.93v.7l.03,15.4-.05,8.48-.03,5.07v1.85c-.01.25-.02.49-.02.72,0,.01,0,.02,0,.04-.02.51-.06.96-.13,1.35-.02.12-.04.23-.06.34-.1.47-.24.82-.41,1.07-.06.08-.12.15-.19.21-.03.02-.08.05-.14.08-.02,0-.02.01-.04.02-.16.07-.39.16-.7.25-.05.01-.11.03-.17.05-.53.15-1.26.33-2.19.53-.16.04-.31.07-.49.11-.3.06-.62.13-.95.2-.1.02-.21.04-.34.06-.25.05-.56.12-.92.21-.18.04-.37.09-.58.15v1.88c.87-.06,1.73-.11,2.59-.15.07,0,.13,0,.2,0,.21-.01.41-.02.62-.03.69-.03,1.38-.06,2.07-.08.64-.02,1.28-.04,1.91-.05.94-.02,1.87-.03,2.79-.03.7,0,1.43,0,2.15.02.19,0,.38,0,.58,0,.49,0,1,.02,1.51.04.22,0,.43,0,.65.02,2.03.06,4.14.15,6.33.27.02,0,.05,0,.07,0v-1.88c-.1-.02-.18-.04-.27-.06-.42-.09-.75-.16-1-.19-.85-.12-1.61-.24-2.28-.35-.34-.06-.65-.11-.94-.17-.59-.11-1.08-.21-1.5-.31s-.73-.19-.97-.28c-.12-.04-.21-.09-.29-.13-.02-.01-.04-.03-.05-.04-.06-.04-.11-.08-.16-.12-.18-.16-.3-.37-.37-.62,0-.02-.01-.03-.02-.05-.21-.87-.32-4-.32-9.38,0-.52,0-1.16,0-1.93,0-.14,0-.29,0-.44,0-.24,0-.49,0-.75,0-.18,0-.36,0-.55,0-.3,0-.61,0-.93,0-.18,0-.37,0-.56,0-.06,0-.12,0-.18,0-.13,0-.26,0-.4,0-.43,0-.88,0-1.35.2.04.38.07.57.11.29.06.57.11.85.16.17.03.35.07.52.1.98.16,1.89.27,2.75.35,0,0,0,0,0,0,.28.02.56.05.83.07,0,0,0,0,0,0,.49.03.96.05,1.41.05,3.41,0,6.31-.63,8.73-1.85h0c.17-.08.33-.17.5-.26h0c.87-.48,1.67-1.05,2.41-1.7h0c.09-.08.18-.14.27-.22.13-.12.24-.25.37-.38h0c.56-.56,1.08-1.14,1.52-1.76,1.21-1.69,1.96-3.58,2.26-5.67.05-.33.09-.66.12-.99.03-.39.05-.77.05-1.17,0-1.27-.15-2.44-.45-3.51-.09-.32-.2-.64-.31-.94-.04-.11-.09-.21-.13-.32-.06-.15-.13-.3-.2-.44-.12-.25-.25-.49-.39-.72-.08-.14-.16-.28-.25-.42-.42-.64-.91-1.22-1.48-1.76-2.14-1.97-5.55-2.96-10.21-2.96l-12.56.13c-1.05,0-2.06,0-3.02-.02s-1.87-.04-2.74-.06c-.87-.03-1.69-.06-2.46-.11s-1.5-.09-2.18-.15c-.06,0-.12,0-.18,0h-2.23s-.09,0-.14,0c-3.78.23-6.75.35-8.9.35s-5.23-.12-9-.35v1.88c.49.13.9.22,1.21.29.1.02.2.04.28.06.65.12,1.22.24,1.73.35.51.11.95.21,1.32.31.74.19,1.2.36,1.39.49.19.14.34.28.46.44s.21.32.27.48c.12.34.22,2.47.3,6.39.19,8.4.29,14.18.29,17.34,0,1,0,2.46-.02,4.38,0,.64,0,1.33-.01,2.07-11.94-14.46-18.32-22.19-19.15-23.19l-9.03-11.29c-3.22.23-5.45.35-6.7.35-1.53,0-3.61-.11-6.25-.34-.06,0-.13,0-.19,0h-.32s-.09,0-.13,0c-.48.03-.96.06-1.43.08-.93.05-1.83.09-2.69.13-2.16.09-4.09.14-5.8.14-2.46,0-6.03-.12-10.72-.35v1.88c.56.13,1.01.22,1.37.29.12.02.22.04.32.06.3.05.59.11.87.16.11.02.21.04.31.06.52.1.99.2,1.41.3.3.07.58.14.83.21.63.17,1.09.33,1.37.49.1.05.17.1.23.15.14.14.25.34.33.61.04.13.08.28.11.45.03.17.05.35.07.55.01.15.02.47.03.96,0,.33.01.73.02,1.21,0,.72.02,1.61.02,2.67.02,2.83.02,6.89.02,12.16,0,10.62-.18,16.54-.54,17.75-.57,1.93-1.81,2.89-3.72,2.89-1.51,0-2.76-.62-3.77-1.86-.76-.93-1.29-2.51-1.6-4.75-.1-.75-.18-1.56-.23-2.45h-2.51c.02,4.14-.15,7.92-.51,11.36,2.69.64,4.89.95,6.58.95,2.21,0,4.23-.51,6.08-1.53ZM110.18,18.61c2.25-.34,4.17-.51,5.76-.51,3.6,0,6.28.83,8.03,2.48.97.92,1.66,2.04,2.09,3.35.16.49.29,1,.38,1.55.03.2.05.4.07.61.04.33.06.68.07,1.03,0,.1.01.19.01.29,0,.03,0,.06,0,.09,0,.13-.01.26-.02.39-.02.61-.06,1.2-.16,1.76-.03.15-.06.29-.1.43-.05.24-.11.48-.17.71-.06.2-.13.4-.2.59-.42,1.15-1.04,2.16-1.87,3.05-.11.12-.22.24-.33.36-.08.07-.16.13-.24.2-.17.15-.33.3-.51.44-.79.6-1.68,1.07-2.69,1.41s-2.13.56-3.36.64c-.1,0-.21,0-.32.01-.19,0-.37.02-.57.02-.13,0-.25.01-.38.01-.17,0-.37-.01-.55-.02-.24,0-.47,0-.72-.03-.2-.01-.41-.04-.61-.06-.47-.05-.96-.11-1.47-.19h0c-.53-.08-1.09-.18-1.67-.3-.14-.03-.28-.06-.42-.09-.12-.03-.23-.04-.35-.07,0-.21,0-.44,0-.65.03-5.5.12-11.32.28-17.48Z"/>
      </g>
    </g>
  </g>
</svg>