<svg xmlns="http://www.w3.org/2000/svg" xmlns:xlink="http://www.w3.org/1999/xlink" viewBox="0 0 151.67 65.92"><defs><style>.cls-1{fill:url(#New_Gradient_Swatch_copy);}.cls-2,.cls-3{fill:#7dff39;}.cls-3{stroke:#7dff39;stroke-miterlimit:10;stroke-width:2px;}</style><linearGradient id="New_Gradient_Swatch_copy" x1="75.83" y1="63.92" x2="75.83" y2="2" gradientUnits="userSpaceOnUse"><stop offset="0" stop-color="#7dff39"/><stop offset="0.05" stop-color="#6ee032"/><stop offset="0.16" stop-color="#54ac26"/><stop offset="0.26" stop-color="#3e7e1c"/><stop offset="0.37" stop-color="#2b5713"/><stop offset="0.48" stop-color="#1b370c"/><stop offset="0.59" stop-color="#0f1f07"/><stop offset="0.72" stop-color="#070e03"/><stop offset="0.84" stop-color="#020301"/><stop offset="1"/></linearGradient></defs><g id="Layer_2" data-name="Layer 2"><g id="on_mouse_over" data-name="on mouse over"><rect class="cls-1" x="2" y="2" width="147.67" height="61.92" rx="25.35"/><path class="cls-2" d="M124.31,4a23.39,23.39,0,0,1,23.36,23.35V38.57a23.39,23.39,0,0,1-23.36,23.35h-97A23.38,23.38,0,0,1,4,38.57V27.35A23.38,23.38,0,0,1,27.35,4h97m0-4h-97A27.36,27.36,0,0,0,0,27.35V38.57A27.36,27.36,0,0,0,27.35,65.92h97a27.36,27.36,0,0,0,27.36-27.35V27.35A27.36,27.36,0,0,0,124.31,0Z"/><rect class="cls-3" x="27.31" y="31.33" width="77.59" height="3.26" transform="translate(132.21 65.92) rotate(180)"/><polygon class="cls-3" points="114.63 32.96 101.07 25.13 101.07 40.79 114.63 32.96"/></g></g></svg>