<svg xmlns="http://www.w3.org/2000/svg" xmlns:xlink="http://www.w3.org/1999/xlink" viewBox="0 0 151.67 65.92"><defs><style>.cls-1{fill:url(#linear-gradient);}.cls-2{fill:#1aff87;}</style><linearGradient id="linear-gradient" x1="75.83" y1="64.92" x2="75.83" y2="1" gradientUnits="userSpaceOnUse"><stop offset="0" stop-color="#17ff8b"/><stop offset="0.04" stop-color="#14e07a"/><stop offset="0.11" stop-color="#0fac5e"/><stop offset="0.18" stop-color="#0b7e45"/><stop offset="0.25" stop-color="#08572f"/><stop offset="0.33" stop-color="#05371e"/><stop offset="0.41" stop-color="#031f11"/><stop offset="0.49" stop-color="#010e07"/><stop offset="0.58" stop-color="#000302"/><stop offset="0.68"/></linearGradient></defs><g id="Layer_2" data-name="Layer 2"><g id="default"><rect class="cls-1" x="1" y="1" width="149.67" height="63.92" rx="26.35"/><path class="cls-2" d="M124.31,2a25.38,25.38,0,0,1,25.36,25.35V38.57a25.38,25.38,0,0,1-25.36,25.35h-97A25.38,25.38,0,0,1,2,38.57V27.35A25.38,25.38,0,0,1,27.35,2h97m0-2h-97A27.36,27.36,0,0,0,0,27.35V38.57A27.36,27.36,0,0,0,27.35,65.92h97a27.36,27.36,0,0,0,27.36-27.35V27.35A27.36,27.36,0,0,0,124.31,0Z"/><rect class="cls-2" x="27.31" y="31.33" width="77.59" height="3.26" transform="translate(132.21 65.92) rotate(180)"/><polygon class="cls-2" points="114.63 32.96 101.07 25.13 101.07 40.79 114.63 32.96"/></g></g></svg>