<svg xmlns="http://www.w3.org/2000/svg" xmlns:xlink="http://www.w3.org/1999/xlink" viewBox="0 0 45.56 24"><defs><style>.cls-1{fill:url(#linear-gradient);}.cls-2{fill:#7dff39;}.cls-3{fill:none;stroke:#7dff39;stroke-miterlimit:10;stroke-width:3px;}</style><linearGradient id="linear-gradient" x1="22.96" y1="23" x2="22.96" y2="1" gradientUnits="userSpaceOnUse"><stop offset="0" stop-color="#7dff39"/><stop offset="0.03" stop-color="#78f537"/><stop offset="0.24" stop-color="#54ac26"/><stop offset="0.44" stop-color="#366f19"/><stop offset="0.62" stop-color="#1f3f0e"/><stop offset="0.78" stop-color="#0e1d06"/><stop offset="0.91" stop-color="#040802"/><stop offset="1"/></linearGradient></defs><g id="Layer_2" data-name="Layer 2"><g id="Layer_2-2" data-name="Layer 2"><polygon class="cls-1" points="1.42 23 5.38 12 1.42 1 40.55 1 44.5 12 40.55 23 1.42 23"/><path class="cls-2" d="M39.84,2l3.6,10-3.6,10h-37l3.35-9.32L6.44,12l-.25-.68L2.84,2h37m1.41-2H0L4.31,12,0,24H41.25l4.31-12L41.25,0Z"/><polyline class="cls-3" points="20 3.91 25.56 12 20 20.09"/><polyline class="cls-3" points="12.45 3.91 18.01 12 12.45 20.09"/><polyline class="cls-3" points="27.55 3.91 33.12 12 27.55 20.09"/></g></g></svg>