<?xml version="1.0" encoding="UTF-8"?>
<svg id="Layer_2" data-name="Layer 2" xmlns="http://www.w3.org/2000/svg" xmlns:xlink="http://www.w3.org/1999/xlink" viewBox="0 0 78.54 78.54">
  <defs>
    <style>
      .cls-1 {
        fill: url(#New_Gradient_Swatch_copy);
      }

      .cls-2 {
        fill: #7dff39;
      }
    </style>
    <linearGradient id="New_Gradient_Swatch_copy" data-name="New Gradient Swatch copy" x1="39.27" y1="76.54" x2="39.27" y2="2" gradientUnits="userSpaceOnUse">
      <stop offset="0" stop-color="#7dff39"/>
      <stop offset=".05" stop-color="#6ddf31"/>
      <stop offset=".16" stop-color="#54ab26"/>
      <stop offset=".26" stop-color="#3d7d1c"/>
      <stop offset=".37" stop-color="#2a5713"/>
      <stop offset=".48" stop-color="#1b370c"/>
      <stop offset=".59" stop-color="#0f1e06"/>
      <stop offset=".72" stop-color="#060d03"/>
      <stop offset=".84" stop-color="#010300"/>
      <stop offset="1" stop-color="#000"/>
    </linearGradient>
  </defs>
  <g id="default">
    <g>
      <rect class="cls-1" x="2" y="2" width="74.54" height="74.54"/>
      <path class="cls-2" d="m74.54,4v70.54H4V4h70.54m4-4H0v78.54h78.54V0h0Z"/>
    </g>
  </g>
  <g id="Layer_9" data-name="Layer 9">
    <polygon class="cls-2" points="8.94 13.39 8.94 20.81 14.98 25.19 14.98 13.39 25.17 13.39 25.17 8.74 8.94 8.74 8.94 13.39"/>
    <polygon class="cls-2" points="19.14 32.66 8.94 32.66 8.94 37.31 25.17 37.31 25.17 32.66 25.17 19.01 19.14 19.01 19.14 32.66"/>
    <polygon class="cls-2" points="8.94 47.05 8.94 54.1 14.68 58.27 14.68 47.05 24.38 47.05 24.38 42.63 8.94 42.63 8.94 47.05"/>
    <polygon class="cls-2" points="18.64 65.38 8.94 65.38 8.94 69.79 24.38 69.79 24.38 65.38 24.38 52.39 18.64 52.39 18.64 65.38"/>
    <polygon class="cls-2" points="47.38 32.66 47.38 8.74 41.35 8.74 41.35 32.66 39.27 32.66 39.27 37.31 41.35 37.31 47.38 37.31 47.38 32.66"/>
    <polygon class="cls-2" points="43.63 60.4 40.71 57.07 40.71 66.46 43.63 69.79 49.36 69.79 49.36 42.63 43.63 42.63 43.63 60.4"/>
    <polygon class="cls-2" points="37.19 13.39 39.27 13.39 39.27 8.74 37.19 8.74 31.15 8.74 31.15 13.39 31.15 37.31 37.19 37.31 37.19 13.39"/>
    <polygon class="cls-2" points="35.81 42.63 30.07 42.63 30.07 69.79 35.81 69.79 38.73 66.46 38.73 57.07 35.81 60.4 35.81 42.63"/>
    <polygon class="cls-2" points="54.16 47.05 63.86 47.05 63.86 58.27 69.59 54.1 69.59 47.05 69.59 42.63 54.16 42.63 54.16 47.05"/>
    <rect class="cls-2" x="54.16" y="49.03" width="5.74" height="20.77"/>
    <polygon class="cls-2" points="65.54 32.66 61.48 32.66 61.48 37.31 69.59 37.31 65.54 32.66"/>
    <rect class="cls-2" x="53.36" y="8.74" width="6.03" height="28.56"/>
  </g>
</svg>