<svg xmlns="http://www.w3.org/2000/svg" viewBox="0 0 54.7 65.92"><defs><style>.cls-1{fill:#1aff87;}</style></defs><g id="Layer_2" data-name="Layer 2"><g id="default"><path d="M27.35,64.92A26.38,26.38,0,0,1,1,38.57V27.35a26.35,26.35,0,0,1,52.7,0V38.57A26.38,26.38,0,0,1,27.35,64.92Z"/><path class="cls-1" d="M27.35,2A25.38,25.38,0,0,1,52.7,27.35V38.57a25.35,25.35,0,0,1-50.7,0V27.35A25.38,25.38,0,0,1,27.35,2m0-2h0A27.36,27.36,0,0,0,0,27.35V38.57A27.36,27.36,0,0,0,27.35,65.92h0A27.35,27.35,0,0,0,54.7,38.57V27.35A27.35,27.35,0,0,0,27.35,0Z"/><polygon class="cls-1" points="36.75 15.56 25.51 15.56 20.53 15.56 19.45 20.54 24.43 20.54 35.67 20.54 33.87 28.84 22.63 28.84 17.64 28.84 16.56 33.82 14.05 45.38 12.97 50.36 17.95 50.36 29.2 50.36 34.18 50.36 35.26 45.38 30.28 45.38 19.04 45.38 21.54 33.82 32.78 33.82 37.77 33.82 38.85 28.84 40.65 20.54 41.73 15.56 36.75 15.56"/></g></g></svg>