<svg xmlns="http://www.w3.org/2000/svg" viewBox="0 0 151.67 65.92"><defs><style>.cls-1{fill:#fff;}</style></defs><g id="Layer_2" data-name="Layer 2"><g id="on_click" data-name="on click"><rect class="cls-1" x="2" y="2" width="147.67" height="61.92" rx="25.35"/><path d="M124.31,4a23.39,23.39,0,0,1,23.36,23.35V38.57a23.39,23.39,0,0,1-23.36,23.35h-97A23.38,23.38,0,0,1,4,38.57V27.35A23.38,23.38,0,0,1,27.35,4h97m0-4h-97A27.36,27.36,0,0,0,0,27.35V38.57A27.36,27.36,0,0,0,27.35,65.92h97a27.36,27.36,0,0,0,27.36-27.35V27.35A27.36,27.36,0,0,0,124.31,0Z"/><rect x="31.79" y="31.08" width="89.59" height="3.76"/><polygon points="20.56 32.96 36.22 42 36.22 23.92 20.56 32.96"/></g></g></svg>