<svg xmlns="http://www.w3.org/2000/svg" viewBox="0 0 54.7 65.92"><defs><style>.cls-1{fill:#1aff87;}</style></defs><g id="Layer_2" data-name="Layer 2"><g id="default"><path d="M27.35,64.92A26.38,26.38,0,0,1,1,38.57V27.35a26.35,26.35,0,0,1,52.7,0V38.57A26.38,26.38,0,0,1,27.35,64.92Z"/><path class="cls-1" d="M27.35,2A25.38,25.38,0,0,1,52.7,27.35V38.57a25.35,25.35,0,0,1-50.7,0V27.35A25.38,25.38,0,0,1,27.35,2m0-2h0A27.36,27.36,0,0,0,0,27.35V38.57A27.36,27.36,0,0,0,27.35,65.92h0A27.35,27.35,0,0,0,54.7,38.57V27.35A27.35,27.35,0,0,0,27.35,0Z"/><path class="cls-1" d="M35.67,20.54h5l1.08-5H20.53l-1.08,5-1.81,8.3-1.08,5L14.05,45.38l-1.08,5H34.18l1.08-5,2.51-11.56,1.08-5H22.63l1.8-8.3ZM32.78,33.82l-2.5,11.56H19l2.5-11.56Z"/></g></g></svg>