<svg xmlns="http://www.w3.org/2000/svg" viewBox="0 0 78.81 78.81"><defs><style>.cls-1{fill:#fff;}</style></defs><g id="Layer_2" data-name="Layer 2"><g id="on_click" data-name="on click"><circle class="cls-1" cx="39.41" cy="39.41" r="37.41" transform="translate(-16.32 39.41) rotate(-45)"/><path d="M39.41,4A35.41,35.41,0,1,1,4,39.41,35.44,35.44,0,0,1,39.41,4m0-4h0A39.4,39.4,0,0,0,0,39.41H0a39.4,39.4,0,0,0,39.41,39.4h0a39.4,39.4,0,0,0,39.4-39.4h0A39.4,39.4,0,0,0,39.41,0Z"/><path d="M63,38.57a2.87,2.87,0,0,1-2.58,1.08c-1.47,0-2.67-.64-2.67-1.43a.9.9,0,0,1,.18-.51c-5.29-.49-11.1.06-15.23,1.69,6.33,2.5,16.59,2.5,22.92,0A23.66,23.66,0,0,0,63,38.57Z"/><path d="M30.9,39.65c-1.47,0-2.67-.64-2.67-1.43a.9.9,0,0,1,.18-.51c-5.29-.49-11.1.06-15.23,1.69,6.33,2.5,16.59,2.5,22.91,0a22.83,22.83,0,0,0-2.61-.83A2.87,2.87,0,0,1,30.9,39.65Z"/></g></g></svg>