<svg xmlns="http://www.w3.org/2000/svg" xmlns:xlink="http://www.w3.org/1999/xlink" viewBox="0 0 217.17 62.87"><defs><style>.cls-1{fill:url(#linear-gradient);}.cls-2{fill:#ff5039;}</style><linearGradient id="linear-gradient" x1="108.58" y1="60.87" x2="108.58" y2="2" gradientUnits="userSpaceOnUse"><stop offset="0" stop-color="#ff5039"/><stop offset="0.04" stop-color="#d94430"/><stop offset="0.1" stop-color="#ac3626"/><stop offset="0.16" stop-color="#82291d"/><stop offset="0.23" stop-color="#5f1e15"/><stop offset="0.3" stop-color="#41150f"/><stop offset="0.38" stop-color="#290d09"/><stop offset="0.47" stop-color="#170705"/><stop offset="0.58" stop-color="#0a0302"/><stop offset="0.72" stop-color="#020100"/><stop offset="1"/></linearGradient></defs><g id="Layer_2" data-name="Layer 2"><g id="on_mouse_over" data-name="on mouse over"><polygon class="cls-1" points="14.1 60.88 2.44 2 214.73 2 203.07 60.88 14.1 60.88"/><path class="cls-2" d="M212.3,4,201.42,58.87H15.74L4.87,4H212.3m4.87-4H0L12.46,62.87H204.71L217.17,0Z"/><path class="cls-2" d="M56.8,24.8q0,9.72-8.29,11.07l8.74,18.78H49.9L41.29,36.1H26.75V54.65H20.11V8.22H45.53q11.27,0,11.27,11.3Zm-30,4.66H45.17A5.32,5.32,0,0,0,49,28.3a5.29,5.29,0,0,0,1.16-3.82V19.85A5.27,5.27,0,0,0,49,16a5.27,5.27,0,0,0-3.83-1.17H26.75Z"/><path class="cls-2" d="M67.87,8.22h33.84v6.64H74.51V28.13H97.72v6.64H74.51V48h27.2v6.63H67.87Z"/><path class="cls-2" d="M132.21,8.22l17.9,46.43h-6.63L139.36,44h-21L114.3,54.65h-6.63l17.9-46.43ZM120.94,37.33h15.87l-7.9-20.46Z"/><path class="cls-2" d="M158.08,54.65V8.22h23.6a18.79,18.79,0,0,1,6.72,1.15,14.09,14.09,0,0,1,8.39,8.4,18.86,18.86,0,0,1,1.15,6.71V38.4a18.8,18.8,0,0,1-1.15,6.7,14.09,14.09,0,0,1-8.39,8.4,18.58,18.58,0,0,1-6.72,1.15ZM181.68,48c3.09,0,5.46-.84,7.13-2.5s2.49-4,2.49-7.12V24.48a11.87,11.87,0,0,0-.65-4.05,7.91,7.91,0,0,0-4.92-4.92,11.87,11.87,0,0,0-4-.65h-17V48Z"/></g></g></svg>