<?xml version="1.0" encoding="UTF-8"?>
<svg id="Layer_2" data-name="Layer 2" xmlns="http://www.w3.org/2000/svg" xmlns:xlink="http://www.w3.org/1999/xlink" viewBox="0 0 100.96 100.96">
  <defs>
    <style>
      .cls-1 {
        fill: url(#linear-gradient);
      }

      .cls-1, .cls-2, .cls-3 {
        stroke-width: 0px;
      }

      .cls-2 {
        fill: #000;
      }

      .cls-3 {
        fill: #1aff87;
      }
    </style>
    <linearGradient id="linear-gradient" x1="50.48" y1="99.96" x2="50.48" y2="1" gradientUnits="userSpaceOnUse">
      <stop offset="0" stop-color="#17ff8b"/>
      <stop offset=".02" stop-color="#14df79"/>
      <stop offset=".06" stop-color="#0fab5d"/>
      <stop offset=".1" stop-color="#0b7d44"/>
      <stop offset=".14" stop-color="#07572f"/>
      <stop offset=".18" stop-color="#04371e"/>
      <stop offset=".23" stop-color="#021e10"/>
      <stop offset=".27" stop-color="#010d07"/>
      <stop offset=".32" stop-color="#000301"/>
      <stop offset=".38" stop-color="#000"/>
    </linearGradient>
  </defs>
  <g id="default">
    <g>
      <rect class="cls-1" x="1" y="1" width="98.96" height="98.96"/>
      <path class="cls-3" d="M98.96,2v96.96H2V2h96.96M100.96,0H0v100.96h100.96V0h0Z"/>
    </g>
    <g>
      <polygon class="cls-2" points="41.45 21.91 41.45 21.91 9.57 36.72 23.22 66.07 9.57 36.72 41.45 21.91"/>
      <polygon class="cls-3" points="35.07 91.56 23.22 66.07 35.07 91.56 60.27 79.85 60.27 79.85 35.07 91.56"/>
      <polygon class="cls-3" points="60.27 79.85 54.82 79.85 36.18 88.51 12.63 37.84 41.45 24.44 41.45 21.91 9.57 36.72 23.22 66.07 35.07 91.56 60.27 79.85"/>
      <polygon class="cls-3" points="29.39 68.73 41.45 63.12 41.45 46.93 23.2 55.41 29.39 68.73"/>
      <polygon class="cls-3" points="34.16 31.05 40.35 44.37 41.45 43.86 41.45 27.67 34.16 31.05"/>
      <polygon class="cls-3" points="36.75 84.57 46.91 79.85 41.45 79.85 41.45 66.19 30.56 71.25 36.75 84.57"/>
      <rect class="cls-3" x="18.13" y="35.25" width="17.26" height="14.68" transform="translate(-15.46 15.25) rotate(-24.93)"/>
      <path class="cls-3" d="M85.34,17.81v56.48h-38.84V17.81h38.84M87.34,15.81h-42.84v60.48h42.84V15.81h0Z"/>
      <rect class="cls-3" x="48.99" y="21.04" width="17.17" height="14.68"/>
      <rect class="cls-3" x="48.99" y="39.24" width="17.17" height="31.42"/>
      <rect class="cls-3" x="69.06" y="54.94" width="13.77" height="15.71"/>
      <rect class="cls-3" x="69.06" y="21.04" width="13.77" height="30.07"/>
    </g>
  </g>
</svg>