<svg xmlns="http://www.w3.org/2000/svg" xmlns:xlink="http://www.w3.org/1999/xlink" viewBox="0 0 78.81 78.81"><defs><style>.cls-1{fill:url(#linear-gradient);}.cls-2{fill:#1aff87;}</style><linearGradient id="linear-gradient" x1="39.41" y1="77.81" x2="39.41" y2="1" gradientTransform="translate(39.41 -16.32) rotate(45)" gradientUnits="userSpaceOnUse"><stop offset="0" stop-color="#17ff8b"/><stop offset="0.02" stop-color="#14e07a"/><stop offset="0.06" stop-color="#0fac5e"/><stop offset="0.1" stop-color="#0b7e45"/><stop offset="0.14" stop-color="#08572f"/><stop offset="0.18" stop-color="#05371e"/><stop offset="0.23" stop-color="#031f11"/><stop offset="0.27" stop-color="#010e07"/><stop offset="0.32" stop-color="#000302"/><stop offset="0.38"/></linearGradient></defs><g id="Layer_2" data-name="Layer 2"><g id="default"><circle class="cls-1" cx="39.41" cy="39.41" r="38.41" transform="translate(-16.32 39.41) rotate(-45)"/><path class="cls-2" d="M39.41,2A37.41,37.41,0,1,1,2,39.41,37.45,37.45,0,0,1,39.41,2m0-2h0A39.4,39.4,0,0,0,0,39.41H0a39.4,39.4,0,0,0,39.41,39.4h0a39.4,39.4,0,0,0,39.4-39.4h0A39.4,39.4,0,0,0,39.41,0Z"/><path class="cls-2" d="M63,37.84a2.66,2.66,0,0,1-5.25-.65,2.72,2.72,0,0,1,.18-.95c-5.29-.93-11.1.11-15.23,3.16,6.33,4.67,16.59,4.67,22.92,0A16.47,16.47,0,0,0,63,37.84Z"/><path class="cls-2" d="M30.9,39.86a2.68,2.68,0,0,1-2.67-2.67,2.72,2.72,0,0,1,.18-.95c-5.29-.93-11.1.11-15.23,3.16,6.33,4.67,16.59,4.67,22.91,0a15.94,15.94,0,0,0-2.61-1.56A2.66,2.66,0,0,1,30.9,39.86Z"/></g></g></svg>