<svg xmlns="http://www.w3.org/2000/svg" xmlns:xlink="http://www.w3.org/1999/xlink" viewBox="0 0 45.56 24"><defs><style>.cls-1{fill:url(#linear-gradient);}.cls-2{fill:#1aff87;}.cls-3{fill:none;stroke:#1aff87;stroke-miterlimit:10;stroke-width:3px;}</style><linearGradient id="linear-gradient" x1="1278.72" y1="23" x2="1278.72" y2="1" gradientTransform="matrix(-1, 0, 0, 1, 1301.32, 0)" gradientUnits="userSpaceOnUse"><stop offset="0" stop-color="#17ff8b"/><stop offset="0.04" stop-color="#14e07a"/><stop offset="0.11" stop-color="#0fac5e"/><stop offset="0.18" stop-color="#0b7e45"/><stop offset="0.25" stop-color="#08572f"/><stop offset="0.33" stop-color="#05371e"/><stop offset="0.41" stop-color="#031f11"/><stop offset="0.49" stop-color="#010e07"/><stop offset="0.58" stop-color="#000302"/><stop offset="0.68"/></linearGradient></defs><g id="Layer_2" data-name="Layer 2"><g id="Layer_2-2" data-name="Layer 2"><polygon class="cls-1" points="5.02 23 1.06 12 5.02 1 44.14 1 40.19 12 44.14 23 5.02 23"/><path class="cls-2" d="M42.72,2l-3.35,9.32-.24.68.24.68L42.72,22h-37L2.13,12,5.72,2h37m2.84-2H4.31L0,12,4.31,24H45.56L41.25,12,45.56,0Z"/><polyline class="cls-3" points="25.56 3.91 20 12 25.56 20.09"/><polyline class="cls-3" points="33.12 3.91 27.55 12 33.12 20.09"/><polyline class="cls-3" points="18.01 3.91 12.45 12 18.01 20.09"/></g></g></svg>