<svg xmlns="http://www.w3.org/2000/svg" xmlns:xlink="http://www.w3.org/1999/xlink" viewBox="0 0 78.81 78.81"><defs><style>.cls-1{fill:url(#linear-gradient);}.cls-2{fill:#1aff87;}</style><linearGradient id="linear-gradient" x1="39.41" y1="77.81" x2="39.41" y2="1" gradientUnits="userSpaceOnUse"><stop offset="0" stop-color="#17ff8b"/><stop offset="0.02" stop-color="#14e07a"/><stop offset="0.06" stop-color="#0fac5e"/><stop offset="0.1" stop-color="#0b7e45"/><stop offset="0.14" stop-color="#08572f"/><stop offset="0.18" stop-color="#05371e"/><stop offset="0.23" stop-color="#031f11"/><stop offset="0.27" stop-color="#010e07"/><stop offset="0.32" stop-color="#000302"/><stop offset="0.38"/></linearGradient></defs><g id="Layer_2" data-name="Layer 2"><g id="default"><rect class="cls-1" x="1" y="1" width="76.81" height="76.81"/><path class="cls-2" d="M76.81,2V76.81H2V2H76.81m2-2H0V78.81H78.81V0Z"/><path class="cls-2" d="M8.17,29.85l4.26-.5q.71,5,4.7,5a4.41,4.41,0,0,0,3.1-1,3.34,3.34,0,0,0,1.13-2.56,2.76,2.76,0,0,0-.4-1.52,2.86,2.86,0,0,0-1.2-1,33,33,0,0,0-3.91-1.35,13.17,13.17,0,0,1-4.07-1.83,6.87,6.87,0,0,1-2-2.59A7.92,7.92,0,0,1,9,19a7.68,7.68,0,0,1,1-3.87,6.33,6.33,0,0,1,2.7-2.6,9.25,9.25,0,0,1,4.25-.88,8.2,8.2,0,0,1,5.94,2.06,8.24,8.24,0,0,1,2.26,5.9l-4.36.24a4.67,4.67,0,0,0-1.24-3,4,4,0,0,0-2.71-.85,4.32,4.32,0,0,0-2.7.74,2.2,2.2,0,0,0-.95,1.82A2.27,2.27,0,0,0,14,20.44a12.3,12.3,0,0,0,4,1.61,16.27,16.27,0,0,1,4.75,2,6.87,6.87,0,0,1,2.23,2.71,9.59,9.59,0,0,1,.77,4,8.23,8.23,0,0,1-2.11,5.75C22.19,38.1,20,38.87,17,38.87Q9.07,38.87,8.17,29.85Z"/><path class="cls-2" d="M29.13,25.44a18.64,18.64,0,0,1,1.39-7.74,10.5,10.5,0,0,1,3.63-4.53,9.65,9.65,0,0,1,5.44-1.49,9.34,9.34,0,0,1,7.54,3.53Q50,18.75,50,25.28T47,35.59a9,9,0,0,1-7.36,3.28,9.13,9.13,0,0,1-7.39-3.24Q29.14,31.91,29.13,25.44Zm4.48-.18q0,4.53,1.73,6.81a5.19,5.19,0,0,0,4.27,2.27,5.1,5.1,0,0,0,4.26-2.26q1.7-2.25,1.69-6.91t-1.64-6.76a5.14,5.14,0,0,0-4.31-2.19,5.2,5.2,0,0,0-4.33,2.2C34.17,19.9,33.61,22.17,33.61,25.26Z"/><path class="cls-2" d="M54.12,38.43V12.34h4.34V34H69.29v4.45Z"/><path class="cls-2" d="M8.17,58.11l4.26-.5q.71,5,4.7,5a4.41,4.41,0,0,0,3.1-1,3.34,3.34,0,0,0,1.13-2.56,2.76,2.76,0,0,0-.4-1.52,2.86,2.86,0,0,0-1.2-1,33,33,0,0,0-3.91-1.35,13.17,13.17,0,0,1-4.07-1.83,6.87,6.87,0,0,1-2-2.59A7.92,7.92,0,0,1,9,47.29a7.68,7.68,0,0,1,1-3.87,6.33,6.33,0,0,1,2.7-2.6,9.25,9.25,0,0,1,4.25-.88A8.2,8.2,0,0,1,22.83,42a8.24,8.24,0,0,1,2.26,5.9l-4.36.24a4.67,4.67,0,0,0-1.24-3,4,4,0,0,0-2.71-.85,4.32,4.32,0,0,0-2.7.74,2.2,2.2,0,0,0-.95,1.82A2.27,2.27,0,0,0,14,48.7a12.3,12.3,0,0,0,4,1.61,16.27,16.27,0,0,1,4.75,2A6.87,6.87,0,0,1,24.93,55a9.59,9.59,0,0,1,.77,4,8.23,8.23,0,0,1-2.11,5.75c-1.4,1.56-3.6,2.33-6.59,2.33Q9.07,67.13,8.17,58.11Z"/><path class="cls-2" d="M30.59,66.69l-5.17-26.3h4.47l3.24,18.07,3.94-18.07h5.19L46,58.77l3.33-18.38h4.38l-5.24,26.3H43.88L39.57,47,35.3,66.69Z"/><path class="cls-2" d="M54.12,66.69V40.39h7a21.63,21.63,0,0,1,5.12.37,5.8,5.8,0,0,1,3.16,2.61,9.51,9.51,0,0,1,1.25,5.13,9.68,9.68,0,0,1-1.08,4.78A6.22,6.22,0,0,1,66.87,56a14,14,0,0,1-5.56.78H58.46v9.92Zm4.34-21.85v7.48h2.41a10.75,10.75,0,0,0,3.3-.34,2.94,2.94,0,0,0,1.43-1.24,4.51,4.51,0,0,0,0-4.39,2.88,2.88,0,0,0-1.42-1.21,13.25,13.25,0,0,0-3.58-.3Z"/></g></g></svg>