<svg xmlns="http://www.w3.org/2000/svg" xmlns:xlink="http://www.w3.org/1999/xlink" viewBox="0 0 45.56 24"><defs><style>.cls-1{fill:url(#linear-gradient);}.cls-2{fill:#1aff87;}.cls-3{fill:none;stroke:#1aff87;stroke-miterlimit:10;stroke-width:3px;}</style><linearGradient id="linear-gradient" x1="22.96" y1="23" x2="22.96" y2="1" gradientUnits="userSpaceOnUse"><stop offset="0" stop-color="#17ff8b"/><stop offset="0.04" stop-color="#14e07a"/><stop offset="0.11" stop-color="#0fac5e"/><stop offset="0.18" stop-color="#0b7e45"/><stop offset="0.25" stop-color="#08572f"/><stop offset="0.33" stop-color="#05371e"/><stop offset="0.41" stop-color="#031f11"/><stop offset="0.49" stop-color="#010e07"/><stop offset="0.58" stop-color="#000302"/><stop offset="0.68"/></linearGradient></defs><g id="Layer_2" data-name="Layer 2"><g id="Layer_2-2" data-name="Layer 2"><polygon class="cls-1" points="1.42 23 5.38 12 1.42 1 40.55 1 44.5 12 40.55 23 1.42 23"/><path class="cls-2" d="M39.84,2l3.6,10-3.6,10h-37l3.35-9.32L6.44,12l-.25-.68L2.84,2h37m1.41-2H0L4.31,12,0,24H41.25l4.31-12L41.25,0Z"/><polyline class="cls-3" points="20 3.91 25.56 12 20 20.09"/><polyline class="cls-3" points="12.45 3.91 18.01 12 12.45 20.09"/><polyline class="cls-3" points="27.55 3.91 33.12 12 27.55 20.09"/></g></g></svg>