<svg xmlns="http://www.w3.org/2000/svg" xmlns:xlink="http://www.w3.org/1999/xlink" viewBox="0 0 78.81 78.81"><defs><style>.cls-1{fill:url(#New_Gradient_Swatch_copy);}.cls-2{fill:#7dff39;}</style><linearGradient id="New_Gradient_Swatch_copy" x1="39.41" y1="76.81" x2="39.41" y2="2" gradientUnits="userSpaceOnUse"><stop offset="0" stop-color="#7dff39"/><stop offset="0.05" stop-color="#6ee032"/><stop offset="0.16" stop-color="#54ac26"/><stop offset="0.26" stop-color="#3e7e1c"/><stop offset="0.37" stop-color="#2b5713"/><stop offset="0.48" stop-color="#1b370c"/><stop offset="0.59" stop-color="#0f1f07"/><stop offset="0.72" stop-color="#070e03"/><stop offset="0.84" stop-color="#020301"/><stop offset="1"/></linearGradient></defs><g id="Layer_2" data-name="Layer 2"><g id="on_mouse_over" data-name="on mouse over"><path class="cls-1" d="M2,76.81V35.15A33.19,33.19,0,0,1,35.15,2H76.81V43.67A33.18,33.18,0,0,1,43.67,76.81Z"/><path class="cls-2" d="M74.81,4V43.67A31.18,31.18,0,0,1,43.67,74.81H4V35.15A31.18,31.18,0,0,1,35.15,4H74.81m4-4H35.15A35.15,35.15,0,0,0,0,35.15V78.81H43.67A35.14,35.14,0,0,0,78.81,43.67V0Z"/><path class="cls-2" d="M30.23,70.28q-2.78-2.82-2.77-8.43a32.4,32.4,0,0,1,.75-6.09l6.37-30.08H48.07L41.33,57.54a11.5,11.5,0,0,0-.38,3,3.45,3.45,0,0,0,.89,2.67,4.36,4.36,0,0,0,2.95.8,7.61,7.61,0,0,0,3-.56,10,10,0,0,1-3.32,7.17,10.54,10.54,0,0,1-7,2.48A9.73,9.73,0,0,1,30.23,70.28Zm8.38-51.81a7.14,7.14,0,0,1-2.15-5.25,7.28,7.28,0,0,1,2.15-5.29,7.07,7.07,0,0,1,5.25-2.2,7.2,7.2,0,0,1,5.29,2.2,7.2,7.2,0,0,1,2.2,5.29,7.07,7.07,0,0,1-2.2,5.25,7.32,7.32,0,0,1-5.29,2.15A7.18,7.18,0,0,1,38.61,18.47Z"/></g></g></svg>