<svg xmlns="http://www.w3.org/2000/svg" xmlns:xlink="http://www.w3.org/1999/xlink" viewBox="0 0 78.81 78.81"><defs><style>.cls-1{fill:url(#linear-gradient);}.cls-2,.cls-4{fill:#ff5039;}.cls-3{fill:none;stroke:#ff5039;stroke-width:2px;}.cls-3,.cls-4{stroke-miterlimit:10;}.cls-4{stroke:#000;}.cls-5{fill:#fff;}</style><linearGradient id="linear-gradient" x1="39.41" y1="76.81" x2="39.41" y2="2" gradientUnits="userSpaceOnUse"><stop offset="0" stop-color="#ff5039"/><stop offset="0.04" stop-color="#d64330"/><stop offset="0.1" stop-color="#aa3526"/><stop offset="0.16" stop-color="#81281d"/><stop offset="0.23" stop-color="#5e1d15"/><stop offset="0.3" stop-color="#41140e"/><stop offset="0.37" stop-color="#290d09"/><stop offset="0.46" stop-color="#160705"/><stop offset="0.57" stop-color="#0a0302"/><stop offset="0.71" stop-color="#020100"/><stop offset="1"/></linearGradient></defs><g id="Layer_2" data-name="Layer 2"><g id="on_mouse_over" data-name="on mouse over"><rect class="cls-1" x="2" y="2" width="74.81" height="74.81"/><path class="cls-2" d="M74.81,4V74.81H4V4H74.81m4-4H0V78.81H78.81V0Z"/><rect class="cls-2" x="32.67" y="23.48" width="15.86" height="16.5" transform="matrix(0.85, 0.52, -0.52, 0.85, 22.34, -16.46)"/><polyline class="cls-3" points="45.76 22.87 50.47 15.11 58.4 19.91 63.26 18.72"/><circle class="cls-4" cx="28.92" cy="50.98" r="21.35"/><path class="cls-5" d="M68.41,7l-1.87,5.56a5.29,5.29,0,0,0,4.37,6.94l5.83.72-5.87-.07a5.31,5.31,0,0,0-5.26,6.31l1.13,5.76L65,26.61a5.3,5.3,0,0,0-7.62-3.05l-5.13,2.85L57,23a5.29,5.29,0,0,0,.55-8.19l-4.3-4L58,14.32a5.29,5.29,0,0,0,8-2Z"/></g></g></svg>