<svg xmlns="http://www.w3.org/2000/svg" xmlns:xlink="http://www.w3.org/1999/xlink" viewBox="0 0 54.7 65.92"><defs><style>.cls-1{fill:url(#New_Gradient_Swatch_copy);}.cls-2{fill:#7dff39;}</style><linearGradient id="New_Gradient_Swatch_copy" x1="27.35" y1="63.92" x2="27.35" y2="2" gradientUnits="userSpaceOnUse"><stop offset="0" stop-color="#7dff39"/><stop offset="0.05" stop-color="#6ee032"/><stop offset="0.16" stop-color="#54ac26"/><stop offset="0.26" stop-color="#3e7e1c"/><stop offset="0.37" stop-color="#2b5713"/><stop offset="0.48" stop-color="#1b370c"/><stop offset="0.59" stop-color="#0f1f07"/><stop offset="0.72" stop-color="#070e03"/><stop offset="0.84" stop-color="#020301"/><stop offset="1"/></linearGradient></defs><g id="Layer_2" data-name="Layer 2"><g id="on_mouse_over" data-name="on mouse over"><path class="cls-1" d="M27.35,63.92A25.38,25.38,0,0,1,2,38.57V27.35a25.35,25.35,0,0,1,50.7,0V38.57A25.38,25.38,0,0,1,27.35,63.92Z"/><path class="cls-2" d="M27.35,4A23.38,23.38,0,0,1,50.7,27.35V38.57a23.35,23.35,0,0,1-46.7,0V27.35A23.38,23.38,0,0,1,27.35,4m0-4h0A27.36,27.36,0,0,0,0,27.35V38.57A27.36,27.36,0,0,0,27.35,65.92h0A27.35,27.35,0,0,0,54.7,38.57V27.35A27.35,27.35,0,0,0,27.35,0Z"/><polygon class="cls-2" points="25.51 15.56 20.53 15.56 19.45 20.54 24.43 20.54 35.67 20.54 33.87 28.84 32.78 33.82 30.28 45.38 29.2 50.36 34.18 50.36 35.26 45.38 37.77 33.82 38.85 28.84 40.65 20.54 41.73 15.56 36.75 15.56 25.51 15.56"/></g></g></svg>