<?xml version="1.0" encoding="UTF-8"?>
<svg id="Layer_2" data-name="Layer 2" xmlns="http://www.w3.org/2000/svg" xmlns:xlink="http://www.w3.org/1999/xlink" viewBox="0 0 78.81 78.81">
  <defs>
    <style>
      .cls-1 {
        fill: #1aff87;
      }

      .cls-2 {
        fill: url(#linear-gradient);
      }
    </style>
    <linearGradient id="linear-gradient" x1="39.41" y1="77.81" x2="39.41" y2="1" gradientUnits="userSpaceOnUse">
      <stop offset="0" stop-color="#17ff8b"/>
      <stop offset=".02" stop-color="#14df79"/>
      <stop offset=".06" stop-color="#0fab5d"/>
      <stop offset=".1" stop-color="#0b7d44"/>
      <stop offset=".14" stop-color="#07572f"/>
      <stop offset=".18" stop-color="#04371e"/>
      <stop offset=".23" stop-color="#021e10"/>
      <stop offset=".27" stop-color="#010d07"/>
      <stop offset=".32" stop-color="#000301"/>
      <stop offset=".38" stop-color="#000"/>
    </linearGradient>
  </defs>
  <g id="default">
    <g>
      <rect class="cls-2" x="1" y="1" width="76.81" height="76.81"/>
      <path class="cls-1" d="m76.81,2v74.81H2V2h74.81m2-2H0v78.81h78.81V0h0Z"/>
    </g>
  </g>
  <g id="Layer_9" data-name="Layer 9">
    <polygon class="cls-1" points="10.06 14.36 10.06 21.54 15.9 25.78 15.9 14.36 25.77 14.36 25.77 9.87 10.06 9.87 10.06 14.36"/>
    <polygon class="cls-1" points="19.93 33.01 10.06 33.01 10.06 37.51 25.77 37.51 25.77 33.01 25.77 19.81 19.93 19.81 19.93 33.01"/>
    <polygon class="cls-1" points="10.06 46.93 10.06 53.76 15.62 57.79 15.62 46.93 25 46.93 25 42.66 10.06 42.66 10.06 46.93"/>
    <polygon class="cls-1" points="19.45 64.67 10.06 64.67 10.06 68.94 25 68.94 25 64.67 25 52.11 19.45 52.11 19.45 64.67"/>
    <polygon class="cls-1" points="47.26 33.01 47.26 9.87 41.42 9.87 41.42 33.01 39.41 33.01 39.41 37.51 41.42 37.51 47.26 37.51 47.26 33.01"/>
    <polygon class="cls-1" points="43.62 59.85 40.8 56.63 40.8 65.72 43.62 68.94 49.18 68.94 49.18 42.66 43.62 42.66 43.62 59.85"/>
    <polygon class="cls-1" points="37.39 14.36 39.41 14.36 39.41 9.87 37.39 9.87 31.55 9.87 31.55 14.36 31.55 37.51 37.39 37.51 37.39 14.36"/>
    <polygon class="cls-1" points="36.06 42.66 30.5 42.66 30.5 68.94 36.06 68.94 38.88 65.72 38.88 56.63 36.06 59.85 36.06 42.66"/>
    <polygon class="cls-1" points="53.81 46.93 63.2 46.93 63.2 57.79 68.75 53.76 68.75 46.93 68.75 42.66 53.81 42.66 53.81 46.93"/>
    <rect class="cls-1" x="53.81" y="48.85" width="5.55" height="20.1"/>
    <polygon class="cls-1" points="64.82 33.01 60.9 33.01 60.9 37.51 68.75 37.51 64.82 33.01"/>
    <rect class="cls-1" x="53.05" y="9.87" width="5.84" height="27.64"/>
  </g>
</svg>