<svg xmlns="http://www.w3.org/2000/svg" xmlns:xlink="http://www.w3.org/1999/xlink" viewBox="0 0 78.81 78.81"><defs><style>.cls-1{fill:url(#linear-gradient);}.cls-2{fill:aqua;}</style><linearGradient id="linear-gradient" x1="39.41" y1="76.81" x2="39.41" y2="2" gradientUnits="userSpaceOnUse"><stop offset="0" stop-color="aqua"/><stop offset="0.05" stop-color="#00e0e0"/><stop offset="0.16" stop-color="#00acac"/><stop offset="0.26" stop-color="#007e7e"/><stop offset="0.37" stop-color="#005757"/><stop offset="0.48" stop-color="#003737"/><stop offset="0.59" stop-color="#001f1f"/><stop offset="0.72" stop-color="#000e0e"/><stop offset="0.84" stop-color="#000303"/><stop offset="1"/></linearGradient></defs><g id="Layer_2" data-name="Layer 2"><g id="on_mouse_over" data-name="on mouse over"><path class="cls-1" d="M2,76.81V2H76.81V32.24A44.61,44.61,0,0,1,32.25,76.81Z"/><path class="cls-2" d="M74.81,4V32.25A42.61,42.61,0,0,1,32.25,74.81H4V4H74.81m4-4H0V78.81H32.25A46.57,46.57,0,0,0,78.81,32.25V0Z"/><path class="cls-2" d="M15.12,32.68a13.11,13.11,0,0,1-4.67-14.16c.53-2.15,1.24-2.79,3.11-.8A37.59,37.59,0,0,0,36.33,29.29c2,.29,2.68-.07,2.61-2.29a12.53,12.53,0,0,1,7.28-12.32A12.43,12.43,0,0,1,60.16,16a4.32,4.32,0,0,0,4.55.72c1.53-.57,3.05-1.17,5-1.91-.43,2.68-2.34,4.06-3.74,5.77,1.84,1.07,3.32-.6,4.9-.2A1.67,1.67,0,0,1,70,22.05c-3.91,2.67-4.45,6.55-5,11-3,25.45-31.18,40.22-54.09,28.65C10.13,61.3,9.42,60.82,8,60c7.12.11,13-1.31,18.7-5.61-3-.65-5.43-1.3-7.42-2.84A10.85,10.85,0,0,1,15,45.79c1.22-1,2.82.08,4.2-1-2-1.41-4.37-2.2-5.85-4.12a22.15,22.15,0,0,1-2.07-3c-.83-1.56-1.91-3.52-1.15-5s2.49.52,3.86.31a6.71,6.71,0,0,0,1.19-.41c0,.16-.08.32-.12.48,0,0,.13-.09.13-.14S15.14,32.78,15.12,32.68Z"/><path class="cls-2" d="M15.12,32.68c0,.1.06.2.07.3s-.09.09-.13.14c0-.16.07-.32.12-.48Z"/></g></g></svg>