<svg xmlns="http://www.w3.org/2000/svg" xmlns:xlink="http://www.w3.org/1999/xlink" viewBox="0 0 78.81 78.81"><defs><style>.cls-1{fill:url(#linear-gradient);}.cls-2{fill:#1aff87;}</style><linearGradient id="linear-gradient" x1="39.41" y1="77.81" x2="39.41" y2="1" gradientUnits="userSpaceOnUse"><stop offset="0" stop-color="#17ff8b"/><stop offset="0.02" stop-color="#14e07a"/><stop offset="0.06" stop-color="#0fac5e"/><stop offset="0.1" stop-color="#0b7e45"/><stop offset="0.14" stop-color="#08572f"/><stop offset="0.18" stop-color="#05371e"/><stop offset="0.23" stop-color="#031f11"/><stop offset="0.27" stop-color="#010e07"/><stop offset="0.32" stop-color="#000302"/><stop offset="0.38"/></linearGradient></defs><g id="Layer_2" data-name="Layer 2"><g id="default"><path class="cls-1" d="M1,77.81V1H77.81V32.24A45.62,45.62,0,0,1,32.25,77.81Z"/><path class="cls-2" d="M76.81,2V32.25A44.61,44.61,0,0,1,32.25,76.81H2V2H76.81m2-2H0V78.81H32.25A46.57,46.57,0,0,0,78.81,32.25V0Z"/><path class="cls-2" d="M17.63,33.37a11.77,11.77,0,0,1-4.19-12.69c.48-1.93,1.12-2.5,2.79-.72A33.66,33.66,0,0,0,36.65,30.33c1.79.26,2.4-.06,2.34-2a11.22,11.22,0,0,1,6.53-11A11.15,11.15,0,0,1,58,18.42a3.86,3.86,0,0,0,4.08.64c1.37-.51,2.73-1,4.44-1.71-.38,2.4-2.1,3.64-3.35,5.18,1.65,1,3-.55,4.39-.18a1.48,1.48,0,0,1-.78,1.49c-3.5,2.4-4,5.87-4.47,9.85-2.74,22.82-28,36.06-48.5,25.69-.68-.34-1.31-.77-2.62-1.55,6.38.1,11.66-1.17,16.77-5-2.72-.59-4.87-1.17-6.66-2.55a9.74,9.74,0,0,1-3.79-5.13c1.09-.92,2.52.07,3.76-.91-1.81-1.26-3.92-2-5.25-3.69a19.45,19.45,0,0,1-1.85-2.66c-.75-1.39-1.72-3.15-1-4.44s2.23.47,3.46.28a6.07,6.07,0,0,0,1.06-.37c0,.15-.07.29-.1.43,0,0,.11-.09.11-.12A1.27,1.27,0,0,0,17.63,33.37Z"/><path class="cls-2" d="M17.63,33.37a1.27,1.27,0,0,1,.06.28s-.07.08-.11.12c0-.14.06-.28.1-.43Z"/></g></g></svg>