<svg xmlns="http://www.w3.org/2000/svg" viewBox="0 0 78.81 78.81"><defs><style>.cls-1{fill:#fff;}</style></defs><g id="Layer_2" data-name="Layer 2"><g id="on_click" data-name="on click"><rect class="cls-1" x="2" y="2" width="74.81" height="74.81"/><path d="M74.81,4V74.81H4V4H74.81m4-4H0V78.81H78.81V0Z"/><path d="M5.36,29,10,28.44q.78,5.5,5.12,5.5a4.83,4.83,0,0,0,3.38-1.13A3.61,3.61,0,0,0,19.73,30a3,3,0,0,0-.43-1.66A3.13,3.13,0,0,0,18,27.24a36.62,36.62,0,0,0-4.26-1.47,14.6,14.6,0,0,1-4.44-2A7.63,7.63,0,0,1,7.05,21a8.69,8.69,0,0,1-.83-3.76A8.4,8.4,0,0,1,7.29,13a7,7,0,0,1,2.94-2.83,10.1,10.1,0,0,1,4.63-1,8.93,8.93,0,0,1,6.48,2.25,9,9,0,0,1,2.46,6.43l-4.75.26a5.17,5.17,0,0,0-1.35-3.23A4.33,4.33,0,0,0,14.75,14a4.8,4.8,0,0,0-3,.8,2.43,2.43,0,0,0-1,2,2.47,2.47,0,0,0,.94,2A13.47,13.47,0,0,0,16,20.49a17.71,17.71,0,0,1,5.17,2.18,7.48,7.48,0,0,1,2.44,2.95A10.39,10.39,0,0,1,24.47,30a9,9,0,0,1-2.3,6.27q-2.3,2.55-7.19,2.55Q6.34,38.83,5.36,29Z"/><path d="M28.2,24.18a20.39,20.39,0,0,1,1.52-8.44,11.38,11.38,0,0,1,4-4.93A10.39,10.39,0,0,1,39.6,9.18,10.16,10.16,0,0,1,47.82,13Q51,16.88,51,24T47.64,35.25a9.87,9.87,0,0,1-8,3.58,9.91,9.91,0,0,1-8-3.54Q28.2,31.24,28.2,24.18Zm4.89-.2q0,4.95,1.88,7.43a5.68,5.68,0,0,0,4.66,2.47,5.58,5.58,0,0,0,4.64-2.45q1.84-2.46,1.84-7.54c0-3.33-.59-5.78-1.79-7.37a5.6,5.6,0,0,0-4.69-2.39,5.67,5.67,0,0,0-4.72,2.4Q33.1,18.95,33.09,24Z"/><path d="M55.44,38.34V9.91h4.74V33.49H72v4.85Z"/><path d="M5.36,59.8,10,59.25q.78,5.49,5.12,5.49a4.82,4.82,0,0,0,3.38-1.12,3.63,3.63,0,0,0,1.23-2.79,3,3,0,0,0-.43-1.66A3.12,3.12,0,0,0,18,58.05a35.92,35.92,0,0,0-4.26-1.48,14.36,14.36,0,0,1-4.44-2,7.51,7.51,0,0,1-2.24-2.82A8.72,8.72,0,0,1,6.22,48a8.4,8.4,0,0,1,1.07-4.22A6.91,6.91,0,0,1,10.23,41a10.1,10.1,0,0,1,4.63-1,8.93,8.93,0,0,1,6.48,2.25,9,9,0,0,1,2.46,6.43l-4.75.25A5.14,5.14,0,0,0,17.7,45.7a4.28,4.28,0,0,0-2.95-.92,4.74,4.74,0,0,0-3,.8,2.41,2.41,0,0,0-1,2,2.46,2.46,0,0,0,.94,2A13.24,13.24,0,0,0,16,51.29a17.71,17.71,0,0,1,5.17,2.18,7.58,7.58,0,0,1,2.44,3,10.31,10.31,0,0,1,.84,4.38,9,9,0,0,1-2.3,6.28q-2.3,2.53-7.19,2.54Q6.34,69.63,5.36,59.8Z"/><path d="M29.8,69.14,24.16,40.48H29l3.53,19.7,4.3-19.7h5.66l4.12,20,3.63-20H55L49.33,69.14h-5L39.58,47.7,34.93,69.14Z"/><path d="M55.44,69.14V40.48h7.63a23,23,0,0,1,5.57.41,6.28,6.28,0,0,1,3.45,2.83,10.36,10.36,0,0,1,1.36,5.59,10.63,10.63,0,0,1-1.17,5.22,6.83,6.83,0,0,1-2.93,2.95q-1.77.85-6.07.85h-3.1V69.14Zm4.74-23.81v8.15H62.8a11.44,11.44,0,0,0,3.6-.37A3.26,3.26,0,0,0,68,51.76a4.43,4.43,0,0,0,.6-2.38A4.47,4.47,0,0,0,67.94,47a3.12,3.12,0,0,0-1.55-1.31,14.36,14.36,0,0,0-3.9-.33Z"/></g></g></svg>