<svg xmlns="http://www.w3.org/2000/svg" xmlns:xlink="http://www.w3.org/1999/xlink" viewBox="0 0 78.81 78.81"><defs><style>.cls-1{fill:url(#New_Gradient_Swatch_copy);}.cls-2{fill:#7dff39;}</style><linearGradient id="New_Gradient_Swatch_copy" x1="39.41" y1="76.81" x2="39.41" y2="2" gradientTransform="translate(39.41 -16.32) rotate(45)" gradientUnits="userSpaceOnUse"><stop offset="0" stop-color="#7dff39"/><stop offset="0.05" stop-color="#6ee032"/><stop offset="0.16" stop-color="#54ac26"/><stop offset="0.26" stop-color="#3e7e1c"/><stop offset="0.37" stop-color="#2b5713"/><stop offset="0.48" stop-color="#1b370c"/><stop offset="0.59" stop-color="#0f1f07"/><stop offset="0.72" stop-color="#070e03"/><stop offset="0.84" stop-color="#020301"/><stop offset="1"/></linearGradient></defs><g id="Layer_2" data-name="Layer 2"><g id="on_mouse_over" data-name="on mouse over"><circle class="cls-1" cx="39.41" cy="39.41" r="37.41" transform="translate(-16.32 39.41) rotate(-45)"/><path class="cls-2" d="M39.41,4A35.41,35.41,0,1,1,4,39.41,35.44,35.44,0,0,1,39.41,4m0-4h0A39.4,39.4,0,0,0,0,39.41H0a39.4,39.4,0,0,0,39.41,39.4h0a39.4,39.4,0,0,0,39.4-39.4h0A39.4,39.4,0,0,0,39.41,0Z"/><path class="cls-2" d="M63,36.37c-.29,2.24-1.33,3.91-2.58,3.91-1.47,0-2.67-2.31-2.67-5.16A9.62,9.62,0,0,1,58,33.29c-5.29-1.81-11.1.21-15.23,6.11,6.33,9,16.59,9,22.92,0A19.71,19.71,0,0,0,63,36.37Z"/><path class="cls-2" d="M30.9,40.28c-1.47,0-2.67-2.31-2.67-5.16a9.62,9.62,0,0,1,.18-1.83c-5.29-1.81-11.1.21-15.23,6.11,6.33,9,16.59,9,22.91,0a19.13,19.13,0,0,0-2.61-3C33.19,38.61,32.15,40.28,30.9,40.28Z"/></g></g></svg>