<svg xmlns="http://www.w3.org/2000/svg" xmlns:xlink="http://www.w3.org/1999/xlink" viewBox="0 0 78.81 78.81"><defs><style>.cls-1{fill:url(#linear-gradient);}.cls-2{fill:#1aff87;}</style><linearGradient id="linear-gradient" x1="39.41" y1="77.81" x2="39.41" y2="1" gradientUnits="userSpaceOnUse"><stop offset="0" stop-color="#17ff8b"/><stop offset="0.02" stop-color="#14e07a"/><stop offset="0.06" stop-color="#0fac5e"/><stop offset="0.1" stop-color="#0b7e45"/><stop offset="0.14" stop-color="#08572f"/><stop offset="0.18" stop-color="#05371e"/><stop offset="0.23" stop-color="#031f11"/><stop offset="0.27" stop-color="#010e07"/><stop offset="0.32" stop-color="#000302"/><stop offset="0.38"/></linearGradient></defs><g id="Layer_2" data-name="Layer 2"><g id="default"><path class="cls-1" d="M39.41,77.81a38.41,38.41,0,1,1,38.4-38.4A38.45,38.45,0,0,1,39.41,77.81Z"/><path class="cls-2" d="M39.41,2A37.41,37.41,0,1,1,2,39.41,37.45,37.45,0,0,1,39.41,2m0-2h0A39.4,39.4,0,0,0,0,39.41H0a39.4,39.4,0,0,0,39.41,39.4h0a39.4,39.4,0,0,0,39.4-39.4h0A39.4,39.4,0,0,0,39.41,0Z"/><path class="cls-2" d="M45.41,30.44l1.35-2.27h6.69L49.14,45.5l-.09.51c0,.12,0,.23,0,.32a1.37,1.37,0,0,0,.34,1,1.3,1.3,0,0,0,1,.35q3.53,0,6.38-3.93a15.17,15.17,0,0,0,2.85-9.15,13,13,0,0,0-4.82-10.53q-4.83-4-12.79-4a26.7,26.7,0,0,0-7.35,1A21,21,0,0,0,28.38,24a20.51,20.51,0,0,0-8.9,17.11q0,8.13,5.51,13t14.8,4.82A27.53,27.53,0,0,0,56,53.68l3.18,4.43a33.42,33.42,0,0,1-9.45,5,33.18,33.18,0,0,1-10.53,1.63,31.3,31.3,0,0,1-9.82-1.51,25.28,25.28,0,0,1-8.12-4.32,21.12,21.12,0,0,1-6.17-7.71,23.51,23.51,0,0,1-2-10,27.41,27.41,0,0,1,1.53-9.2,25.12,25.12,0,0,1,4.52-7.86,27.7,27.7,0,0,1,10-7.51,31.08,31.08,0,0,1,12.76-2.61q10.67,0,17.3,5.7A18.48,18.48,0,0,1,65.78,34.5a20.06,20.06,0,0,1-1.88,8.69,18.25,18.25,0,0,1-5.42,6.71,14.49,14.49,0,0,1-4.24,2.32,14.74,14.74,0,0,1-4.83.8A8.35,8.35,0,0,1,44.81,52,4.19,4.19,0,0,1,43,48.79,10.59,10.59,0,0,1,39.45,52,9.51,9.51,0,0,1,35,53q-4.72,0-7.11-2.44t-2.4-7.24a16.69,16.69,0,0,1,4-11.37,12.54,12.54,0,0,1,9.86-4.55,8.08,8.08,0,0,1,3.6.77A6.1,6.1,0,0,1,45.41,30.44ZM42.23,42l1.3-5.39a4.81,4.81,0,0,0-1.17-2.88,3.24,3.24,0,0,0-2.51-1q-2.62,0-4.62,3.22a14.22,14.22,0,0,0-2,7.59,4.91,4.91,0,0,0,.85,3.08,2.82,2.82,0,0,0,2.39,1.09A5,5,0,0,0,40,46.1,8.29,8.29,0,0,0,42.23,42Z"/></g></g></svg>