<svg xmlns="http://www.w3.org/2000/svg" viewBox="0 0 54.7 65.92"><defs><style>.cls-1{fill:#fff;}</style></defs><g id="Layer_2" data-name="Layer 2"><g id="on_click" data-name="on click"><path class="cls-1" d="M27.35,63.92A25.38,25.38,0,0,1,2,38.57V27.35a25.35,25.35,0,0,1,50.7,0V38.57A25.38,25.38,0,0,1,27.35,63.92Z"/><path d="M27.35,4A23.38,23.38,0,0,1,50.7,27.35V38.57a23.35,23.35,0,0,1-46.7,0V27.35A23.38,23.38,0,0,1,27.35,4m0-4h0A27.36,27.36,0,0,0,0,27.35V38.57A27.36,27.36,0,0,0,27.35,65.92h0A27.35,27.35,0,0,0,54.7,38.57V27.35A27.35,27.35,0,0,0,27.35,0Z"/><polygon points="30.28 45.38 35.26 45.38 37.77 33.82 32.78 33.82 30.28 45.38"/><polygon points="33.87 28.84 38.85 28.84 40.65 20.54 35.67 20.54 33.87 28.84"/><polygon points="35.67 20.54 36.75 15.56 25.51 15.56 24.43 20.54 35.67 20.54"/><polygon points="25.51 15.56 20.53 15.56 19.45 20.54 24.43 20.54 25.51 15.56"/><polygon points="36.75 15.56 35.67 20.54 40.65 20.54 41.73 15.56 36.75 15.56"/><polygon points="32.78 33.82 37.77 33.82 38.85 28.84 33.87 28.84 32.78 33.82"/><polygon points="29.2 50.36 34.18 50.36 35.26 45.38 30.28 45.38 29.2 50.36"/></g></g></svg>