<?xml version="1.0" encoding="UTF-8"?>
<svg id="Layer_2" data-name="Layer 2" xmlns="http://www.w3.org/2000/svg" xmlns:xlink="http://www.w3.org/1999/xlink" viewBox="0 0 100.96 100.96">
  <defs>
    <style>
      .cls-1 {
        fill: #7dff39;
      }

      .cls-1, .cls-2 {
        stroke-width: 0px;
      }

      .cls-2 {
        fill: url(#New_Gradient_Swatch_copy);
      }
    </style>
    <linearGradient id="New_Gradient_Swatch_copy" data-name="New Gradient Swatch copy" x1="50.48" y1="98.96" x2="50.48" y2="2" gradientUnits="userSpaceOnUse">
      <stop offset="0" stop-color="#7dff39"/>
      <stop offset=".05" stop-color="#6ddf31"/>
      <stop offset=".16" stop-color="#54ab26"/>
      <stop offset=".26" stop-color="#3d7d1c"/>
      <stop offset=".37" stop-color="#2a5713"/>
      <stop offset=".48" stop-color="#1b370c"/>
      <stop offset=".59" stop-color="#0f1e06"/>
      <stop offset=".72" stop-color="#060d03"/>
      <stop offset=".84" stop-color="#010300"/>
      <stop offset="1" stop-color="#000"/>
    </linearGradient>
  </defs>
  <g id="default">
    <g>
      <rect class="cls-2" x="2" y="2" width="96.96" height="96.96"/>
      <path class="cls-1" d="M96.96,4v92.96H4V4h92.96M100.96,0H0v100.96h100.96V0h0Z"/>
    </g>
    <g>
      <polygon class="cls-1" points="41.01 18.56 41.01 18.56 6.07 34.81 21.03 66.99 6.07 34.81 41.01 18.56"/>
      <polygon class="cls-1" points="34.02 94.95 21.03 66.99 34.02 94.95 61.66 82.1 61.66 82.1 34.02 94.95"/>
      <polygon class="cls-1" points="61.66 82.1 55.69 82.1 35.24 91.6 9.41 36.03 41.01 21.34 41.01 18.56 6.07 34.81 21.03 66.99 34.02 94.95 61.66 82.1"/>
      <polygon class="cls-1" points="27.8 69.9 41.01 63.76 41.01 46.01 21.01 55.3 27.8 69.9"/>
      <polygon class="cls-1" points="33.03 28.6 39.82 43.2 41.01 42.64 41.01 24.88 33.03 28.6"/>
      <polygon class="cls-1" points="35.87 87.27 47.01 82.1 41.01 82.1 41.01 67.13 29.08 72.67 35.87 87.27"/>
      <rect class="cls-1" x="15.45" y="33.2" width="18.93" height="16.1" transform="translate(-15.06 14.34) rotate(-24.93)"/>
      <path class="cls-1" d="M89.34,13.88v62.32h-42.97V13.88h42.97M91.34,11.88h-46.97v66.32h46.97V11.88h0Z"/>
      <rect class="cls-1" x="49.28" y="17.61" width="18.83" height="16.1"/>
      <rect class="cls-1" x="49.28" y="37.57" width="18.83" height="34.45"/>
      <rect class="cls-1" x="71.29" y="54.79" width="15.1" height="17.23"/>
      <rect class="cls-1" x="71.29" y="17.61" width="15.1" height="32.98"/>
    </g>
  </g>
</svg>