<svg xmlns="http://www.w3.org/2000/svg" xmlns:xlink="http://www.w3.org/1999/xlink" viewBox="0 0 78.81 78.81"><defs><style>.cls-1{fill:url(#linear-gradient);}.cls-2{fill:#1aff87;}</style><linearGradient id="linear-gradient" x1="39.41" y1="77.81" x2="39.41" y2="1" gradientUnits="userSpaceOnUse"><stop offset="0" stop-color="#17ff8b"/><stop offset="0.02" stop-color="#14e07a"/><stop offset="0.06" stop-color="#0fac5e"/><stop offset="0.1" stop-color="#0b7e45"/><stop offset="0.14" stop-color="#08572f"/><stop offset="0.18" stop-color="#05371e"/><stop offset="0.23" stop-color="#031f11"/><stop offset="0.27" stop-color="#010e07"/><stop offset="0.32" stop-color="#000302"/><stop offset="0.38"/></linearGradient></defs><g id="Layer_2" data-name="Layer 2"><g id="default"><path class="cls-1" d="M1,77.81V35.15A34.19,34.19,0,0,1,35.15,1H77.81V43.67A34.17,34.17,0,0,1,43.67,77.81Z"/><path class="cls-2" d="M76.81,2V43.67A33.18,33.18,0,0,1,43.67,76.81H2V35.15A33.19,33.19,0,0,1,35.15,2H76.81m2-2H35.15A35.15,35.15,0,0,0,0,35.15V78.81H43.67A35.14,35.14,0,0,0,78.81,43.67V0Z"/><path class="cls-2" d="M31.27,66.76q-2.44-2.49-2.45-7.47a29,29,0,0,1,.67-5.4l5.64-26.64H47.08l-6,28.22a10.29,10.29,0,0,0-.33,2.65,3,3,0,0,0,.79,2.37,3.87,3.87,0,0,0,2.61.7,6.75,6.75,0,0,0,2.66-.49,8.88,8.88,0,0,1-3,6.35,9.34,9.34,0,0,1-6.18,2.2A8.63,8.63,0,0,1,31.27,66.76Zm7.43-45.9a6.36,6.36,0,0,1-1.91-4.65,6.47,6.47,0,0,1,1.91-4.69,6.25,6.25,0,0,1,4.65-1.95A6.66,6.66,0,0,1,50,16.21a6.28,6.28,0,0,1-2,4.65,6.47,6.47,0,0,1-4.69,1.91A6.33,6.33,0,0,1,38.7,20.86Z"/></g></g></svg>