<svg xmlns="http://www.w3.org/2000/svg" viewBox="0 0 78.81 78.81"><defs><style>.cls-1{fill:#fff;}</style></defs><g id="Layer_2" data-name="Layer 2"><g id="on_click" data-name="on click"><path class="cls-1" d="M39.41,76.81a37.41,37.41,0,1,1,37.4-37.4A37.45,37.45,0,0,1,39.41,76.81Z"/><path d="M39.41,4A35.41,35.41,0,1,1,4,39.41,35.44,35.44,0,0,1,39.41,4m0-4h0A39.4,39.4,0,0,0,0,39.41H0a39.4,39.4,0,0,0,39.41,39.4h0a39.4,39.4,0,0,0,39.4-39.4h0A39.4,39.4,0,0,0,39.41,0Z"/><path d="M46.11,29.38l1.51-2.53H55.1L50.28,46.22l-.09.57a2.38,2.38,0,0,0,0,.36,1.53,1.53,0,0,0,.38,1.12,1.45,1.45,0,0,0,1.07.39c2.64,0,5-1.46,7.14-4.39a16.94,16.94,0,0,0,3.18-10.22,14.56,14.56,0,0,0-5.39-11.77q-5.4-4.49-14.29-4.48A29.8,29.8,0,0,0,34,18.89a23.72,23.72,0,0,0-7,3.26,23,23,0,0,0-9.95,19.13q0,9.07,6.17,14.47t16.54,5.39a30.67,30.67,0,0,0,18.1-5.78l3.55,5A37.39,37.39,0,0,1,50.93,65.9a37.34,37.34,0,0,1-11.77,1.82,35.23,35.23,0,0,1-11-1.68,28.64,28.64,0,0,1-9.08-4.84,23.73,23.73,0,0,1-6.89-8.62A26.22,26.22,0,0,1,9.94,41.46a30.57,30.57,0,0,1,1.71-10.27,28.18,28.18,0,0,1,5-8.79A30.83,30.83,0,0,1,27.87,14a34.77,34.77,0,0,1,14.26-2.92q11.91,0,19.33,6.37a20.66,20.66,0,0,1,7.42,16.46,22.41,22.41,0,0,1-2.1,9.72,20.43,20.43,0,0,1-6.06,7.49,16.15,16.15,0,0,1-10.13,3.49,9.33,9.33,0,0,1-5.14-1.17,4.67,4.67,0,0,1-2.06-3.56,11.93,11.93,0,0,1-3.94,3.56,10.59,10.59,0,0,1-5,1.11q-5.28,0-7.95-2.72t-2.67-8.09A18.64,18.64,0,0,1,28.27,31a14,14,0,0,1,11-5.09,9,9,0,0,1,4,.87A6.81,6.81,0,0,1,46.11,29.38ZM42.56,42.26l1.45-6A5.39,5.39,0,0,0,42.71,33a3.68,3.68,0,0,0-2.81-1.16c-2,0-3.67,1.2-5.16,3.6a15.84,15.84,0,0,0-2.22,8.48,5.53,5.53,0,0,0,.94,3.45,3.19,3.19,0,0,0,2.67,1.22,5.56,5.56,0,0,0,4-1.72A9.25,9.25,0,0,0,42.56,42.26Z"/></g></g></svg>