<svg xmlns="http://www.w3.org/2000/svg" xmlns:xlink="http://www.w3.org/1999/xlink" viewBox="0 0 151.67 65.92"><defs><style>.cls-1{fill:url(#linear-gradient);}.cls-2,.cls-3{fill:#ff5039;}.cls-3{stroke:#ff5039;stroke-miterlimit:10;stroke-width:2px;}</style><linearGradient id="linear-gradient" x1="75.83" y1="63.92" x2="75.83" y2="2" gradientUnits="userSpaceOnUse"><stop offset="0" stop-color="#ff5039"/><stop offset="0.04" stop-color="#d64330"/><stop offset="0.1" stop-color="#aa3526"/><stop offset="0.16" stop-color="#81281d"/><stop offset="0.23" stop-color="#5e1d15"/><stop offset="0.3" stop-color="#41140e"/><stop offset="0.37" stop-color="#290d09"/><stop offset="0.46" stop-color="#160705"/><stop offset="0.57" stop-color="#0a0302"/><stop offset="0.71" stop-color="#020100"/><stop offset="1"/></linearGradient></defs><g id="Layer_2" data-name="Layer 2"><g id="on_mouse_over" data-name="on mouse over"><rect class="cls-1" x="2" y="2" width="147.67" height="61.92" rx="25.35"/><path class="cls-2" d="M124.31,4a23.39,23.39,0,0,1,23.36,23.35V38.57a23.39,23.39,0,0,1-23.36,23.35h-97A23.38,23.38,0,0,1,4,38.57V27.35A23.38,23.38,0,0,1,27.35,4h97m0-4h-97A27.36,27.36,0,0,0,0,27.35V38.57A27.36,27.36,0,0,0,27.35,65.92h97a27.36,27.36,0,0,0,27.36-27.35V27.35A27.36,27.36,0,0,0,124.31,0Z"/><rect class="cls-3" x="37.04" y="31.33" width="77.59" height="3.26"/><polygon class="cls-3" points="27.31 32.96 40.87 40.79 40.87 25.13 27.31 32.96"/></g></g></svg>