<svg xmlns="http://www.w3.org/2000/svg" xmlns:xlink="http://www.w3.org/1999/xlink" viewBox="0 0 170.28 170.28"><defs><style>.cls-1{fill:url(#linear-gradient);}.cls-2{fill:#1aff87;}.cls-3{fill:none;stroke:#1aff87;stroke-miterlimit:10;stroke-width:25px;}</style><linearGradient id="linear-gradient" x1="85.14" y1="169.28" x2="85.14" y2="1" gradientUnits="userSpaceOnUse"><stop offset="0" stop-color="#17ff8b"/><stop offset="0.02" stop-color="#14e07a"/><stop offset="0.06" stop-color="#0fac5e"/><stop offset="0.11" stop-color="#0b7e45"/><stop offset="0.15" stop-color="#08572f"/><stop offset="0.19" stop-color="#05371e"/><stop offset="0.24" stop-color="#031f11"/><stop offset="0.29" stop-color="#010e07"/><stop offset="0.34" stop-color="#000302"/><stop offset="0.4"/></linearGradient></defs><g id="Layer_2" data-name="Layer 2"><g id="default"><rect class="cls-1" x="1" y="1" width="168.28" height="168.28" rx="23.59"/><path class="cls-2" d="M145.69,2a22.61,22.61,0,0,1,22.59,22.59v121.1a22.61,22.61,0,0,1-22.59,22.59H24.59A22.61,22.61,0,0,1,2,145.69V24.59A22.61,22.61,0,0,1,24.59,2h121.1m0-2H24.59A24.59,24.59,0,0,0,0,24.59v121.1a24.59,24.59,0,0,0,24.59,24.59h121.1a24.59,24.59,0,0,0,24.59-24.59V24.59A24.59,24.59,0,0,0,145.69,0Z"/><path class="cls-3" d="M105.32,83.14H46.5l-5.68,56.31H99.65c11.68,0,22.11-9.47,23.29-21.15l1.41-14C125.52,92.61,117,83.14,105.32,83.14Z"/><path class="cls-3" d="M111,26.83H52.17L46.5,83.14h58.82c11.69,0,22.11-9.47,23.29-21.16L130,48C131.2,36.3,122.68,26.83,111,26.83Z"/></g></g></svg>