<svg xmlns="http://www.w3.org/2000/svg" xmlns:xlink="http://www.w3.org/1999/xlink" viewBox="0 0 118.63 159.49"><defs><style>.cls-1{fill:url(#linear-gradient);}.cls-2{fill:#1aff87;}.cls-3{fill:url(#linear-gradient-2);}.cls-4{fill:none;stroke:#1aff87;stroke-miterlimit:10;stroke-width:6px;}</style><linearGradient id="linear-gradient" x1="87.97" y1="50.79" x2="87.97" y2="20.26" gradientTransform="matrix(0, 1, -1, 0, 127.77, -20.36)" gradientUnits="userSpaceOnUse"><stop offset="0" stop-color="#17ff8b"/><stop offset="0.04" stop-color="#14e07a"/><stop offset="0.11" stop-color="#0fac5e"/><stop offset="0.19" stop-color="#0b7e45"/><stop offset="0.27" stop-color="#08572f"/><stop offset="0.35" stop-color="#05371e"/><stop offset="0.43" stop-color="#031f11"/><stop offset="0.52" stop-color="#010e07"/><stop offset="0.61" stop-color="#000302"/><stop offset="0.73"/></linearGradient><linearGradient id="linear-gradient-2" x1="51.38" y1="156.99" x2="51.38" y2="59.24" gradientTransform="matrix(1, 0, 0, 1, 0, 0)" xlink:href="#linear-gradient"/></defs><g id="Layer_2" data-name="Layer 2"><g id="default"><rect class="cls-1" x="76.98" y="52.35" width="30.53" height="30.53" transform="translate(-20.79 85.03) rotate(-45)"/><path class="cls-2" d="M92.25,49.56l18,18-18,18.06-18-18.06,18-18m0-7.07L67.12,67.61,92.25,92.74l25.13-25.13L92.25,42.49Z"/><circle class="cls-3" cx="51.38" cy="108.11" r="48.87"/><path class="cls-2" d="M51.38,61.74A46.38,46.38,0,1,1,5,108.11,46.42,46.42,0,0,1,51.38,61.74m0-5h0A51.37,51.37,0,0,0,0,108.11H0a51.37,51.37,0,0,0,51.37,51.38h0a51.37,51.37,0,0,0,51.37-51.38h0A51.37,51.37,0,0,0,51.38,56.74Z"/><path class="cls-4" d="M108.34,52.5l0,0a24.72,24.72,0,0,0,0-35h0a24.73,24.73,0,0,0-35,0l-9.58,9.58a20.59,20.59,0,0,1-29.13,0h0a20.6,20.6,0,0,1-6-14.56V0"/></g></g></svg>