<svg xmlns="http://www.w3.org/2000/svg" xmlns:xlink="http://www.w3.org/1999/xlink" viewBox="0 0 49.03 49.03"><defs><style>.cls-1{fill:url(#linear-gradient);}.cls-2{fill:#7dff39;}</style><linearGradient id="linear-gradient" x1="24.52" y1="48.03" x2="24.52" y2="1" gradientUnits="userSpaceOnUse"><stop offset="0" stop-color="#7dff39"/><stop offset="0.05" stop-color="#6ee032"/><stop offset="0.16" stop-color="#54ac26"/><stop offset="0.26" stop-color="#3e7e1c"/><stop offset="0.37" stop-color="#2b5713"/><stop offset="0.48" stop-color="#1b370c"/><stop offset="0.59" stop-color="#0f1f07"/><stop offset="0.72" stop-color="#070e03"/><stop offset="0.84" stop-color="#020301"/><stop offset="1"/></linearGradient></defs><g id="Layer_2" data-name="Layer 2"><g id="on_mouse_over" data-name="on mouse over"><path class="cls-1" d="M24.52,48A23.52,23.52,0,1,1,48,24.52,23.54,23.54,0,0,1,24.52,48Z"/><path class="cls-2" d="M24.52,2A22.52,22.52,0,1,1,2,24.52,22.54,22.54,0,0,1,24.52,2m0-2A24.52,24.52,0,1,0,49,24.52,24.52,24.52,0,0,0,24.52,0Z"/><path class="cls-2" d="M21.14,23.94a4.23,4.23,0,0,1,.56-1.3,4.59,4.59,0,0,1,1-1.05,7.54,7.54,0,0,1,1.43-.87l5.83-2.81v-4.7H19.1V17.3H14.57V13.21A4.48,4.48,0,0,1,15.89,10a5,5,0,0,1,1.45-1,4.36,4.36,0,0,1,1.76-.36H29.94a4.35,4.35,0,0,1,1.75.36,5,5,0,0,1,1.45,1,4.48,4.48,0,0,1,1.32,3.19V17.1a6.83,6.83,0,0,1-.18,1.65,4.09,4.09,0,0,1-.55,1.32,4.22,4.22,0,0,1-1,1.05A9.57,9.57,0,0,1,31.3,22l-5.85,2.78V28.6H21v-3A6.48,6.48,0,0,1,21.14,23.94ZM20,33.74h6.61v6.6H20Z"/></g></g></svg>