<svg xmlns="http://www.w3.org/2000/svg" xmlns:xlink="http://www.w3.org/1999/xlink" viewBox="0 0 227.77 32.91"><defs><style>.cls-1{fill:url(#linear-gradient);}.cls-2{fill:#1aff87;}</style><linearGradient id="linear-gradient" x1="113.89" y1="31.91" x2="113.89" y2="1" gradientUnits="userSpaceOnUse"><stop offset="0" stop-color="#17ff8b"/><stop offset="0.01" stop-color="#16f686"/><stop offset="0.03" stop-color="#12c86d"/><stop offset="0.07" stop-color="#0e9d55"/><stop offset="0.1" stop-color="#0b7741"/><stop offset="0.14" stop-color="#08572f"/><stop offset="0.18" stop-color="#053b20"/><stop offset="0.23" stop-color="#032514"/><stop offset="0.29" stop-color="#02140b"/><stop offset="0.36" stop-color="#010905"/><stop offset="0.46" stop-color="#000201"/><stop offset="0.73"/></linearGradient></defs><g id="Layer_2" data-name="Layer 2"><g id="Layer_8" data-name="Layer 8"><path class="cls-1" d="M15.06,31.91A14.08,14.08,0,0,1,1,17.85V15.06A14.08,14.08,0,0,1,15.06,1H226.77V31.91Z"/><path class="cls-2" d="M225.77,2V30.91H15.06A13.08,13.08,0,0,1,2,17.85V15.06A13.08,13.08,0,0,1,15.06,2H225.77m2-2H15.06A15.06,15.06,0,0,0,0,15.06v2.79A15.06,15.06,0,0,0,15.06,32.91H227.77V0Z"/><path class="cls-2" d="M14.7,17.61a2.09,2.09,0,0,1-.89-.19,2.29,2.29,0,0,1-.73-.49,2.18,2.18,0,0,1-.49-.73,2.21,2.21,0,0,1-.18-.89V10.72a2.25,2.25,0,0,1,.18-.89,2.29,2.29,0,0,1,.49-.73,2.46,2.46,0,0,1,.73-.49,2.09,2.09,0,0,1,.89-.19h7.8a2.09,2.09,0,0,1,.89.19,2.34,2.34,0,0,1,.73.49,2.31,2.31,0,0,1,.5.73,2.25,2.25,0,0,1,.18.89v2.07H22.5V10.72H14.7v4.59h7.8a2.25,2.25,0,0,1,.89.18,2.31,2.31,0,0,1,1.23,1.23,2.21,2.21,0,0,1,.18.89v4.58a2.25,2.25,0,0,1-.18.89,2.31,2.31,0,0,1-.5.73,2.21,2.21,0,0,1-.73.5,2.25,2.25,0,0,1-.89.18h-8a2.25,2.25,0,0,1-.89-.18,2.21,2.21,0,0,1-.73-.5,2.31,2.31,0,0,1-.5-.73,2.25,2.25,0,0,1-.18-.89V20.13h2.3v2.06h8V17.61Z"/><path class="cls-2" d="M28.93,8.42H40.64v2.3H31.23v4.59h8v2.3h-8v4.58h9.41v2.3H28.93Z"/><path class="cls-2" d="M46.37,8.42V22.19h8.26v2.3H44.08V8.42Z"/><path class="cls-2" d="M57.38,8.42H69.09v2.3H59.68v4.59h8v2.3h-8v4.58h9.41v2.3H57.38Z"/><path class="cls-2" d="M72.53,10.72a2.25,2.25,0,0,1,.18-.89,2.29,2.29,0,0,1,.49-.73,2.46,2.46,0,0,1,.73-.49,2.09,2.09,0,0,1,.89-.19h8.72a2.09,2.09,0,0,1,.89.19,2.46,2.46,0,0,1,.73.49,2.31,2.31,0,0,1,.5.73,2.24,2.24,0,0,1,.17.89v2.07H83.54V10.72H74.82V22.19h8.72V20.13h2.29v2.06a2.24,2.24,0,0,1-.17.89,2.41,2.41,0,0,1-1.23,1.23,2.25,2.25,0,0,1-.89.18H74.82a2.25,2.25,0,0,1-.89-.18,2.31,2.31,0,0,1-.73-.5,2.29,2.29,0,0,1-.49-.73,2.25,2.25,0,0,1-.18-.89Z"/><path class="cls-2" d="M88.13,8.42H101v2.3H95.7V24.49H93.41V10.72H88.13Z"/><path class="cls-2" d="M110.61,10.72a2.25,2.25,0,0,1,.18-.89,2.46,2.46,0,0,1,.49-.73,2.51,2.51,0,0,1,.74-.49,2.06,2.06,0,0,1,.89-.19h8.71a2.06,2.06,0,0,1,.89.19,2.51,2.51,0,0,1,.74.49,2.29,2.29,0,0,1,.49.73,2.25,2.25,0,0,1,.18.89v2.07h-2.3V10.72h-8.71V22.19h8.71V20.13h2.3v2.06a2.25,2.25,0,0,1-.18.89,2.29,2.29,0,0,1-.49.73,2.36,2.36,0,0,1-.74.5,2.21,2.21,0,0,1-.89.18h-8.71a2.21,2.21,0,0,1-.89-.18,2.36,2.36,0,0,1-.74-.5,2.46,2.46,0,0,1-.49-.73,2.25,2.25,0,0,1-.18-.89Z"/><path class="cls-2" d="M141.38,8.42V24.49h-2.29V17.61h-9.2v6.88h-2.3V8.42h2.3v6.89h9.2V8.42Z"/><path class="cls-2" d="M152.62,8.42l6.19,16.07h-2.29l-1.43-3.7h-7.24l-1.43,3.7h-2.29l6.19-16.07Zm-3.9,10.07h5.49l-2.73-7.08Z"/><path class="cls-2" d="M161.57,24.49V8.42h8.79c2.6,0,3.9,1.31,3.9,3.91v2.29c0,2.6-1.3,3.91-3.9,3.91h-6.49v6Zm2.3-8.26h6.37a1.81,1.81,0,0,0,1.32-.4,1.81,1.81,0,0,0,.4-1.32V12.44a1.81,1.81,0,0,0-.4-1.32,1.81,1.81,0,0,0-1.32-.4h-6.37Z"/><path class="cls-2" d="M176.09,8.42h12.84v2.3h-5.27V24.49h-2.3V10.72h-5.27Z"/><path class="cls-2" d="M191.69,8.42H203.4v2.3H194v4.59h8v2.3h-8v4.58h9.41v2.3H191.69Z"/><path class="cls-2" d="M219.53,14.16q0,3.36-2.87,3.83l3,6.5h-2.54l-3-6.42h-5v6.42h-2.3V8.42h8.8c2.6,0,3.9,1.31,3.9,3.91Zm-10.4,1.61h6.37a1.82,1.82,0,0,0,1.33-.4,1.81,1.81,0,0,0,.4-1.32V12.44a1.81,1.81,0,0,0-.4-1.32,1.82,1.82,0,0,0-1.33-.4h-6.37Z"/></g></g></svg>