<svg xmlns="http://www.w3.org/2000/svg" viewBox="0 0 668.83 87.43"><defs><style>.cls-1{fill:#fff;}</style></defs><g id="Layer_2" data-name="Layer 2"><g id="default"><polygon class="cls-1" points="0 14.22 0 36.94 18.47 50.34 18.47 14.22 49.68 14.22 49.68 0 0 0 0 14.22"/><polygon class="cls-1" points="260.01 0 260.01 14.22 291.23 14.22 291.23 50.34 309.7 36.94 309.7 14.22 309.7 0 260.01 0"/><polygon class="cls-1" points="31.21 73.22 0 73.22 0 87.43 49.68 87.43 49.68 73.22 49.68 31.43 31.21 31.43 31.21 73.22"/><polygon class="cls-1" points="359.13 14.22 359.13 36.94 377.6 50.34 377.6 14.22 408.82 14.22 408.82 0 359.13 0 359.13 14.22"/><polygon class="cls-1" points="390.35 73.22 359.13 73.22 359.13 87.43 408.82 87.43 408.82 73.22 408.82 31.43 390.35 31.43 390.35 73.22"/><polygon class="cls-1" points="309.7 86.45 309.7 63.74 291.23 50.34 291.23 86.45 309.7 86.45"/><polygon class="cls-1" points="544.79 50.83 544.79 36.61 526 36.61 526 0 507.53 0 507.53 36.61 507.53 50.83 507.53 87.43 526 87.43 526 50.83 544.79 50.83"/><polygon class="cls-1" points="600.68 50.83 600.68 36.61 582.05 36.61 582.05 0 563.58 0 563.58 36.61 563.42 36.61 563.42 50.83 563.58 50.83 563.58 87.43 582.05 87.43 582.05 50.83 600.68 50.83"/><polygon class="cls-1" points="117.67 73.22 117.67 0 99.2 0 99.2 73.22 92.83 73.22 92.83 87.43 99.2 87.43 117.67 87.43 117.67 73.22"/><polygon class="cls-1" points="470.76 57.2 461.36 46.47 461.36 76.7 470.76 87.43 489.22 87.43 489.22 0 470.76 0 470.76 57.2"/><polygon class="cls-1" points="86.45 14.22 92.83 14.22 92.83 0 86.45 0 67.99 0 67.99 14.22 67.99 87.43 86.45 87.43 86.45 14.22"/><polygon class="cls-1" points="445.59 0 427.12 0 427.12 87.43 445.59 87.43 454.99 76.7 454.99 46.47 445.59 57.2 445.59 0"/><polygon class="cls-1" points="216.87 50.34 216.87 64.55 223.24 64.55 223.24 87.43 241.71 87.43 241.71 64.55 241.71 50.34 241.71 0 223.24 0 223.24 50.34 216.87 50.34"/><polygon class="cls-1" points="210.5 14.22 216.87 14.22 216.87 0 210.5 0 192.03 0 192.03 87.43 210.5 87.43 210.5 14.22"/><rect class="cls-1" x="260.02" y="20.59" width="18.47" height="66.84"/><polygon class="cls-1" points="619.15 14.22 650.37 14.22 650.37 50.34 668.83 36.94 668.83 14.22 668.83 0 619.15 0 619.15 14.22"/><rect class="cls-1" x="619.15" y="20.59" width="18.47" height="66.84"/><polygon class="cls-1" points="173.24 73.22 160.81 73.22 160.81 87.43 185.66 87.43 173.24 73.22"/><polygon class="cls-1" points="532.37 73.22 532.37 87.43 557.21 87.43 544.79 73.22 532.37 73.22"/><polygon class="cls-1" points="532.37 14.22 544.79 14.22 557.21 0 532.37 0 532.37 14.22"/><polygon class="cls-1" points="588.43 73.22 588.43 87.43 613.27 87.43 600.85 73.22 588.43 73.22"/><polygon class="cls-1" points="588.43 14.22 600.85 14.22 613.27 0 588.43 0 588.43 14.22"/><rect class="cls-1" x="135.97" width="18.47" height="87.43"/></g></g></svg>