<svg xmlns="http://www.w3.org/2000/svg" viewBox="0 0 261.78 261.78"><defs><style>.cls-1{fill:#1aff87;}.cls-2{fill:none;stroke:#000;stroke-miterlimit:10;stroke-width:6px;}</style></defs><g id="Layer_2" data-name="Layer 2"><g id="Layer_8" data-name="Layer 8"><rect class="cls-1" x="40.44" y="40.44" width="180.91" height="180.91" rx="17.77" transform="translate(-54.22 130.89) rotate(-45)"/><path class="cls-1" d="M254.64,113.65,148.13,7.14a24.38,24.38,0,0,0-34.48,0L7.14,113.65a24.38,24.38,0,0,0,0,34.48L113.65,254.64a24.38,24.38,0,0,0,34.48,0L254.64,148.13A24.38,24.38,0,0,0,254.64,113.65ZM145,251.52a20,20,0,0,1-28.24,0L10.26,145a20,20,0,0,1,0-28.24L116.77,10.26a20,20,0,0,1,28.24,0L251.52,116.77a20,20,0,0,1,0,28.24Z"/><path d="M178.19,137.22h0a9.29,9.29,0,0,0-8.12,4.77L149,179.9h58.34L186.31,142A9.29,9.29,0,0,0,178.19,137.22Z"/><line class="cls-2" x1="177.11" y1="158.56" x2="37.86" y2="101.17"/><circle cx="123.38" cy="80.48" r="13.88"/><path d="M147.13,135.89a62.11,62.11,0,0,0-17.34-30,22.84,22.84,0,0,0-7.31-4.72l-17.45-7a18.65,18.65,0,0,0-7.45-1.39,43.7,43.7,0,0,0-33.82,17.37l-1,1.29L76.18,117l1.6-2.31a20.79,20.79,0,0,1,20.08-8.75l-4.51,10.75,28.26,12.06,2.83-11.48a33.47,33.47,0,0,1,10.86,17.62l1.74,7.2L150,147.37Z"/><path d="M119.9,141.4h0a96.82,96.82,0,0,1,13.76,37.2l.2,1.3H118.29A53.69,53.69,0,0,0,103,149.56l-.29-.29L96,179.9H76.74l12.83-50.52Z"/></g></g></svg>