<svg xmlns="http://www.w3.org/2000/svg" viewBox="0 0 443.5 443.5"><defs><style>.cls-1{stroke:#1aff87;stroke-miterlimit:10;}.cls-2{fill:#1aff87;}</style></defs><g id="Layer_2" data-name="Layer 2"><g id="Layer_2-2" data-name="Layer 2"><circle class="cls-1" cx="221.75" cy="221.75" r="221.25"/><path d="M439.18,189.77c3.88,64.91-5.81,107.89-30.43,146.24-44,68.57-107.37,104.3-189.21,104.35-54.45,0-102.7-18.9-143-55.37-48.87-44.17-73.6-99.88-73-166C4,164.66,22.5,116.55,58.86,76.24c44.2-49,100.07-73.35,166.13-73.1,40,.15,77.67,10.54,111.44,32C400,75.56,434.36,134,439.18,189.77ZM146.59,380.41c.42-.09.59-.34.29-.68s-.43-.09-.53.2l-.54.09c-1.27-3.39.64-6.35,1.27-9.49.55-2.73,1.35-5.54-1.25-8.33.2,1.75,1,3.58-1.1,3.87-2,.27-1.61-1.75-2-2.79-.51-1.44-.44-1.47-1.94-.58-2.32,1.36-5.27.81-8,.78A6,6,0,0,1,127,360c-1.29.43-1.72,1.7-3.49,1.89-2.23.24-3.19-1.52-5-1.85a4.48,4.48,0,0,1-3-5.27,14.84,14.84,0,0,0,.06-2.91c1-2.19.59-4.43.4-6.56-2.77,2.06-1.37,4.34-.35,6.61-2.19,1.28-2.81,3.78-4.27,5.63-.44.55-.58,1.18-1.49,1.1-3.24-.3-3.24-.28-4.66,2.92a29.81,29.81,0,0,1,16,.85c.69.21,1.5.23,1.78.88.69,1.61,2.18,2.16,3.53,2.84a14.83,14.83,0,0,1,8.66,12.17c.17,1.47,1,1.12,1.82,1.17,3,.16,6-.42,8.86.53C145.89,380.46,146.18,380.54,146.59,380.41Zm149.66-14.86c.52.11.66-.34.93-.6,1.16-.09,1.56.18.9,1.39-.87,1.57-1.42,3.32-2.36,4.84-.59,1-.57,1.58.2,2.28,2.4,2.2,3.68,5.21,5.69,7.71a6.82,6.82,0,0,0,9.57.79c2.05-1.76,2.71-4.73,5-6,4.37-2.41,4-6.61,3.73-10.21a13,13,0,0,0-6.59-10.71c-3.73-2.2-4.85-2.53-8,.28a17.8,17.8,0,0,1-5.77,3.31c-.59.22-1.48.27-1.44.88.13,1.83-1.27,3.22-1.26,5-.58.17-.46.66-.5,1.08-.42.15-.74.38-.62.89,0,.06.16.13.22.11C296.48,366.4,296.27,365.94,296.25,365.55Zm-264.72-43c0-.42.16-1-.52-1.07-1.07-3.58-2.62-5.83-4.31-6,.73.92,1.41,1.76,2.07,2.61.83,1.09.59,2.89,2.29,3.39-.11.5-.27,1,.52,1.07-.23.56-.15,1,.53,1.06-.06.79-.11,1.57.93,1.78a9,9,0,0,0,.74,2.2c3.45,5.3,6.43,10.88,10.19,16,1.23,1.68,2.31,1.54,3.82,1.31,2.06-.31,3.59-.86,4.2-3.39a3.36,3.36,0,0,1,4.38-2.38c1.84.67,3.7-.16,5.61.59C60.9,339,61,337.77,60.46,337c-2.76-3.86-6.58-6.89-8.72-11.22-.26-.54-.63-.44-1-.53-4.54-1-9.15-.95-13.15,1.37-2.57,1.49-3.27.13-4.41-1.37l-1.08-1.57C32,323.24,32.23,322.67,31.53,322.57Zm232.71,49.05-.65-1.05c-.35.57-.43,1.08.26,1.47.06.41,0,.86.5,1.09a.37.37,0,0,0,.57-.24C265.08,372.28,264.64,372,264.24,371.62Zm147.46-48c-.91.65-1,1.83-1.62,2.63-.62,1-1.68,1.9-1.35,3.49.58-1.14,1.1-2.14,1.61-3.15.79-.85,1.59-1.7,1.31-3,.77-.07.88-.45.52-1.06,1.63-.16,1.27-1.49,1.84-2.86a3.75,3.75,0,0,0-1.78,2.9C411.55,322.66,411.76,323.21,411.7,323.62Zm-13.49-58.33-.65-1.05c-.35.57-.42,1.08.26,1.47l.76,2.42C399.41,267,401.09,265.85,398.21,265.29ZM292.4,372.39c.93-1.73,3-2.93,2.52-5.34-1.15,1.54-2.59,2.88-2.9,4.91-.47.17-.57.49-.34.93ZM312,417.58c1.44.69,2.34-.77,3.61-.91.77-.08.31-1,.34-1.59a.85.85,0,0,0-.77-.87c-1-.11-3.14,2.28-3.12,3.39.12,0-.13.44.24.27Zm118.8-143.42c-2.18,4.26-2.44,9-3.49,13.57a70.35,70.35,0,0,0,3.78-13.31c.31-2.51,1.75-4.86,1.17-7.49C431.73,269.34,430.51,271.61,430.81,274.16ZM86.35,277.94c3.63-.74,5-3,3.56-6.78-1.33,2.33-3.81,3.56-4,6.39-.72.51-1.44.28-2.24.15-1.65-.27-3.26-1.15-5-.61C81.22,277.72,83.63,279.34,86.35,277.94ZM282.52,428.78c5.52-.49,10.47-2.93,15.61-4.89a15.32,15.32,0,0,1-6.81-2.49c-1.42,4.43-5.11,5.79-8.82,7.48-.7.22-1.63-.48-2.13.54-1.34-.17-3.74.73-2.27-2.28.09-.18.35-.77-.26-.65-1.24.23-3.11-.91-3.36,1.62a2.41,2.41,0,0,1-2.22,2.25,31.13,31.13,0,0,0-11.93,1.54c-1,.32-2.95.23-3.31-1.64-.26-1.33,0-3.43,1.29-3.23,2.26.35,4.15-.95,6.46-.56,1.55.27,4.41.52,5.16-2.6a3.24,3.24,0,0,1,3.16-2.61c1.44-.05,2.33-3.31,1.6-4.75-1.46-2.9-2.84-5.86-4.42-8.7-2-3.54-1.1-4.85,3-6.54,4.25-1.77,8.57-1,12.81.28a2.14,2.14,0,0,0,.15-.56,1.49,1.49,0,0,0-.2-.75,14.15,14.15,0,0,0-10.24-5.42c-4.35-.31-8.36,1.05-12.53,1.81a15,15,0,0,0-7.88,4c-5.13,5-8.12,11.23-6.72,18.55.44,2.32-1.23,5.91,2.74,7.06.39.11.53,1,.81,1.56.15.28-.27.74.57.78a4,4,0,0,1,3.54,4c.11,2.86,1.82,2.12,3.16,1.93a86.86,86.86,0,0,0,9.21-1.73c3.93-1,8-1.48,11.67-3.41C281.07,429.28,282,429.93,282.52,428.78Zm-184-116.34c-1.26-1.21-3.49-2.69-2.48-4.22,1.47-2.22,4.25-1.56,6.53-.77.82-1.94-.43-2.67-1.9-3.19a5.92,5.92,0,0,0-6.31,1.11c-1.75,1.7-.08,4.28-.9,6.34,1.69.34,3.3,1.33,5.12.67.39,2.13,2.23,3.34,3.57,4.64.77.75,1.17-1.82,2.34-2.27.16-.06.33-.09.49-.16a8.65,8.65,0,0,1,7.87.16c.18-4.17-4.21-4.92-5.06-8.07a2.72,2.72,0,0,1-1.94,3c-.2.08-.83-.12-.71.68.26,1.76-.93,2.14-2.38,2.12ZM57.67,342.15c-1.86.62-5.47,4.47-5.38,5.76.39,5.77,2.66,9,6.87,9.78a.58.58,0,0,0,.93.34l-.49-.72c-1-2.18-.29-4.4.66-6.18,1.64-3.09,1.07-6.06.54-9.15-.09-.5-.52-1.05-.71-.77-.64,1-2.26-.72-2.48,1Zm130.54,84.23c-.6-.27.48-1-.3-1.17a2.6,2.6,0,0,0-1,.16l.88,1.43c.15.6-.07,1.19-.61,1.28-.78.12-1.27-.64-1.38-1.23-.17-.83-.41-1.5-1.27-1.07s-.05,1,.27,1.39.47.73.13,1.14-.64.59-1,.09c-.63-.81-1-.13-1.43.23-.74.58-1.07-.08-1.46-.54-.59-.69.76-2.67-1.09-2.24-1,.24.71,1.75.06,2.75-.1.17,0,.49.06.73.7,3.8.71,3.62,4.8,3.86,3.24.2,6.38-.4,9.89-.89-1.26,2.7-3.57,2.16-5.43,2.81a28.55,28.55,0,0,0,8.17,1.15c0,.44.32.58.7.57,4-.15,7.86.74,11.84.6,10-.34,19.93.32,29.9-.5,3.48-.29,7-1,10.5-.67a2.57,2.57,0,0,0,1.46-.48c.61-.39,1.8-.13,1.79-1.17,0-.79-.95-1-1.56-1.22-3.68-1.5-4.62-4.47-4.78-8.12-.16-3.82-.69-7.62-.64-11.5a12.74,12.74,0,0,0-1.48,3.44c-1.15,3.49-2,7.46-5.86,8.92-3.2,1.22-5.24,3.73-7.81,5.63-.85.63-2.06.87-2.57,1.64-1.74,2.66-4.14,3.19-7.1,3-4.64-.3-9.32-.38-13.94-.4-3.46,0-7,.18-10.51.32-1.72-1.31-1.66-3.28-1.73-5.08-1,0-2.07,1.59-2.48-.35s1.13-4.16-1.63-5.3c-.33-.13.43-1.34-.61-1.1-.49.12-1.46,0-1.21,1.41C190.13,427.86,189,427.09,188.21,426.38ZM200.13,432c-.16-1.54-1.6-2.58-1.61-4.2-1.28,2,.21,3.21,1.18,4.57,1.15,1.66,2.74,2.8,4.72,2.21a11.08,11.08,0,0,1,4.13-.37c4.2.3,8.38.65,12.69-.31-2.3-3.5-1-7.07,0-10.67-.67,1.54-2.06,2.59-2.18,4.4a2,2,0,0,1-2.8,1.65c-3-1.28-5.94-.62-8.93-.42-2.23.14-4.29-.95-6.58-1C201.63,429.57,200.87,430.8,200.13,432ZM103.37,319.41a16.87,16.87,0,0,0,3.4,1.09c6.57,1.42,11.31,4.53,10.92,13-.07,1.58,0,3.17,0,4.84,1-.28,1.11-.79,1.06-1.34-.33-3.14,1.38-5.6,2.51-8.31.63-1.53,3.38-2.05,2.32-4.06-.78-1.49-2.41-2.54-3.66-3.79a1.94,1.94,0,0,0-.42-.25c-.49.7-.72,2.17-1.8,1.55-.78-.44.07-1.47.64-2.05s-.08-1.08-.38-1.17a10.72,10.72,0,0,1-4-2.73c-.6-.53-1.47-.4-2.23-.55-3.67-.72-6.35.95-8.75,3.42l-.51.72A.58.58,0,0,0,103.37,319.41Zm-33.2-56.79-.72-.51a.58.58,0,0,0,.34.94c-.48.46,1.16,1.63-.18,1.45-2.26-.31-1.86,1.12-1.88,2.26,0,2,1,3.6,1.84,5.31.59,1.28,1.19,2.14,2.78,1.14.31-.2,1.52-.83,1.64-.08.28,1.93,1.6,1.55,2.77,1.57,1.79,0,3.67-.36,5.34.08,3.06.81,4.21-1.06,5.44-3.11.27-.44.63-.83.91-1.27,1.6-2.57.63-4.59-2.33-4.71a6.28,6.28,0,0,1-2.66-.94c-.45-.3-.15-1.1-.82-1.25a.78.78,0,0,1,0-.26c.48-2.81-1.69-6.61,3-7.88.14,0,.23-.65.18-1-.57-3.66-1.11-7.34-1.84-11-.14-.71-.5-2.44-1.08-2-1.19.84-3.16-.08-3.74,1.77-.61-.8-.6-2.22-2.26-1.95a16,16,0,0,0-10.21,6.16c-.63.8-1.21,1.86-.79,2.78,1.06,2.36.85,4.8.77,7.22-.06,1.64.66,2.58,2.16,3.42,0-1.14,0-2.1,0-3A6.52,6.52,0,0,1,72.26,252a5.07,5.07,0,0,1,5.57,1.2c2.73,2.52,1.9,7.25-1.66,9.74C74.12,263.7,72.1,264,70.17,262.62ZM23.58,246l-4,0c-.59,0-1,0-1.4.78-1.39,2.89-3.77,5.5-2.07,9.09a1.06,1.06,0,0,1,0,.53c-.27,2.16.79,5,2,5.21a7.84,7.84,0,0,0,6.11-1.67c.53-.47,1.21-1,.87-1.77-.74-1.73-1.13-3.15,1.4-3.67.45-.1.32-1.63,1.22-1.3s.45,1.55.65,2.36-.83,1.2-.35,1.94c4.36-.53,6.17-4.3,8.67-7,1.85-2,1.34-2.76-1.46-2.86-2.22-.08-3.75-1-3.1-3.34.89-3.27-1-3.1-3.13-3-1.19,0-2.37,0-3.8,0,2.46,3-.68,3.43-1.69,4.79Zm44.71-12.68c1.67-2,2.93-1,4,.61,1.34,1.94,3.19,3.38,5.5,3.22,1.54-.11,1.64.57,1.84,1.5.12.52-.11,1.26.81,1,1.12-.33,2.6-.12,3.08-1.5.22-.63.56-1.87-.36-2.11-3-.76-2-3.43-1.42-4.44,1.14-1.93.86-3.63.7-5.6-3.51,4.6-4.58,5.25-6.26,3.83-3-2.54-3.54-5.74-1.41-8.16,1.8-2.05,4.63-1.42,7.52,1.54,1.06-3.58.35-7.48,1.28-11.23.2-.79.19-1.62-1.08-1.57-1.5.06-3.11-.31-4.48.12-1.56.48-4.3.67-4.25,2.38.1,3.33-1.77,6.22-1.37,9.55a17.46,17.46,0,0,1-1.79,9.21c-1.74-3.18-.34-6.26-.25-9.42-1,.52-2.65.52-2.55,1.57.31,3.06-1.3,6.1,0,9.13-2.62,1.88-4.47,5-8.27,5-3.39,0-7.09,1.34-9.56-2.38-.53-.79-1.25-1.46-1.69-2.28-.29-.55-1.14-1.2-.59-1.8.74-.81,1,.66,1.67.57,1.64-3.2-2.11-3.45-2.86-5.43.54,2.25-1.29,4.53-.08,6.52,1.45,2.39,2.48,5,3.79,7.41.4.76.81,1.37,1.94,1.3,2.2-.14,4.42,0,6.63-.05,3.4-.08,6.25-1.2,7.79-4.51C67.22,235.93,67.73,234.6,68.29,233.28ZM171.91,373.59l0-.06c.54,2.16,1.14,4.31,1.56,6.5.12.62-1.09,1.5,0,2s1.42-.59,1.87-1.36a1.2,1.2,0,0,1,2-.31c.87.74.06,1.14-.28,1.73s-1.07,1.18-.68,2.05c.83.24,1.14-.43,1.53-.85.59-.64.87-.41,1.4.13s0,2.57,1.42,2.18-.24-1.82.22-2.75a3.66,3.66,0,0,0,.1-1.21c.68.89,1.23,1.62,1.78,2.36.3-1.32.42-1.3,2.05-1.05a.75.75,0,0,0,.69-1.22c-.46-.74.36-1,.39-1.58a7.15,7.15,0,0,1,1.14,1c.34.41.33.8,1.21.61s.78-.66,1-1.22-.12-1.11.6-1.39c.05,2.61,2,2.12,3.43,1.87,2-.36.6-1.7.4-2.61-.38-1.77-.75-3.15,2-3.52,1-.14,4-.28,3.12-3.31-.15-.56.33-2.67,2.33-1.9-.3-1.69-1.8-2.11-2.8-2.7-2.32-1.37-3.72-3.83-6.51-4.68-4.51-1.38-9.19-2.29-13.49-4.31a1.59,1.59,0,0,0-1.69,0C172.6,360.4,170.05,368.77,171.91,373.59Zm138.71,13.89a1.59,1.59,0,0,1,.81-1.55c.53-.29,1.54-.36.93-1.26s-1.48-.6-2,.16c-.67,1-1.75.91-2.74,1.32a4.87,4.87,0,0,1,3,1.28,34.91,34.91,0,0,1,5.65,8c.67,1.4,1.38,3.29.55,4.32-1.48,1.83.76,2.14.79,3.22.55-.22.95-.71,1.1.52a3.74,3.74,0,0,0,3,3.09c1.29.39,2.61,1.42,1.08,2.84-1.17,1.09-1.19,2.19-1.22,3.81,2.59-1.39,4.87-2.63,7.17-3.84,1.87-1,1.44-1.71,0-2.92-3-2.53-6.43-4.63-7.32-9-.69-3.44.31-7.08,2.86-8.22.12,2.29-1.46,4.4-1.29,6.45.63,7.28,5.63,9.31,12,6.9a5.38,5.38,0,0,0,3.67-4.93c.23-2.65-1.31-4.89-1.17-7.28.22-3.71-2.73-4.45-4.8-6.07-.31-.24-1.1-.26-1.11-.42-.27-3.54-2.31-1.11-3.41-.89-1.32.26-2.56.9-3.91,1.25C319.72,385.42,314.78,384.83,310.62,387.48ZM135.94,411.19c1.38,2.89,1.28,5.59-1.19,7.94,17.26,7.64,39.18,14.34,42.54,13.56a13.05,13.05,0,0,0-1-1.81c-1.27-1.61-.83-2.94.67-4,.6-.43,1.85-1.2,1-1.41-1.35-.35-1-3-3.25-1.9-3.68,1.78-8.11,2.84-11.64,1.28-7.32-3.24-15.5-5.73-19.39-13.95-.51-1.07-2.23-1.13-2.64-.29-1.49,3.06-2.62,3.11-4.74.18.11-1.11-.46-2.3.41-3.3,1.52-1.76,3.21,0,5.1,0-1.46-2-2.77-3.7-4-5.47-2.62-3.83-1.39-7.47,3.15-8.1,4-.56,7.24-1.38,8.87-5.71.53-1.43.62-2.29-.31-3.08a13.49,13.49,0,0,0-4.22-3c-4.66-1.55-9.32-1.13-14.07-.18-6.67,1.33-10.59,5.91-14,11.12-2,3.08-2.78,6.95-.86,9.84s.68,4-.82,5.77c-.79-2.28-.7-4.76-1.62-7-1.17-2.89-.54-5.58,1.1-8.13a48.4,48.4,0,0,1,5.76-7.39c1-1,1-1.69.39-1.89-4.11-1.25-8-3.13-12.58-2.77-5,.4-9.1,1.87-11.67,6.45a22.81,22.81,0,0,1-2.2,3.49c-.6.73-.77,2.68-2.08,1.89s.54-1.85.62-2.89c0-.67,1.79-1.2.61-1.8s-.68-1.31-.67-2.08c0-1.86.12-3.73,0-5.57-.25-3.29-1.66-6.07-4.7-7.52a15,15,0,0,0-13.27.06c-1.88.86-3.88,3.19-6.26.42a1.61,1.61,0,0,0,.81,1.56c5,4.44,9.83,9,15,13.23a89.64,89.64,0,0,0,10.42,7.82c2.47,1.46,5.11,2.76,7.13,4.82,3.2,3.25,7.68,4.48,11.09,7.36a2.13,2.13,0,0,0,2.06,0,28.55,28.55,0,0,0,8.85,5.24c-4.89-4.58-4.89-4.58-4.77-5.28,1.14.82,2.81.58,4.07,1.54,1.75,1.33,3.86.93,6,.84S134,408.13,135.94,411.19Zm59.84-.43.06.05c.3-3.76,2-7.08,3.74-10.27,1.89-3.45,5.47-5.32,8.58-7.55,1-.72,2.8-1.64,2.7-2.26-.27-1.73-1.87-2.85-3.35-3.82-.34-.22-.85-.22-1.17-.46-6.15-4.49-12.83-4.75-19.68-2.16a13,13,0,0,0-6.2,4.29c-.65.88-.07,2.32-1,2.56-3.54,1-3.72,4.34-5,6.82s-2.23,5.1-1,7.94c.14.33-.41,1,.69.85,2.63-.34,3.87,1.67,4.87,3.57S178,415,175.93,415c-1.38,0-1.38,0-2,.76,1.16,1.69,3.41,2.24,3.93,4.55.73-.6.38-1.26.43-1.83.12-1.34,0-2.07,1.94-2.88,2.57-1.06,2.27,1.55,3.67,1.56,1.19,0,.72,1.17.76,1.88.06,1-.8.61-1.28.85-1.35.66-2.84.39-4.25.79-1,.28-1.32.35-1.35,1.25,0,1.09.52,1.44,1.57,1.69,2.69.63,5.34.21,8-.11.83-.1,2.16.11,2.43-.77.17-.57-.61-1.56-1.37-2.08-1.37-.94-.71-2.21.27-2.2,2.93,0,4.33-2.38,6.44-3.6,1.68-1,3-2.5,2.15-4.89Zm-40.31-26-.43-.38c4.89-3.34,9.91-6.21,16.31-4.45,0-.74.3-1.77,0-2.09-2.32-2.17-1.73-5-2-7.66-.13-1.17-.39-1.27-1.69-1.62-2.9-.76-5.56.24-8.28.33-4.37.15-7.56,2.83-9.61,6.62a37.75,37.75,0,0,0-1.75,4.78c-.77,2.1,2.28,1.58,2.71,3.09.06.23.4.38.47.62.15.51.51,1.25.89,1,3.48-2.07.72,1.45,1.8,1.77,3.12-1.83,5.72.82,8.64,1.54a21.29,21.29,0,0,1,4.7,2.07c.35.18,1.29.52.62,1.34-.41.5-.77.33-1.33.05-2.54-1.25-5.13-2.42-7.74-3.51-3.77-1.59-6.56-.6-8.61,2.91-.92,1.56-1.95,3-2.83,4.63-3.9,7-4.27,12.78,2.07,19.18,3,3.06,7,4.65,10.8,6.6a14.09,14.09,0,0,0,14.51-.51c1.28-.76,1.6-1.47.22-2.44a17.84,17.84,0,0,0-1.84-1.46c-1.24-.64-1.52-1.36-.56-2.45,1.22-1.41.67-2.8,0-4.23-1.66-3.56-2.5-7.21-.74-11,1.52-3.28,2.8-6.68,4.89-9.66.37-.52.9-.88.24-1.54a26.68,26.68,0,0,0-6.45-5.23c-3.86-2-7.53-1.43-11.24.5C158.05,384.22,157,385.49,155.47,384.8Zm152.75-46.16.37.43c-.16,2.32-2.55,3.18-3.48,5.13,3.36-.77,5.32-2.95,5-5.93a3.78,3.78,0,0,1,1.39-3.52q12.09-12,24.05-24.06a40.24,40.24,0,0,0,5.84-7,160.16,160.16,0,0,0,12.45-26c2.85-7.4,3.61-15.23,4.82-23,1.48-9.47,3.1-18.9,3.16-28.37,2.53,0,5.55,1.07,7.44-.55,2.64-2.24,4.81-1.8,7.47-.68,2.34,1,5.07,1.62,7.1,0,2.71-2.18,5.56-2.59,8.79-2.47,1.53.06,3.14.43,4.66-.41.4-.23,1-.18,1.17.59.46,1.85,1.26.54,1.65,0,3.43-4.56,8.2-5.9,13.56-5.41a9,9,0,0,1,6.49,3.11c-4.31.12-7.89-2.19-12.09-1a11.45,11.45,0,0,0-8,7.5c1.87,1,4.09,2.85,4.08,5.18,0,3.62,2.47,3.29,4.43,3.65,1.16.21,3.18.4,2.32-2.28-.53-1.66,1.24-3.51,2.95-3.45,2.08.07,2.55,1.61,2.13,3.16-.53,1.94.19,2.37,1.84,2.11a3.48,3.48,0,0,1,2.22.61c2.26,1.25,3.66-.42,4.2-1.79.88-2.26,1.58-4.93-.39-7.13-1.64-1.82-2.43-4-3.55-6.2a3.5,3.5,0,0,1,2.6,1.44c.41.41.73.95,1.54.74,4.27-1.12,8.48,0,12.6.34,1.86-20.71-2.66-40.71-8-60.84-1.45,2.88-4.74,2.68-6.69,4.55-.56.53-1.06.11-1.31-.33a8.44,8.44,0,0,0-6.37-4.2c-.56-.09-1.08-.29-1.11-.83a.84.84,0,0,1,.95-.74c.76.14,1.22-.54,2.18-.3a20.22,20.22,0,0,0,10-.35,1.73,1.73,0,0,0,1.36-2.4c-1.75-4.67-3.3-9.42-5.06-14.07a124.82,124.82,0,0,0-8.5-18.71c-3.89-6.68-7.11-13.8-11.42-20.19-3.58-5.32-7-10.8-11.2-15.73-3.73-4.38-7.12-9-11-13.3-3.67-4-7.88-7.47-11.71-11.28A148.46,148.46,0,0,0,351,49.36c-8.36-6-16.87-12-26.08-16.74-4.18-2.16-8.14-4.74-12.51-6.53-6.26-2.57-12.47-5.31-18.83-7.6a143.24,143.24,0,0,0-17.38-5.3c-8.88-2-17.9-3.42-26.9-4.84A191.84,191.84,0,0,0,226.63,6.2c-6.36-.23-12.68.56-19,.53-3.27,0-6.45.7-9.73.68a26.32,26.32,0,0,0-8,1.17c-5.82,1.83-11.85,2.72-17.78,3.77-9.9,1.75-19.06,5.62-28.46,8.74a88.71,88.71,0,0,0-18.94,8.67c-4.47,2.77-9.46,4.54-13.91,7.29-3.4,2.1-6.55,4.6-9.91,6.76-7.73,5-14.76,10.82-21.88,16.6A166.3,166.3,0,0,0,59.45,79.75c-7.42,8.41-13.36,18-19.86,27.17-2.78,3.9-4.54,8.32-6.93,12.41a114.28,114.28,0,0,0-5.44,10.11c-2,4.41-3.54,9-5.55,13.46A138.44,138.44,0,0,0,13.45,167c-1.92,7.82-4.12,15.59-5,23.6-.48,4.22-1.95,8.38-1.13,12.73,4.42-1,9.17-.17,10,1.76,1.85-7.63,15.25-13,22.88-11.42-1-7.13,1.52-13.68,3.18-20.32,1.19-4.76,2.79-9.57,7.26-12.6a12,12,0,0,0,5-6.17c.8-2.27,1.48-4.75,3.15-6.68,3.39-3.94,8-3.91,10.89.62a13.72,13.72,0,0,0,4,4.12c1.28.91,4.15,1,3.68,2.92-.34,1.43-2.85.34-4.37.6a1.51,1.51,0,0,1-.79,0c-3.68-1.52-4.64.91-5.56,3.66a2.88,2.88,0,0,0,0,2.39,8.73,8.73,0,0,1,.55,3.58c.17,3-.7,5.86-1.06,8.79-.57,4.63-1.06,9.26-3.7,13.32-.53.82-.5,1.35.73,1.82a15.39,15.39,0,0,1,9.34,10.18,32.38,32.38,0,0,1,1,10.55,9.5,9.5,0,0,1,9.14-1.82c1,.27,1.45.21,1.52-.95.06-.94.36-1.86.5-2.8a178.73,178.73,0,0,1,5-21.11c1.6-5.65,4.43-11,6.75-16.4a54.49,54.49,0,0,1,3.31-7.24c2.65-4.34,5.2-8.73,8.27-12.84,7-9.33,14.25-18.19,23.7-25.27,5.89-4.42,11.65-9,17.88-12.92a118.22,118.22,0,0,1,18.65-10,170.2,170.2,0,0,1,18.9-6c2.58-.7,5-1.8,7.65-2.28a171.67,171.67,0,0,1,19.72-2.09,149.2,149.2,0,0,1,22.47.58c8.95.75,17.46,3.74,26.09,6.13,11.05,3.07,21.06,8.35,30.89,14.06,9.16,5.34,17.19,12.2,24.69,19.53,5.15,5,10.3,10.22,14.44,16.27a179.92,179.92,0,0,1,10.14,16.22A98.25,98.25,0,0,1,350,178.16c1.05,3.26,2.87,6.21,3.76,9.54a100.09,100.09,0,0,1,2.83,13.94c.62,5.15,2.3,10.25,2.32,15.38,0,8.93,1.17,17.93-.87,26.84-.9,4-1,8.09-1.85,12.07a127.89,127.89,0,0,1-7.44,23.17c-2.53,6-4.92,12-8.29,17.67a137.77,137.77,0,0,1-31.3,36.47,147.49,147.49,0,0,1-26.82,17.84,9.72,9.72,0,0,1,1.27,1.05c2.82,3.21,6.87,3.11,8.79-1.46.92-2.21,3.05-4.48,4.79-4.38,2.27.11,3.4-1.26,5.08-1.77,2.05-.62,1.49-1.38-.08-2.1C304.15,340.89,306.64,340.48,308.22,338.64Zm-9.43-124.45c-10.76-2.13-21.38-1.67-32.1.32s-20.46,6.07-30,11.18c30.38,21.84,66.14,19.23,86.58,1.25-1.39-1.19-3.35-1.46-4.58-2.93-.66-.79-.81.11-1.25.48-2,1.68-3.88,3.82-6.8,3.94a43,43,0,0,1-6.9,0c-2.72-.33-5.38-1.12-7.07-3.59C294.79,222.06,295.68,216.83,298.79,214.19Zm-120.16-2.74c-4.67,0-9.18-.4-13.71,0-1.85.15-3.79-.3-5.56.1-10.29,2.34-20.68,4.34-30,9.72-5.31,3.06-5.36,2.69-.41,6.2,6.65,4.72,14.15,7.39,21.88,9.47,4.67,1.25,9.5,2.7,14.32,2,4.27-.57,8.57.09,12.8-.88,3.6-.82,7.25-1.44,10.85-2.27,6.3-1.46,10.42-6.55,16-9.11,1.8-.83,1.36-1.93.12-2.65-2.69-1.57-5.24-3.32-7.82-5.06-.1-.06-.79-1.1-1.28.15-2.52,6.33-5.36,8.14-11.85,7.72-4.44-.29-8.36-3.46-7.9-8.15C176.32,216,177.83,213.94,178.63,211.45Zm-148.12,57c-2.94-1.76-6.3-2.36-9.32-3.76a2.44,2.44,0,0,0-2.2.47c-2,1.27-4.34,1.08-6.59.74-.54-.08-1.22-.34-1-1.21s.78-.57,1.26-.58c1.44,0,2.87,0,4.34,0-3.79-7-3.27-14-1.91-22-1.82,1.94-3.35,3-4.4,4.67-.28.45-1.3,1.45-2.18.35s.29-1.19.82-1.65c2.65-2.31,4.9-5,5.69-8.47.64-2.77,1.39-5.66.08-8.5-3-6.59-6-13.16,0-19.79.76-.85,2.21-2.17,1.37-3-1-1-2.88-.81-4.41-.42a9.66,9.66,0,0,0-2.13.88c-1.26.68-2.34.82-3.14-.93-2,37,3.15,72.49,18.72,106.29C26,310,26,310,28,308.71c7.7-5.06,11.63-12.14,11.57-21.42,0-2.08-1.51-4.36-1.28-5.62.54-2.94-1.29-4.57-2.11-6.68-.7-1.81-1.85-3.34-4.5-2.52-1.23.38-3.56.91-4.08-.62S29.21,269.5,30.51,268.42ZM20.84,264c7.32-.07,12.57,3.59,17.63,7.79a17.6,17.6,0,0,0,8.15,4.18,20.23,20.23,0,0,0,6.42-.17c3.82-.49,7.07-2.09,8.91-5.65a23.6,23.6,0,0,0,2.73-14.45c-.61-4.63-2-8-6.6-9.43-8.9-2.81-13.16-1.65-18.94,5.92a19.06,19.06,0,0,0-3.94,14.27c-4.48-.33-3-3.49-2.7-6.5-1,1.11-1.9,1.7-2.12,2.5-.75,2.68-2.48,1.84-4.15,1.37-.58-.16-1.12-.45-1.71-.57C23.36,263,22.15,262.61,20.84,264ZM251.4,362c-1.54,1-3.18.24-4.72.53-5.46,1-10.93,2.19-16.51,2-2.83-.1-4.89.53-6.25,3.09s-3,5.13-.83,7.81c1.64,2.05,1.48,4.18,1.38,6.45a12.9,12.9,0,0,0,.06,4.12c.44,1.47,6.65,3.68,8.22,3.18,3.23-1,6.44-2,9.92-1.75a3,3,0,0,1,3.1,2.59c.22,1.09.82,2.11.59,3.3-.18,1,.1,1.44,1.33,1.66a35.94,35.94,0,0,0,12.45.43,7,7,0,0,0,5.43-4.63c.58-1.44-1.08-1.7-1.71-2.47s-1.51.16-1.88.55c-.93,1-.78,1-1.84.21-.6-.46-1.59-1.74-1.71.51,0,.81-1.31,1.55-1.92.12-.5-1.16-1.48-1.26-2.41-1.78-.33,1,1.55,2.07-.18,2.65-1.42.47-1.48-.92-1.68-1.73s-.63-.63-1-.9a12.62,12.62,0,0,0-4.33-1.54c-4.17-1-6.17-5.72-3.6-8.75a8.65,8.65,0,0,1,3.89-2.45c1.37-.46,2.9-.47,4.12-1.42,2.49-1.94,6.4-1.73,7.89-5.23.23-.52,1.3.13,1.53-1.08a7.67,7.67,0,0,1-3.77-1.86c.69,3.64-2,4.29-4.17,4.7-1.93.37-4.47-.32-5.12-2.27C246.66,365,249.77,363.86,251.4,362ZM242.46,399a5.78,5.78,0,0,0-3.21-4,49.34,49.34,0,0,0-13.16-4.33c-3.1-.56-6.26-1-9.58-.24s-5.76,2.95-8.5,4.68c-4.26,2.7-6.77,6.7-8.91,11.11-1.54,3.15,1.53,5.75.7,8.92-.27,1.06,1.67-.67,2.61-.05.14.1.37.17.41.3.58,1.73,2.39,2.22,3.45,3.45,2.29,2.64,4,2.6,5.88-.3.63-1,1.1-2.1,2.49-1.9a41.65,41.65,0,0,1,4.27.93c3.12.81,7.44-3,6.6-6.16-.6-2.29-.25-4.53-.42-6.79-.05-.76-.27-1.93.63-2.07s1.25.85,1.54,1.78a40.58,40.58,0,0,1,2.3,12c1.47-2.5,2.78-5,4-7.5C235.57,404.65,237.28,400.18,242.46,399Zm-133.11-58.2c1-.6,1-1.23,1.15-2a25.17,25.17,0,0,1,3.34-8.28c1.28-2,1.62-2.43-.35-4.47a10.85,10.85,0,0,0-1.58-1.38c-5.61-3.75-11.73-3.86-17.65-1.48-4.8,1.93-7.64,5.7-8.67,11.25-.84,4.61,1.54,8.88.18,13.41.94-1.56,1.7-3.44,3.79-2.88a2.8,2.8,0,0,1,2.09,3c-.18,2.9-2.18,3.71-4.54,4,2.21,2.62,5.4,4.45,5.27,8.41,0,.58.68.64.91.64,3.31.07,6.61,0,8.82-3.18a4.78,4.78,0,0,1-.8-.43c-1.13-.91-2.19-2-1.65-3.56s2-1.91,3.48-1.42c1.2.4,1.3-.59,1.74-1.08,1.56-1.7,2.54-4,4.71-5.06,1.86-.93,1.89-.87,1-2.95-.59,2-2.08,2.86-4.42,2.49-3.13-.5-4.42-1.82-4.47-4.61,0-2.13,1.68-4.64,3.39-4.11S109.54,337.59,109.35,340.82Zm-32,4.12c-2,.94-3.82,1.79-5.64,2.7a1.29,1.29,0,0,0-.74,1.54.54.54,0,0,0,.8.4c2.82-1.24,5.82-.83,8.76-1.07.81-.06,1.58-.84,2.34.1a.72.72,0,0,1,.1.94c-.62.92-1.59.71-2.42.63a16.9,16.9,0,0,0-10.21,2.21,7.2,7.2,0,0,0-3.64,3.82c-2,6.1-1,11.49,3.6,16.18.61.62.68.6,1.34.26a21.12,21.12,0,0,1,18.74-.56c.61.26,1,.8,1.31-.26.82-2.95,3.09-5.08,4.67-7.81a12.59,12.59,0,0,0-1.27,0c-2.22.23-3.57-.06-3.58-3a6.81,6.81,0,0,0-3.1-5.39c-3.61-2-4.69-4.73-4.17-8.45.34-2.49-.71-3.72-3.1-4.12a10.57,10.57,0,0,1-5.39-2.3,2.83,2.83,0,0,0-3.23-.6,21.33,21.33,0,0,1-8.8,1.55,10.43,10.43,0,0,1-.88,7.21c-2.17,4.94-1.8,7.37,1.51,10.26-.11-.49-.38-.94-.26-1.22a19,19,0,0,1,4.71-6.69c.6-.53,1.18-.65.75-1.79-.86-2.26.51-3.88,2.26-5.07S75.55,342.56,77.32,344.94ZM43.75,235.08c-1.17-.29-2.2-.86-3.1-.7-3.83.67-7.54-.17-11.29-.62a2.35,2.35,0,0,1-2.26-2.64,19.53,19.53,0,0,1,1.18-5c2.51-6.76,5.09-13.5,8.26-20,1.38-2.81,3-5.61,3-8.94,0-.88.17-1.44-1.14-1.81a12.6,12.6,0,0,0-6.62.37c-3.88.94-7.37,2.49-9.84,6.25-2.31,3.5-5.16,6.66-7.06,10.46a9.91,9.91,0,0,0-1.37,5.95c.11.74.39,1.73,1.11,1.11,3.46-3,8.29-4.73,9.66-9.86a1.8,1.8,0,0,1,2-1.4c1.06.15.81,1.1.92,1.73.55,3-4.26,10.49-7.36,11.53-5.94,2-6,2-2.47,7.21A20.32,20.32,0,0,0,29.73,237C34.64,238.23,39.1,237,43.75,235.08Zm81.42,91.23c-.72,1.94-2.47,3-3.31,4.76a16.65,16.65,0,0,0-1.27,5.5c-.23,2.37-1.43,5,.08,7.16a79.3,79.3,0,0,1,4.65,7.74c1.12,2,2.52,3.71,3.12,6.12s4.28,4.18,6.32,4c2.67-.28,5.93-2.83,6.23-5.49a17.9,17.9,0,0,1,6.48-12.49C139.84,337.93,132.14,332.82,125.17,326.31ZM71.93,210.48c.44-2.1-.46-4.2-.57-6.39-.3-5.66-2.86-10-8.22-12.41-1.43-.64-2.93-.93-4.16.13a17.19,17.19,0,0,1-3.8,2.19c-2.65,1.27-3.77,3.59-4.5,6.26-.85,3.05.78,6.32-.94,9.33-.38.67.48,1.06,1.21,1.35,3.41,1.34,4.67,3.53,4,6.66-.38,1.72-3,3-5.85,2.85-.4,0-.77-.67-1.14.27-.5,1.28-1.26,2.44-.33,3.79s1.28,3.1,3.67,3a32.46,32.46,0,0,1,8.39.38c3.86.77,4.07.38,4.34-3.59,0-.56.47-1.07-.45-1.32-.28-.08-.89-.77-.22-.92,1-.22,1.94-.76,2.76-1,2.44-.71,2.75-.57,3.86-2.48A13.45,13.45,0,0,0,71.93,210.48Zm239,204.25c2.83-1.47,5.16-2.58,7.37-3.91.41-.25,2.33-.44,1-1.64-.77-.7-1.16-2.91-2.93-1.59-1.34,1-1.49.17-2.05-.75a3.88,3.88,0,0,1,.61-4.56c1.2-1.39.55-1.84-.28-2.7-2-2.1-2-2.11-.85-5,.19-.49-.31-.75-.51-1.12-3-5.48-8.31-6.13-13.7-6.55-4.22-.34-8.34.07-12,2.5,1.76,2.71,1.6,6,1.14,9.12a8.59,8.59,0,0,0,2.06,6.78,7.83,7.83,0,0,1,1.78,4.79c.08,1.38,0,2.77,0,4.19,2.74-.15,4.31-2.46,6.93-2.93s5.24-.46,7.79-1.44c1-.37,1.62-.14,1.88-1.45.18-.93.7-1.82.89-3-1.52,0-2.85,0-4.17,0-1.92-.07-2.86-.95-2.73-3,.15-2.41,2.64-6.08,4.93-6.83a2.62,2.62,0,0,1,3.14,1.28c1.11,1.7,2.17,3.58.9,5.67a2.65,2.65,0,0,0,0,2.91,6.43,6.43,0,0,1,0,5.75A30.57,30.57,0,0,0,310.89,414.73ZM96.62,320.3c0-1.27-1.11-1.67-1.62-2.53-1.46-2.45-2.55-5.78-6.52-5.34a3.89,3.89,0,0,1-1.23-.33c-4.52-1.13-12.73,1.33-15,4.69-2,2.9-3.64,6-3.44,9.71a14.07,14.07,0,0,0,3.66,8.77A18,18,0,0,0,83.87,342C82.25,331.15,86,323.5,96.62,320.3ZM57.27,301.82c.7,3.26,2.33,1.83,4.31,1.29,4-1.09,4.83-3.66,4.54-7.2a4.94,4.94,0,0,1,.35-1.77c.76-2.91-.26-5.45-1.81-7.87-1.38-2.15-2.47.39-3.83.24-2-.22-3.88-.81-5.83-1.15-3-.53-3.21-.95-1.69-3.43.53-.86,1.4-1.82-.51-1.89a47.91,47.91,0,0,0-7.19,0c-4.12.49-4.49,1.07-4.49,5.31,0,1.59.06,3.18,0,4.77,0,.93.43,2-.43,2.77-1.19,1.07-1.84,2.48-.67,3.64,1.44,1.44,2.47-.14,3.47-1.08.25-.24.46-.59.76-.72,1.34-.58,2.76-1.47,4.19-.71a3.47,3.47,0,0,1,1.78,3.79,6.88,6.88,0,0,1-.59,2.49A13,13,0,0,1,45,305.22c-.66.43-2.12,1.55-.6,2.09,1.88.67,1.32,1.53,1.07,2.72-.33,1.6-.07,2.39,1.89,1.51.84-.38,2.34-.74,3,.31s1.7,1.21,2.09,1a2.61,2.61,0,0,0,.91-2.32c0-.37-1-1,0-1.17,1.86-.26,2-2,3.32-3.36-1.72.57-2.55-.57-3.74-1a7.82,7.82,0,0,0-.16,1.17c0,.84-.47,1.91-.93,1.92a3.74,3.74,0,0,1-2.55-1c-.8-.84.12-1.54.72-2.2a11.85,11.85,0,0,0,1-1.5c1-1.61,1.54-.23,2.29.68-.26-2.34.88-3.26,3-3.4a7.44,7.44,0,0,0-1-1.17c-1.94-1.51-2.08-3.36-.89-5.32s3-2.23,5.2-1.39c1.92.73,2.58,2.27,3.61,3.77.72,1,1.59,1.54.72,3s-1.43,2.7-3.43,2.4A22.46,22.46,0,0,0,57.27,301.82Zm4.27,34.45a14.13,14.13,0,0,1,4.14-4.35,3,3,0,0,0,1.52-3c0-2.2-.43-4.55.16-6.6a17,17,0,0,1,7.51-9.91c.21-.13.66.18.57-.49-.45-3.75,3.15-4.56,4.8-6.9A7.22,7.22,0,0,0,73,302.5c-2.77.75-5.59.58-8.34,1.39a15.19,15.19,0,0,0-8.6,6.49,16.81,16.81,0,0,0-2.68,10.88c.13,1.67-.6,4.3,2.72,2.4.22-.12.66.1,1,.21a3.58,3.58,0,0,1,1.41,5.82c-1.34,1.46.31,1.16.35,2a23.47,23.47,0,0,1,1.48-3.5c.8-1.27,2.05-.89,3-.19,1.1.82.76,1.35-.46,2s-.6,3.16-2.87,2.82a3,3,0,0,1,.26.71A4.2,4.2,0,0,0,61.54,336.27Zm89,34.92c1.93-1.72,3.53-3,5.8-3.52a41.64,41.64,0,0,1,11.17-.95,1.9,1.9,0,0,0,2.26-1.56,37.93,37.93,0,0,0,1.06-6.64c.06-1.93-.31-4-3-4a5.67,5.67,0,0,1-2.18-.8A66.75,66.75,0,0,1,151,345.45c-.84-.6-1.65-.85-2.4-.33-3,2.12-4.08,5.56-5.29,8.77a4.71,4.71,0,0,0,1.25,5.64,5.25,5.25,0,0,0,.83-2.21,10.28,10.28,0,0,1,1.65-4.24c.3-.42,1.15-.86,1.09-.24-.22,2.12,2,3.34,1.54,5.64A28,28,0,0,0,150.49,371.19ZM40.19,279.7a29.92,29.92,0,0,1,17.29-.09c-1.46.53-2.32,1.05-1.9,2.25.85,2.44,5.09,3.95,7,2.38s3.35,0,3.86,1c2.67,5,4,10.35,1,16.66,1.79-1.15,3.46-.63,4.43-1.48,2.85-2.5,6.23-4.35,7.72-8.41s1.65-8-.23-11.92a1.58,1.58,0,0,0-1.58-1.1c-2.54.05-4.95-.82-7.43-1.17-5.46-.78-6.16-1.64-6.6-5.8-7.3,7.3-15.71,7.38-24.89,3.18Zm85.68,88.18c-2.46-.94-3.92-3.1-6.38-3.93-4.76-1.63-9.52-1.52-14.4-1-5.17.54-10.44,4.56-11.7,9.23-.51,1.92,0,3.44,2.06,4.06,2.67.78,5.92.52,7.06,4,.13.39.38.21.59.15,3.5-1,7.13.06,10.64-.58-.84-2.86,0-5.28,1.44-7.7,2-3.25,3.24-3.61,6.28-1.12C122,368.6,123.65,368,125.87,367.88Zm207.66,10.37a41.6,41.6,0,0,1,.05-4.18c.05-.51-.87-1.14.05-1.48a1.58,1.58,0,0,1,1.89.59,30.09,30.09,0,0,1,2.78,3.73c1.74,3.17,4.05,4.86,7.87,4.19a3.13,3.13,0,0,0,2.82-2.28c.86-2.38,1.41-4.9,3.9-6.44,1.49-.91,1-4-.23-5.26s-2.54-1.81-3.49-2.86a25.37,25.37,0,0,0-9.22-6.33c-5-2.11-7.12-1.81-10,1.38a8.19,8.19,0,0,0-1.68,6.09C328.54,370.17,331.23,374.12,333.53,378.25ZM85.44,303a10.81,10.81,0,0,0,3.37-4c.37-.78.84-1.31-.62-1.63a2.69,2.69,0,0,1-2.43-2.68c0-2.13.69-3.63,3-4.23s4.74,1.82,4.53,2.19c-1.88,3.32,2,4.73,2.07,7.24,0,.48-.16,1.4.49,1.28,3-.57,5.77,1.7,8.85,1l-1.5-2.89c-1-2-1.7-4.42-5-3.45-1.6.47-2.42-1.27-3.19-2.33s.41-1.88,1.14-2.31c2.23-1.33,1.33-3,.67-4.62-.52-1.26-1.23-2.44-1.64-3.78a3,3,0,0,0-3.57-2.31,11.17,11.17,0,0,0-6.94,3.59c-1.94,2.13-1.37,4.71-2,7-.33,1.29-1.46,2.29-.81,4.13C82.84,298.06,83.35,301,85.44,303Zm310.14-76.16c-1.27,0-2.5,0-3.73,0-4.94,0-8.58,2.41-11.21,6.38-1.08,1.64-1.63,3.65,0,5.31s3.32,1.16,5.14,0c2.14-1.33,3.12-3.94,5.23-5C393.85,232.21,395.45,230.34,395.58,226.86Zm-19.41,40.93c-.88.34-2-.56-3,.74a7.37,7.37,0,0,0,3.73,11.41,5.62,5.62,0,0,0,6.75-2.88c.69-1.57-.75-2.31-1-3.49C381.84,269.52,379.93,267.8,376.17,267.79Zm-325,55.38c.07-2.49-.26-5.14,1-7.57.15-.29.38-1-.28-1.31-3.56-1.67-9.75-.21-10.68,3.86-.35,1.58-.85,3.14-1.21,5Zm366.32-59.11c-1.12.37-2.65-.68-3.42.64s-2.23,3-.94,4.75,2.95,3,5.31,2.4a13.57,13.57,0,0,1,3.38-.45c1.6,0,3.44-.35,3.86-2.48.37-1.86-1.2-2.5-2.32-3.2C421.65,264.62,419.78,263.56,417.52,264.06ZM31.36,239.27c3.12.88,6.42,1.82,8.83,3.76,2.69,2.17,5,1.38,7.57.7.47-.12,2.14-.49.34-1.48-.62-.34-.54-.74-.13-.75,1.62,0,.78-.91.55-1.44-.44-1-1-2-1.53-3-.63-1.21-1-3.49-2.59-.54-.5.92-1.6,1.19-2.62,1.51A35.6,35.6,0,0,1,31.36,239.27ZM371.12,363.65c-2.33-.81-4.72-.22-7,.06-1.17.14-1.32-.16-1.92-.88-1.52-1.81-.1-4.2-1.37-6-2.38,1.58-1.61,4-1.76,6.22-.2,3,1.33,5,4.6,6.22,1.72.61,5-.63,6.16-2.49A20.42,20.42,0,0,0,371.12,363.65ZM258,372.79c-2.77,2-2.27,6.51-6.34,7.19a.52.52,0,0,0-.3,1c.3.27.36,1.16.61.84,1.24-1.53,1.23.43,1.77.64s1.07,1,1.84.67.9-1,.45-1.92c-.22-.48.4-1.37.74-2.37a6,6,0,0,0,1.64,3.15c1.45-1.22.19-3,.92-4.37.57.45.1,1.7,1.21,1.55.17,0,.25-.73.4-1.21.32.77.61,1.38.81,2,.29.9,1,.56,1.55.5.36,0,.68-.46,1-.71-1.18-1.07.51-2.77-1-4a4.63,4.63,0,0,1-1.69-4.17C260.65,373.41,259.9,375.62,258,372.79ZM261,359c1.81,1.39,3.63,1.65,5.18,2.44,2.19,1.12,4.18,1.15,6-.68s4.6-2.93,5.36-5.8a2,2,0,0,0,.1-1.23c-.27-.57-.69-.07-1.08,0-2.78.65-5,2.71-8.05,2.86C266.07,356.71,263.76,358,261,359ZM64.75,247.89c2.75-5.31,7.26-7.68,13.42-8.44-3.57-1.37-7-2.09-8.52-5.88a13.16,13.16,0,0,0-.92,4.15c-.15,3.82-1.22,4.83-5,5.08-2.46.16-4.87.85-7.41.7C59.44,244.39,62.81,244.7,64.75,247.89ZM131.51,380c-3.83-1.39-2-4.23-1.33-5.41,1.14-2-.15-2.52-1-3.59s-1.33-2.64-3.4-2.69c1.17,1.82,1.25,4.2,2.21,5.34,2.07,2.47.5,3.49-.82,5-.59.67-1.27,1.21-2,.54s-1.47-1.36-.85-2.44c.53-.91.73-1.5-.67-1.76-.57-.11-1-.83-1.58-1.31a8.68,8.68,0,0,1-5,6.3c1.36,0,2.32-.05,3.28,0s2.47-.54,2.9.62c1,2.62,2.54,1.41,4,.92C128.52,381.14,129.71,380.66,131.51,380Zm203.41-.88c-.48.73-.17,1.1.13,1.58,1.72,2.84,4.43,4.58,7,6.48a6.44,6.44,0,0,0,8.52-1.08c.89-1.12.24-1.91-.63-1.77-2.05.31-3.9-1-5.68-.7-1.52.3-1.83-1.88-2.89-1-1.38,1.1-2,.22-2.86-.56C337.37,381,336.13,380.1,334.92,379.12ZM17.16,231.37c.07,3.54.3,6.43-1.11,9.13-.53,1,0,.86.9.83,4.2-.17,7.76-3.25,12.13-2.3A30,30,0,0,1,17.16,231.37Zm227,165c3.14,3.51,3.71,7.1,4.29,10.83,2.14-3.61,4.37-7,7.85-9.46C252.34,397.83,248.64,396.88,244.11,396.32Zm-32-9c.39-.64.05-1.14-.08-1.73-.27-1.21-.88-2.69-.11-3.69,1.56-2,1.9-4.67,3.62-6.5,1.43-1.52-.35-2.29-.5-3.41-1.42.25-1-1.59-2.17-1.85,0,5.57,1.14,11.69-6.82,13.27C209,383.45,209.54,386.9,212.07,387.36Zm21.46,3.52c3.54,1.09,6.77,2.05,9.3,4.44.38.36.7.84,1.33.37a1.5,1.5,0,0,0,.59-1.38c0-.95-3.37-4.69-4.31-4.76A13.5,13.5,0,0,0,233.53,390.88ZM340.65,326c3.78,1.94,7.09,5.2,11.73,3.14C349.38,325.51,343.7,324,340.65,326ZM73.45,338c-.94-.67-1.93-1-2.32-1.71-1.1-1.94-2-2.46-3.37-.24-.81,1.34-2.32.77-3.39.71a5.06,5.06,0,0,0-2,.47C65.76,340.24,69.22,339.76,73.45,338ZM279.6,382.85a5.54,5.54,0,0,1,3.46,2c2.18,3,4.47,2.74,7.11.88.2-.15.25-.22,0-.38A17.57,17.57,0,0,0,279.6,382.85ZM82.13,302.72c-.69-2.56-1.79-4.68-1.74-6.19L75,300.83C77.85,300.48,79.86,301.44,82.13,302.72ZM363.42,289.9c-.48-.83-.4-2-1.78-1.9-3.53.27-1.34,2.76-1.67,4.28-.17.79.26,1,.88,1C362.92,293.05,362.47,291,363.42,289.9ZM200.5,426.25l.29.35,5.56-4.35c-1.21.18-1.58-.93-2.34-1.29-.5-.23-1.11-.76-1.48.38C202,423,201.19,424.61,200.5,426.25ZM402.38,247.76c-1.54.13-2.79.31-1.82-1.42.52-.92,1.06-1.81,1.89-3.24-1.73.79-2.85,1.33-4,1.82s-1.71,1.35-.71,2.17S400.09,249.5,402.38,247.76Zm12.21,10c-.73,1.54-2.8,3.05-2,4.38.64,1.08,2.87-.17,4.55-.41C416.39,260.3,416,258.85,414.59,257.78ZM304.51,421.42a25.73,25.73,0,0,0,3.28-1.64c1-.71,3.6-.49,3-1.82s-2.62.05-4,.62S303.67,419,304.51,421.42Zm-80.79-33.09c-1.08-.75-1.3-1.25-2.63-1.17-2.44.14-4.82,1.56-7.37.51-.57-.23-1.25.68-1.31,1.3s.8.7,1.16.5C216.61,387.79,219.91,388.79,223.72,388.33Zm82.45,27.95c-2.3.19-4.52-1.3-6.88-.51C301.05,418,303.24,418.18,306.17,416.28Zm-90-51.54c-5.72-.31-5.72-.31-4,3.27C213.62,367,214.39,365.29,216.22,364.74Zm196.45-63.3c1.52-1.09,2.43-2.29,2.14-4-.11-.63-.95-.56-1.3-.26C412.24,298.27,411.52,299.57,412.67,301.44ZM256.6,364.1c-.94-1.28,1.79-1.64.53-2.78-1.58-1.42-3.07.3-4.66.31A5.18,5.18,0,0,1,256.6,364.1ZM82.93,284c.57-1.64,1.85-2.23,2.7-3.36-1.4.54-2.52-1.24-3.9-.35C82.09,281.38,82.44,282.47,82.93,284ZM305.12,385.69c-2.44-.47-4.72-3.31-7.64-.35A38.92,38.92,0,0,1,305.12,385.69Zm110.4-68.53c1-1.48,2.36-2.9,2.36-5.33C416.58,313.68,415.46,315.2,415.52,317.16Zm-132,36.76a29.08,29.08,0,0,1-2.48-1.79c-.66-.62-1.06,0-1.59.16s-.76.46-.49.92a1.37,1.37,0,0,0,1.29.72C281.06,353.88,281.91,353.92,283.48,353.92Zm-111,5.71a4,4,0,0,0,2.06-2.07c.48-1.76-1.34-.71-2.06-1.71ZM436.46,239l-.16-.12-.51,6.44.67,0ZM90.24,301.11c1.79.56,2.47.14,2-1.71a4.4,4.4,0,0,1,.06-2.1c.12-.52.21-.83-.45-.78s-.84.3-.54.85C92.11,298.87,91.45,300,90.24,301.11Zm214,43.9c-.94.89-2.13,1.12-2.38,2.35,0,.13.65.54.68.52C303.18,347.13,304.43,346.71,304.19,345Zm-38.41,30c.29-.55.45-1.1-.2-1.49-.13-.08-.54,0-.56.11C264.81,374.35,265.22,374.74,265.78,375Zm-183-72.11c-.42.14-.38.39-.26.6s-.08.71.42.59c.11,0,.18-.44.15-.67S82.87,303.09,82.77,302.93ZM172,380.19l-.51.39a1.74,1.74,0,0,0,.44.38c.08,0,.35-.17.34-.21A2.63,2.63,0,0,0,172,380.19Z"/><path class="cls-2" d="M429,162.51c-1.45,2.88-4.74,2.68-6.69,4.55-.56.53-1.06.11-1.31-.33a8.44,8.44,0,0,0-6.37-4.2c-.56-.09-1.08-.29-1.11-.83a.84.84,0,0,1,.95-.74c.76.14,1.22-.54,2.18-.3a20.22,20.22,0,0,0,10-.35,1.73,1.73,0,0,0,1.36-2.4c-1.75-4.67-3.3-9.42-5.06-14.07a124.82,124.82,0,0,0-8.5-18.71c-3.89-6.68-7.11-13.8-11.42-20.19-3.58-5.32-7-10.8-11.2-15.73-3.73-4.38-7.12-9-11-13.3-3.67-4-7.88-7.47-11.71-11.29A149.28,149.28,0,0,0,351,49.36c-8.36-6-16.87-12-26.08-16.74-4.18-2.16-8.14-4.74-12.51-6.53-6.26-2.57-12.47-5.31-18.83-7.6a143.24,143.24,0,0,0-17.38-5.3c-8.88-2-17.9-3.42-26.9-4.84A191.84,191.84,0,0,0,226.63,6.2c-6.36-.23-12.68.56-19,.53-3.27,0-6.45.7-9.73.68a26.32,26.32,0,0,0-8,1.17c-5.82,1.83-11.85,2.72-17.78,3.77-9.9,1.75-19.06,5.62-28.46,8.74a88.71,88.71,0,0,0-18.94,8.67c-4.47,2.77-9.46,4.54-13.91,7.29-3.4,2.1-6.55,4.6-9.91,6.76-7.73,5-14.76,10.82-21.88,16.6A166.3,166.3,0,0,0,59.45,79.75c-7.42,8.41-13.36,18-19.86,27.17-2.78,3.9-4.54,8.32-6.93,12.41a114.28,114.28,0,0,0-5.44,10.11c-2,4.41-3.54,9-5.55,13.46A138.44,138.44,0,0,0,13.45,167c-1.92,7.82-4.12,15.59-5,23.6-.48,4.22-1.95,8.38-1.13,12.73,4.42-1,9.17-.17,10,1.76,1.85-7.63,15.25-13,22.88-11.42-1-7.13,1.52-13.68,3.18-20.32,1.19-4.76,2.79-9.57,7.26-12.6a12,12,0,0,0,5-6.17c.8-2.27,1.48-4.75,3.15-6.68,3.39-3.94,8-3.91,10.89.62a13.72,13.72,0,0,0,4,4.12c1.28.91,4.15,1,3.68,2.92-.34,1.43-2.85.34-4.37.6a1.51,1.51,0,0,1-.79,0c-3.68-1.52-4.64.91-5.56,3.66a2.88,2.88,0,0,0,0,2.39,8.73,8.73,0,0,1,.55,3.58c.17,3-.7,5.86-1.06,8.79-.57,4.63-1.06,9.26-3.7,13.32-.53.82-.49,1.35.73,1.82a15.39,15.39,0,0,1,9.34,10.18,32.38,32.38,0,0,1,1,10.55,9.5,9.5,0,0,1,9.14-1.82c1,.27,1.45.21,1.52-.95.06-.94.36-1.86.5-2.8a178.73,178.73,0,0,1,5-21.11c1.6-5.65,4.43-11,6.75-16.4a54.49,54.49,0,0,1,3.31-7.24c2.65-4.34,5.2-8.73,8.27-12.84,7-9.33,14.25-18.19,23.7-25.27,5.89-4.42,11.65-9,17.88-12.92a117.88,117.88,0,0,1,18.66-10,169.37,169.37,0,0,1,18.89-6c2.58-.7,5-1.8,7.65-2.28a171.67,171.67,0,0,1,19.72-2.09,149.2,149.2,0,0,1,22.47.58c8.95.75,17.46,3.74,26.09,6.13,11.05,3.07,21.06,8.35,30.89,14.06,9.16,5.34,17.19,12.2,24.69,19.53,5.15,5,10.3,10.22,14.44,16.27a179.92,179.92,0,0,1,10.14,16.22A98.25,98.25,0,0,1,350,178.16c1.05,3.26,2.87,6.21,3.76,9.54a100.09,100.09,0,0,1,2.83,13.94c.62,5.15,2.3,10.25,2.32,15.38,0,8.93,1.17,17.93-.87,26.84-.9,4-1,8.09-1.85,12.07a127.89,127.89,0,0,1-7.44,23.17c-2.53,6-4.92,12-8.29,17.67a137.77,137.77,0,0,1-31.3,36.47,147.49,147.49,0,0,1-26.82,17.84,9.72,9.72,0,0,1,1.27,1.05c2.82,3.21,6.87,3.11,8.79-1.46.92-2.21,3.05-4.48,4.79-4.38,2.27.11,3.4-1.26,5.08-1.77,2.05-.62,1.49-1.38-.08-2.1,2-1.53,4.45-1.94,6-3.78l.72-.5c.23.44.13.76-.35.93-.16,2.32-2.55,3.18-3.48,5.13,3.36-.77,5.32-2.95,5-5.93a3.78,3.78,0,0,1,1.39-3.52q12.09-12,24.05-24.06a40.24,40.24,0,0,0,5.84-7,160.16,160.16,0,0,0,12.45-26c2.85-7.4,3.61-15.23,4.82-23,1.48-9.47,3.1-18.9,3.16-28.37,2.53,0,5.55,1.07,7.44-.55,2.64-2.24,4.81-1.8,7.47-.68,2.34,1,5.07,1.62,7.1,0,2.71-2.18,5.56-2.59,8.79-2.47,1.53.06,3.14.43,4.66-.41.4-.23,1-.18,1.17.59.46,1.85,1.26.54,1.65,0,3.43-4.56,8.2-5.9,13.56-5.41a9,9,0,0,1,6.49,3.11c-4.31.12-7.89-2.19-12.09-1a11.45,11.45,0,0,0-8,7.5c1.87,1,4.09,2.85,4.08,5.18,0,3.62,2.47,3.29,4.43,3.65,1.16.21,3.18.4,2.32-2.28-.53-1.66,1.24-3.51,2.95-3.45,2.08.07,2.55,1.61,2.13,3.16-.53,1.94.19,2.37,1.84,2.11a3.48,3.48,0,0,1,2.22.61c2.26,1.25,3.66-.42,4.2-1.79.88-2.26,1.58-4.93-.39-7.13-1.64-1.82-2.43-4-3.55-6.2a3.5,3.5,0,0,1,2.6,1.44c.41.41.73.95,1.54.74,4.27-1.12,8.48,0,12.6.34C438.8,202.64,434.28,182.64,429,162.51ZM107,110.38c-5,.09-9.48,3.14-14.58,2.16a2.72,2.72,0,0,0-3.28,1.8c-.6,1.47-1.39,1.49-2.58.88a16.15,16.15,0,0,1-3.22-1.61c-3-2.55-6.07-1.43-9.3-.82a66,66,0,0,1-9.52,1,3.57,3.57,0,0,1-3.16-1.59c2.77-2.37,6.34-2.26,9.54-2.65,2.56-.31,5.13-.86,7.75-1a19.68,19.68,0,0,1,5.87.31c2.65.67,5.51.47,8.18,1.08a16.71,16.71,0,0,0,9.86-1,10.13,10.13,0,0,1,4.34-.67c.67.06,1.5.18,1.5.74A1.52,1.52,0,0,1,107,110.38Zm22.23-37.6c-4.48.11-8.17,3.32-12.69,2.58-.69-.12-1.47.06-1.88-.67-.49-.89.41-1.23.85-1.69A21.86,21.86,0,0,1,123,67.85c-5.09-2.7-9-.8-12.9,1.54-1,.58-1.91,1.18-2.82,1.83-.48.34-.86.53-1.36,0-.68-.66.06-.91.35-1.21,1.74-1.77,3.45-3.58,5.28-5.24a4.47,4.47,0,0,1,3.68-1.24c3.26.28,6.35.3,9.58,1.75,2.29,1,5.66.29,8.33-1.37,3.61-2.25,7.55-1.9,11.44-.77.8.23,1.42,1.07,2.16,1.59.94.66,2.39,1.7,1.91,2.5-.69,1.17-2.33.48-3.53.08-1.36-.45-2.38-1.48-3.9-1.86a10.1,10.1,0,0,0-6.75,1c-1.11.48-2.09,1.34-.15,2.51,1.09.66,2.52,1.27,2.92,2.82.22.85,1.21,1.71-.12,2.44-1,.54-1.74,1.31-3-.09S131.34,72.73,129.25,72.78Zm2.82,22.35c2.74-3.93,7-4.79,11.17-6,1.83-.52,3.19-2,5.11-2.37.72-.15,1.13-.25,1.54.32.56.78-.18,1.1-.61,1.46a56.25,56.25,0,0,1-11.83,7.28C135.21,96.92,133.74,96.32,132.07,95.13Zm77.07-70.64c.19,1.81-.47,2.74-2.38,2.46-2.22-.32-4.33.51-6.52.65a4.33,4.33,0,0,0-3.87,2.73c-3,6.51-6.52,12.81-9.79,19.21-2,3.87-3.87,7.84-5.76,11.78-.51,1.06.39,1.29.69,1.64,4.87,5.64,9.82,11.19,14.74,16.79.65.74,1.49,1.27,2.3.82,1-.56,2-.35,3-.63,3.7-1,5.72.52,5.92,4.5a1.31,1.31,0,0,1-1.4,1.53A94.94,94.94,0,0,0,192,88.1a44.58,44.58,0,0,0-6.74,1.68c-1.61.64-2-.08-2.48-1.19a2.86,2.86,0,0,1-.2-.48c-1.29-5.07-1.27-5.08,4-5.88,1.25-.19,3-.08,3.53-1.11s-1.11-1.75-1.77-2.55c-3.14-3.82-6.47-7.48-9.75-11.19a4.57,4.57,0,0,0-.65-.47c-4.08,6.66-7.34,13.78-12.44,20.25A44.07,44.07,0,0,0,172,85.83c1.34-.48,1.41-.13,1.59,1,.21,1.26.66,2.48.93,3.73s-.86,1.53-1.71,1.82c-5.48,1.79-11,3.54-16.44,5.33-1,.32-1.92.74-2.9,1.07-2.49.84-3,.37-4.62-3.56-.89-2.19.61-2.42,2.07-3a18.75,18.75,0,0,0,10.59-8.89c2.16-3.94,5.15-7.55,7.41-11.55q2.3-4,4.55-8.12c.65-1.14-.2-1.8-.75-2.66-2.68-4.22-7.41-6.28-10.47-10.1-3.22-4-8.18-6.32-10.74-11-.5-.92-1.45-.83-2.34-.53-1.14.4-2.31.69-3.47,1-1.33.38-3,1-3.62-.09-.91-1.64-1.81-4.05-1.22-5.55.67-1.74,3.27-2.41,5.24-2.92,5.82-1.53,11.7-2.85,17.56-4.22,1.09-.25,2.11-.25,2.39,1.27s.75,2.82,1,4.26c.18,1-.23,1.63-1.36,1.85-2.87.55-5.71,1.22-9.1,2a113.25,113.25,0,0,1,20,21c5.06-9.66,9.31-19.26,14.7-28.88-2.93.45-5.56.51-7.91,1.34-1.77.63-1.82-.15-2.28-1.26-.54-1.33.17-2.77-.62-4.12-.37-.63.58-.56,1.05-.67,5.62-1.33,11.34-1.94,17-2.78,2.85-.42,5.77.14,8.56-.88,1.33-.48,2.19.11,2,1.74A9.39,9.39,0,0,0,209.14,24.49Zm24.17.32c-3.45.08-3.53.05-3.43,3.46.35,11.56-.83,23.1-.56,34.67.1,4.34,0,8.68,0,13a4.69,4.69,0,0,1-.52,3.1c1.43,0,2.48,0,3.54,0,3,0,3.38.51,3.41,3.61,0,1.77-.67,2.29-2.36,2.26-5.4-.07-10.8,0-16.2,0-1.23,0-2.42.25-1.84-2,1-3.83.8-4.07,4.78-3.82,2.75.18,3.8-.63,3.39-3.4a37.6,37.6,0,0,1,0-4.25c-.34-12.78,1.61-25.49,1.14-38.28a47,47,0,0,1,.52-6c.23-2.41-1-2.68-2.76-2.34-3.43.65-4.55-.57-3.7-4,.22-.9.74-.83,1.34-.83,4.43,0,8.86-.14,13.28.06a2.86,2.86,0,0,1,2.94,3.1C236.17,25.4,234.51,24.78,233.31,24.81ZM271.86,27c0,1.54-1,1.57-2.16,1.61-4.59.16-4.89.16-5.18,4.47-.26,3.93-1.44,7.67-1.74,11.58C262.34,50.49,261,56.24,260,62c-1,6-1.12,12.25-3,18.14-1.08,3.34,2,2.89,3.5,3.57.94.41,1.74.43,1.84,1.72.15,1.89-.42,2.93-2.49,2.63a106.26,106.26,0,0,1-13.28-2.31c-1.47-.41-2.64-1.4-2.33-3.28s1.63-1.27,2.7-1.32c4.88-.25,5-.23,5.77-6.38.9-7.19,2.34-14.28,3.55-21.42.69-4.09,2-8.23,1.37-12.6-.27-1.78.56-3.78,1.16-5.51.86-2.45.44-5,1.25-7.39.26-.77-.19-.82-.76-1-.83-.21-1.6-.66-2.44-.85-1.51-.35-2.75-.94-2.46-2.75a2.47,2.47,0,0,1,3.2-2.23,12.82,12.82,0,0,0,1.69,0c3.51-.25,7.17,1.11,10.93,1.69C272.45,23.15,271.81,25.35,271.86,27Zm38.73,13.43c-.41,1.35-1.76,1-2.75.89a37.09,37.09,0,0,1-3.9-.84c-.51,3.93-2.34,7.29-3.56,10.86-1.65,4.83-3.45,9.63-5.32,14.35-2,5-3.21,10.15-5.49,15-.83,1.75-1,3.94-1.62,5.91-.26.86-1.17.58-1.3,1.62-.42,3.54-.11,4.63,3.87,6.19A2,2,0,0,1,292,96.89c-.14,1.57-1.41,1.4-2.42,1.28-3.44-.41-6.58-1.92-9.79-3.07-1.51-.54-3.29-.6-4.62-2.06-1.11-1.21-1.59-2.38-1-3.65s2-.93,3-.44,2,.06,3,.65,1.36-.6,1.55-1.25c1-3.27,1.71-6.62,2.82-9.84,1.28-3.67,2.71-7.31,4-11,1.47-4.19,2.82-8.47,4.56-12.55,1.91-4.45,2.54-9.36,5.13-13.56.62-1,.59-2.69-1-3s-2.23-1.34-3.23-2.33a2.53,2.53,0,0,1-.8-3c.56-1.4,2.1-1,3.05-.74,3,.86,5.86,2,8.76,3.06,1.37.5,2.72,1.07,4.05,1.66A2.52,2.52,0,0,1,310.59,40.38ZM324.68,60c-.27.35-.8.74-1.08.27-1.3-2.08-3.47-.64-5.11-1.34-.6-.25-1.72,0-1.71-.79,0-1,1.07-.84,1.83-.85h2c2.65,1.26,5-1,7.5-1.94s4.83-1,7.21-1.68a.91.91,0,0,1,1.1.48c.32.55-.26.75-.53,1-.95.84-2.25.69-3.36,1.08C329.78,57.14,326.69,57.41,324.68,60Zm19.93,67.48c-2.19.45-4.05,2.17-6.52,1.66.65.65,2.09.49,1.71,1.69-.44,1.37-1.34.22-2.07.06a10.79,10.79,0,0,0-2.34-.22c-1.34,0-3.16,1.64-3.56-1.3-.06-.38-1.66-.62-2.57-.8-.62-.12-1.46-.23-1.32-.86s.87-1.57,1.75-1.24,1.72-.08,2.3.32c3.76,2.61,7-.15,10.45-.87a9.17,9.17,0,0,0,1.46-.46c.83-.31,1.33.52,1.6,1.07S345.12,127.34,344.61,127.45ZM366.37,103c1.24,0,2.48,0,4.17,0,2.48.41,5.21-.69,8-1.07.51-.07,1.25-.8,1.5.17.15.6-.58,1.11-1.06,1.27-1.85.66-3.75,1.56-5.65,1.63-2.38.08-4.68.78-7.05.64-.81,0-2.17.35-2.16-.75A2.23,2.23,0,0,1,366.37,103Zm6.54,57.63c.35-2.22.33-3.62,1.55-4.88-3.36-.42-6.49-.83-9.63-1.19-.78-.09-1.55-.34-1.42-1.14s.83-.72,1.76-.66c7.53.48,14.82,2.88,22.4,2.84a5.14,5.14,0,0,1,2.53,1C384.38,158.3,378,154.82,372.91,160.63Zm36.95,29.63a8.23,8.23,0,0,1-3.26-.32c-1.46-.58-1.82-.28-1.85,1.23,0,1.88,0,1.29-1.71,1-2-.35-3.05-1.87-4.67-2.46-2.31-.84-4.71-1.27-6.86.66a6.23,6.23,0,0,1-2.07,1c-.78.28-1.68,1.61-2.41.3s.82-2.1,1.63-2.44c1.08-.46,2.13-1,3.11-1.43a11.83,11.83,0,0,1-1.71-1.59c-1.08-1.46-.34-2.52,1.44-3,6.22-1.84,12.66-.37,18.92-1.5,1-.18,2.82-.66,3.07.61.28,1.46-1.75,1.83-2.67,1.82-3-.06-4.74,3.53-8,2.55,3.74,1.31,7.68,1,11.57,2.28C413.1,190.58,411.39,190.21,409.86,190.26Zm11.6,37.83c1.46-.43,2.31,1.42,2.34,2.77.06,2.22-1.23,3.5-2.95,3.44-2.07-.08-3.34-1.66-3.32-4.05C417.56,227.31,420.17,228.47,421.46,228.09Z"/><path class="cls-2" d="M266.69,214.51c-10.69,2-20.46,6.07-30,11.18,30.38,21.84,66.14,19.23,86.58,1.25-1.39-1.19-3.35-1.46-4.58-2.93-.66-.79-.81.11-1.25.48-2,1.68-3.88,3.82-6.8,3.94a43,43,0,0,1-6.9,0c-2.72-.33-5.38-1.12-7.07-3.59-1.87-2.75-1-8,2.13-10.62C288,212.06,277.41,212.52,266.69,214.51Z"/><path class="cls-2" d="M178.63,211.45c-4.67,0-9.18-.4-13.71,0-1.85.15-3.79-.3-5.56.1-10.29,2.34-20.68,4.34-30,9.72-5.31,3.06-5.36,2.69-.41,6.2,6.65,4.72,14.15,7.39,21.88,9.47,4.67,1.25,9.5,2.7,14.32,2,4.27-.57,8.57.09,12.8-.88,3.6-.82,7.25-1.44,10.85-2.27,6.3-1.46,10.42-6.55,16-9.11,1.8-.83,1.36-1.93.12-2.65-2.69-1.57-5.24-3.32-7.82-5.06-.1-.06-.79-1.1-1.28.15-2.52,6.33-5.36,8.14-11.85,7.72-4.44-.29-8.36-3.46-7.9-8.15C176.32,216,177.83,213.94,178.63,211.45Z"/><path class="cls-2" d="M39.56,287.29c0-2.08-1.51-4.36-1.28-5.62.54-2.94-1.29-4.57-2.11-6.68-.7-1.81-1.85-3.34-4.5-2.52-1.23.38-3.56.91-4.08-.62s1.62-2.35,2.92-3.43c-2.94-1.76-6.3-2.36-9.32-3.76a2.44,2.44,0,0,0-2.2.47c-2,1.27-4.34,1.08-6.59.74-.54-.08-1.22-.34-1-1.21s.78-.57,1.26-.58c1.44,0,2.87,0,4.34,0-3.79-7-3.27-14-1.91-22-1.82,1.94-3.35,3-4.4,4.67-.28.45-1.3,1.45-2.18.35s.29-1.19.82-1.65c2.65-2.31,4.9-5,5.69-8.47.64-2.77,1.39-5.66.08-8.5-3-6.59-6-13.16,0-19.79.76-.85,2.21-2.17,1.37-3-1-1-2.88-.81-4.41-.42a9.66,9.66,0,0,0-2.13.88c-1.26.68-2.34.82-3.14-.93-2,37,3.15,72.49,18.72,106.29C26,310,26,310,28,308.71,35.69,303.65,39.62,296.57,39.56,287.29Zm-12-4.66c-.35.75-1.28,1.09-1.38,2.13-.06.69-.63,1.54-1.5,1.32s-.83-1.25-1-2.42a5.39,5.39,0,0,0,.44-2.35c-.09-.94-.23-2.08,1.1-2.3.74-.12,1.67-.36,2.21.4A3.13,3.13,0,0,1,27.55,282.63Z"/><path class="cls-2" d="M176.62,389.91c.37-.52.9-.88.24-1.54a26.68,26.68,0,0,0-6.45-5.23c-3.86-2-7.53-1.43-11.24.5-1.12.58-2.14,1.85-3.7,1.16a.57.57,0,0,1-.93.34l.5-.72c4.89-3.34,9.91-6.21,16.31-4.45,0-.74.3-1.77,0-2.09-2.32-2.17-1.73-5-2-7.66-.13-1.17-.39-1.27-1.69-1.62-2.9-.76-5.56.24-8.28.33-4.37.15-7.56,2.83-9.61,6.62a37.75,37.75,0,0,0-1.75,4.78c-.77,2.1,2.28,1.58,2.71,3.09.06.23.4.38.47.62.15.51.51,1.25.89,1,3.48-2.07.72,1.45,1.8,1.77,3.12-1.83,5.72.82,8.64,1.54a21.29,21.29,0,0,1,4.7,2.07c.35.18,1.29.52.62,1.34-.41.5-.77.33-1.33.05-2.54-1.25-5.13-2.42-7.74-3.51-3.77-1.59-6.56-.6-8.61,2.91-.92,1.56-1.95,3-2.83,4.63-3.9,7-4.27,12.78,2.07,19.18,3,3.06,7,4.65,10.8,6.6a14.09,14.09,0,0,0,14.51-.51c1.28-.76,1.61-1.47.22-2.44a17.84,17.84,0,0,0-1.84-1.46c-1.24-.64-1.52-1.36-.56-2.45,1.22-1.41.67-2.8,0-4.23-1.66-3.56-2.5-7.21-.74-11C173.25,396.29,174.53,392.89,176.62,389.91ZM157,413c0,.36-.48.69-.75,1-.71.91-1.62,1.5-2.72.91s-1-1.89-.56-2.81a24.72,24.72,0,0,0,2-7.14c.08-.65.33-2,1.38-1.82s.62,1.29.65,2.05c0,.35,0,.7,0,1.45,1.3-.92,1.39-2.5,2.77-2.75C160.42,407.37,157.16,409.68,157,413Z"/><path class="cls-2" d="M46.62,275.92a20.23,20.23,0,0,0,6.42-.17c3.82-.49,7.07-2.09,8.91-5.65a23.6,23.6,0,0,0,2.73-14.45c-.61-4.63-2-8-6.6-9.43-8.9-2.81-13.16-1.65-18.94,5.92a19.06,19.06,0,0,0-3.94,14.27c-4.48-.33-3-3.49-2.7-6.5-1,1.11-1.9,1.7-2.12,2.5-.75,2.68-2.48,1.84-4.15,1.37-.58-.16-1.12-.45-1.71-.57-1.16-.25-2.37-.6-3.68.74,7.32-.07,12.57,3.59,17.63,7.79A17.6,17.6,0,0,0,46.62,275.92Zm1.93-10.67c1.63-.47,2,1.34,2.61,2.4.33.57.3,1.37.65,1.93,1.38,2.23-.63,2.34-1.79,3-1.4.83-2.21.69-2.58-1.09-.2-.95-1.41-1.6-.94-2.78A2.78,2.78,0,0,1,48.55,265.25Z"/><path class="cls-2" d="M187.33,423.5c.83-.1,2.16.11,2.43-.77.17-.57-.61-1.56-1.37-2.08-1.37-.94-.71-2.21.27-2.2,2.93,0,4.33-2.38,6.44-3.6,1.68-1,3-2.5,2.15-4.89l-1.4.76c.33-3.72,2-7,3.73-10.18,1.89-3.45,5.47-5.32,8.58-7.55,1-.72,2.8-1.64,2.7-2.26-.27-1.73-1.87-2.85-3.35-3.82-.34-.22-.85-.22-1.17-.46-6.15-4.49-12.83-4.75-19.68-2.16a13,13,0,0,0-6.2,4.29c-.65.88-.07,2.32-1,2.56-3.54,1-3.72,4.34-5,6.82s-2.23,5.1-1,7.94c.14.33-.41,1,.69.85,2.63-.34,3.86,1.67,4.87,3.57S178,415,175.93,415c-1.38,0-1.38,0-2,.76,1.16,1.69,3.41,2.24,3.93,4.55.73-.6.38-1.26.43-1.83.12-1.34,0-2.07,1.94-2.88,2.57-1.06,2.27,1.55,3.67,1.56,1.19,0,.72,1.17.76,1.88.06,1-.8.61-1.28.85-1.35.66-2.84.39-4.25.79-1,.28-1.32.35-1.35,1.25,0,1.09.52,1.44,1.57,1.69C182,424.24,184.68,423.82,187.33,423.5Zm-.63-35.67a2.63,2.63,0,0,1,1-.73c.1,0,.59.49.59.76,0,4.46,2.27,8.55,2.21,13.28a14.61,14.61,0,0,0,2.19-1.36,14.53,14.53,0,0,0,1.5-1.95c2.18,2.8,2.14,7.31.27,9.28-.6.63-.82-.05-1.24-.18-3.76-1.17-4.53-4.38-4.76-7.57s-1.5-5.85-2-8.82C186.31,389.59,186,388.66,186.7,387.83Zm-5,22.09c-.39-1.57,1.44-2.69,2.61-3.81s2.08-.65,3.08-.06a3.76,3.76,0,0,1,1.57,1.36c1.42,3,4,3.38,6.88,3.4.53,1,.36,1.54-.93,1.61-1,.06-1.58-.71-2.64-.85-.22,1.13.11,2.64-1.28,3.28-1.66.78-3.33,0-4.83-.47A6.5,6.5,0,0,1,181.67,409.92Z"/><path class="cls-2" d="M115,393.52a48.4,48.4,0,0,1,5.76-7.39c1-1,1-1.69.39-1.89-4.11-1.25-8-3.13-12.58-2.77-5,.4-9.1,1.87-11.67,6.45a22.81,22.81,0,0,1-2.2,3.49c-.6.73-.78,2.68-2.08,1.89s.54-1.85.62-2.89c0-.67,1.79-1.2.61-1.8s-.68-1.31-.67-2.08c0-1.86.12-3.73,0-5.57-.25-3.29-1.66-6.08-4.7-7.52a15,15,0,0,0-13.27.06c-1.88.86-3.88,3.19-6.26.42a1.61,1.61,0,0,0,.81,1.56c5,4.44,9.83,9,15,13.23a89.64,89.64,0,0,0,10.42,7.82c2.47,1.46,5.11,2.76,7.13,4.82,3.2,3.25,7.68,4.48,11.09,7.36a2.14,2.14,0,0,0,2,0l.08-.06c-.79-2.28-.7-4.76-1.62-7C112.77,398.76,113.4,396.07,115,393.52Z"/><path class="cls-2" d="M230.17,364.48c-2.83-.1-4.89.53-6.25,3.09s-3,5.13-.83,7.81c1.64,2.05,1.48,4.18,1.38,6.45a12.9,12.9,0,0,0,.06,4.12c.44,1.47,6.65,3.68,8.22,3.18,3.23-1,6.44-2,9.92-1.75a3,3,0,0,1,3.1,2.59c.22,1.09.82,2.11.59,3.3-.18,1,.1,1.44,1.33,1.66a36,36,0,0,0,12.45.43,7,7,0,0,0,5.43-4.63c.58-1.44-1.08-1.7-1.71-2.47s-1.51.16-1.88.55c-.93,1-.78,1-1.84.21-.6-.46-1.59-1.74-1.71.51,0,.81-1.31,1.55-1.92.12-.5-1.16-1.48-1.26-2.41-1.78-.33,1,1.55,2.07-.18,2.65-1.42.47-1.48-.92-1.68-1.73s-.63-.63-1-.9a12.62,12.62,0,0,0-4.33-1.54c-4.17-1-6.17-5.72-3.6-8.75a8.65,8.65,0,0,1,3.89-2.45c1.37-.46,2.9-.47,4.12-1.42,2.49-1.94,6.4-1.73,7.89-5.23.23-.52,1.3.13,1.53-1.08a7.67,7.67,0,0,1-3.77-1.86c.69,3.64-2,4.29-4.17,4.7-1.93.37-4.47-.32-5.12-2.27-1-3,2.11-4.13,3.74-6-1.54,1-3.18.24-4.72.53C241.22,363.51,235.75,364.68,230.17,364.48Z"/><path class="cls-2" d="M225.72,402.59c.85-.12,1.25.85,1.54,1.78a40.58,40.58,0,0,1,2.3,12c1.47-2.5,2.78-5,4-7.5,2-4.21,3.73-8.68,8.91-9.84a5.78,5.78,0,0,0-3.21-4,49.34,49.34,0,0,0-13.16-4.33c-3.1-.56-6.26-1-9.58-.24s-5.76,2.95-8.5,4.68c-4.26,2.7-6.77,6.7-8.91,11.11-1.54,3.15,1.53,5.75.7,8.92-.27,1.06,1.67-.67,2.61-.05.14.1.37.17.41.3.58,1.73,2.39,2.22,3.45,3.45,2.29,2.64,4,2.6,5.88-.3.63-1,1.1-2.1,2.49-1.9s2.86.57,4.27.93c3.12.81,7.44-3,6.6-6.16-.6-2.29-.25-4.53-.42-6.79C225,403.9,224.82,402.73,225.72,402.59Zm-16.61,8c-.84,1.08-1.89,1.18-2.52,0-.42-.79-.58-.66-1-.2-1,1.13-2.39,1.78-3.18.16-.69-1.42.09-2.81,1.71-3.55a3.39,3.39,0,0,1,1.75-.38c1.31,1,2.43.49,3.56-.92a1.34,1.34,0,0,1,2.05.44C212.3,408.34,210.18,409.21,209.11,410.56ZM206.76,404c-1.79.23-3.34-.64-2.82-2.19s1.41-3.26,3.25-3.76c2.46-.66,5,.31,5.13,2A6.4,6.4,0,0,1,206.76,404ZM218,410.81a4,4,0,0,1-4.07-4.11c0-2.46,2.12-5,4.08-4.93,2.24.05,5,2.93,4.93,5.19C222.89,408.72,220.12,410.88,218,410.81Z"/><path class="cls-2" d="M87.11,352c2.21,2.62,5.4,4.45,5.27,8.41,0,.58.68.64.91.64,3.31.07,6.61,0,8.82-3.18a4.78,4.78,0,0,1-.8-.43c-1.13-.91-2.19-2-1.65-3.56s2-1.91,3.48-1.42c1.2.4,1.3-.59,1.74-1.08,1.56-1.7,2.54-4,4.71-5.06,1.86-.93,1.89-.87,1-2.95-.59,2-2.08,2.86-4.42,2.49-3.13-.5-4.42-1.82-4.47-4.61,0-2.13,1.68-4.64,3.39-4.11s4.42.44,4.23,3.67c1-.6,1-1.23,1.15-2a25.17,25.17,0,0,1,3.34-8.28c1.28-2,1.62-2.43-.35-4.47a10.85,10.85,0,0,0-1.58-1.38c-5.61-3.75-11.73-3.86-17.65-1.48-4.8,1.93-7.64,5.7-8.67,11.25-.84,4.61,1.54,8.88.18,13.41.94-1.56,1.69-3.44,3.79-2.88a2.8,2.8,0,0,1,2.09,3C91.47,350.9,89.47,351.71,87.11,352Zm11-8.68c1.8-.17,4.19,2.4,4.18,4.23,0,2-1.32,3.2-3.55,3.17s-3.43-1.28-3.35-3.63C95.42,345.25,95.91,343.54,98.08,343.33ZM91.7,354c.24-.82.42-2.17,1.58-2.06a1.81,1.81,0,0,1,1.56,1.91c0,1.16-.66,2-1.44,2S91.33,355.24,91.7,354Z"/><path class="cls-2" d="M280.25,429.41h.12l0-.05Z"/><path class="cls-2" d="M278.1,427.14c.09-.18.35-.77-.26-.65-1.24.23-3.11-.91-3.36,1.62a2.41,2.41,0,0,1-2.22,2.25,31.13,31.13,0,0,0-11.93,1.54c-1,.32-2.95.23-3.31-1.64-.26-1.33,0-3.43,1.29-3.23,2.26.35,4.15-.95,6.46-.56,1.55.27,4.41.52,5.16-2.6a3.24,3.24,0,0,1,3.16-2.61c1.44-.05,2.33-3.31,1.6-4.75-1.46-2.9-2.84-5.86-4.42-8.7-2-3.54-1.1-4.85,3-6.54,4.25-1.77,8.57-1,12.81.28a2.14,2.14,0,0,0,.15-.56,1.49,1.49,0,0,0-.2-.75,14.15,14.15,0,0,0-10.24-5.42c-4.35-.31-8.36,1.05-12.53,1.81a15,15,0,0,0-7.88,4c-5.13,5-8.12,11.23-6.72,18.55.44,2.32-1.23,5.91,2.74,7.06.39.11.53,1,.81,1.56.15.28-.27.74.57.78a4,4,0,0,1,3.54,4c.11,2.86,1.82,2.12,3.16,1.93a86.86,86.86,0,0,0,9.21-1.73c3.9-1,7.95-1.48,11.59-3.37C278.89,429.3,276.67,430.06,278.1,427.14Zm-12.41-19.51c1.58-.12,4.54,2.27,4.58,3.69,0,1.64-2.2,4.73-3.47,4.79-2.22.11-4.38-1.53-4.51-3.41S264.2,407.74,265.69,407.63Zm-16.14,7.59c.08-1.61,2.39-4.45,3.57-4.4,1.61.07,4.86,2.82,4.92,4.17.09,2-1.94,3.77-4.44,3.79C251.61,418.8,249.46,416.92,249.55,415.22Zm5,8.27c.8-1.13,1.7-3.05,2.73-2.89,1.63.27,3.86-1.53,5,1.11a4,4,0,0,1,.46,1.74c.09.61-.35,1.62-.62,1.48-2-1.11-3,.81-4.52,1.21C255.75,426.67,255.83,424.17,254.59,423.49Z"/><path class="cls-2" d="M80.52,350.18a16.9,16.9,0,0,0-10.21,2.21,7.2,7.2,0,0,0-3.64,3.82c-2,6.1-1,11.49,3.6,16.18.61.62.68.6,1.34.26a21.12,21.12,0,0,1,18.74-.56c.61.26,1,.8,1.31-.26.82-2.95,3.09-5.08,4.67-7.81a12.59,12.59,0,0,0-1.27,0c-2.22.23-3.57-.06-3.58-3a6.81,6.81,0,0,0-3.1-5.39c-3.61-2-4.69-4.73-4.17-8.45.34-2.49-.71-3.72-3.1-4.12a10.57,10.57,0,0,1-5.39-2.3,2.83,2.83,0,0,0-3.23-.6,21.33,21.33,0,0,1-8.8,1.55,10.43,10.43,0,0,1-.88,7.21c-2.17,4.94-1.81,7.37,1.51,10.26-.11-.49-.38-.94-.26-1.22a19,19,0,0,1,4.71-6.69c.6-.53,1.18-.65.75-1.79-.86-2.26.51-3.88,2.26-5.07s3.77-1.87,5.54.51c-2,.94-3.82,1.79-5.64,2.7a1.29,1.29,0,0,0-.74,1.54.54.54,0,0,0,.8.4c2.82-1.24,5.82-.83,8.76-1.07.81-.06,1.58-.84,2.34.1a.72.72,0,0,1,.1.94C82.32,350.47,81.35,350.26,80.52,350.18Zm-14.91,1.26c-1.38.23-1-.95-1.09-1.67-.3-1.72.81-2.1,2.12-2.21,1.07-.09,1.61.47,1.6,1.57C68.21,350.86,66.89,351.24,65.61,351.44Z"/><path class="cls-2" d="M28.28,226.14c2.51-6.76,5.09-13.5,8.26-20,1.38-2.81,3-5.61,3-8.94,0-.88.17-1.44-1.14-1.81a12.6,12.6,0,0,0-6.62.37c-3.88.94-7.37,2.49-9.84,6.25-2.31,3.5-5.16,6.66-7.06,10.46a9.91,9.91,0,0,0-1.37,5.95c.11.74.39,1.73,1.11,1.11,3.46-3,8.29-4.73,9.66-9.86a1.8,1.8,0,0,1,2-1.4c1.06.15.81,1.1.92,1.73.55,3-4.26,10.49-7.36,11.53-5.94,2-6,2-2.47,7.21A20.32,20.32,0,0,0,29.73,237c4.91,1.23,9.37-.05,14-1.92-1.17-.29-2.2-.86-3.1-.7-3.83.67-7.54-.17-11.29-.62a2.35,2.35,0,0,1-2.26-2.64A19.53,19.53,0,0,1,28.28,226.14Z"/><path class="cls-2" d="M121.86,331.07a16.65,16.65,0,0,0-1.27,5.5c-.23,2.37-1.43,5,.08,7.16a79.3,79.3,0,0,1,4.65,7.74c1.12,2,2.52,3.71,3.12,6.12s4.28,4.18,6.32,4c2.67-.28,5.93-2.83,6.23-5.49a17.9,17.9,0,0,1,6.48-12.49c-7.63-5.64-15.33-10.75-22.3-17.26C124.45,328.25,122.7,329.27,121.86,331.07Z"/><path class="cls-2" d="M49.09,220.45c-.4,0-.77-.67-1.14.27-.5,1.28-1.26,2.44-.33,3.79s1.28,3.1,3.67,3a32.46,32.46,0,0,1,8.39.38c3.86.77,4.07.38,4.34-3.59,0-.56.47-1.07-.45-1.32-.28-.08-.89-.77-.22-.92,1-.22,1.94-.76,2.76-1,2.44-.71,2.75-.57,3.86-2.48a13.45,13.45,0,0,0,2-8.05c.44-2.1-.46-4.2-.57-6.39-.3-5.66-2.86-10-8.22-12.41-1.43-.64-2.93-.93-4.16.13a17.19,17.19,0,0,1-3.8,2.19c-2.65,1.27-3.77,3.59-4.5,6.26-.85,3.05.78,6.32-.94,9.33-.38.67.48,1.06,1.21,1.35,3.41,1.34,4.67,3.53,4,6.66C54.56,219.32,52,220.59,49.09,220.45Zm15.41-12.2a4.94,4.94,0,0,1,4.79,5.11c-.07,2.3-3,5-5.56,5-2,0-5.07-2.47-5-4.11C58.72,211,61.52,208.14,64.5,208.25Zm-9.28,12.24c.5-.11.91.57,1.55-.35,1.22-1.74,2.42-.17,3.44.59,1.3,1,1.69,2.26.65,3.61s-2.08.75-3.11-.11a12.53,12.53,0,0,0-1.57-.94c-.21,1.13-.6,2.41-1.87,2.37a1.74,1.74,0,0,1-1.46-2.13C53.14,222.17,53.59,220.84,55.22,220.49Z"/><path class="cls-2" d="M316.35,407.59c-1.34,1-1.49.17-2.05-.75a3.88,3.88,0,0,1,.61-4.56c1.2-1.39.55-1.84-.28-2.7-2-2.1-2-2.11-.85-5,.19-.49-.31-.75-.51-1.12-3-5.48-8.31-6.13-13.7-6.55-4.22-.34-8.34.07-12,2.5,1.76,2.71,1.6,6,1.14,9.12a8.59,8.59,0,0,0,2.06,6.78,7.83,7.83,0,0,1,1.78,4.79c.08,1.38,0,2.77,0,4.19,2.74-.15,4.31-2.46,6.93-2.93s5.24-.46,7.79-1.44c1-.37,1.62-.14,1.88-1.45.18-.93.7-1.82.89-3-1.52,0-2.85,0-4.17,0-1.92-.07-2.86-.95-2.73-3,.15-2.41,2.64-6.08,4.93-6.83a2.62,2.62,0,0,1,3.14,1.28c1.11,1.7,2.17,3.58.9,5.67a2.65,2.65,0,0,0,0,2.91,6.43,6.43,0,0,1,0,5.75,30.57,30.57,0,0,0-1.24,3.54c2.83-1.47,5.16-2.58,7.37-3.91.41-.25,2.33-.44,1-1.64C318.51,408.48,318.12,406.27,316.35,407.59Z"/><path class="cls-2" d="M96.62,320.3c0-1.27-1.11-1.67-1.62-2.53-1.46-2.45-2.55-5.78-6.52-5.34a3.89,3.89,0,0,1-1.23-.33c-4.52-1.13-12.73,1.33-15,4.69-2,2.9-3.64,6-3.44,9.71a14.07,14.07,0,0,0,3.66,8.77A18,18,0,0,0,83.86,342C82.25,331.15,86,323.5,96.62,320.3Z"/><path class="cls-2" d="M332.68,384.33c-.31-.24-1.1-.26-1.12-.42-.26-3.54-2.3-1.11-3.4-.89-1.32.26-2.56.9-3.91,1.25-4.5,1.15-9.41.57-13.57,3.17a34.82,34.82,0,0,1,5.64,8c.67,1.4,1.38,3.29.55,4.32-1.48,1.83.76,2.14.79,3.22.55-.22.95-.71,1.1.52a3.74,3.74,0,0,0,3,3.09c1.29.39,2.61,1.42,1.09,2.84-1.18,1.09-1.2,2.19-1.23,3.81,2.59-1.39,4.87-2.63,7.17-3.84,1.87-1,1.44-1.71,0-2.92-3-2.53-6.44-4.63-7.32-9-.69-3.44.31-7.08,2.86-8.22.12,2.29-1.46,4.4-1.29,6.45.63,7.28,5.63,9.31,12,6.9a5.38,5.38,0,0,0,3.67-4.93c.23-2.65-1.31-4.89-1.17-7.28C337.7,386.69,334.75,386,332.68,384.33Z"/><path class="cls-2" d="M310.62,387.48l.06,0h0Z"/><path class="cls-2" d="M53.39,310.49c0-.37-1-1,0-1.17,1.86-.26,2-2,3.32-3.36-1.72.57-2.55-.57-3.74-1a7.82,7.82,0,0,0-.16,1.17c0,.84-.47,1.91-.93,1.92a3.74,3.74,0,0,1-2.55-1c-.8-.84.12-1.54.72-2.2a11.85,11.85,0,0,0,1-1.5c1-1.61,1.54-.23,2.29.68-.26-2.34.88-3.26,3-3.4a7.44,7.44,0,0,0-1-1.17c-1.94-1.51-2.08-3.36-.89-5.32s3-2.23,5.2-1.39c1.92.73,2.58,2.27,3.61,3.77.72,1,1.59,1.54.72,3s-1.43,2.7-3.43,2.4a22.46,22.46,0,0,0-3.38,0c.7,3.26,2.33,1.83,4.31,1.29,4-1.09,4.83-3.66,4.54-7.2a4.94,4.94,0,0,1,.35-1.77c.76-2.91-.26-5.45-1.81-7.87-1.38-2.15-2.47.39-3.83.24-2-.22-3.88-.81-5.83-1.15-3-.53-3.21-.95-1.69-3.43.53-.86,1.4-1.82-.51-1.89a47.91,47.91,0,0,0-7.19,0c-4.12.49-4.49,1.07-4.49,5.31,0,1.59.06,3.18,0,4.77,0,.93.43,2-.43,2.77-1.19,1.07-1.84,2.48-.67,3.64,1.44,1.44,2.47-.14,3.47-1.08.25-.24.46-.59.76-.72,1.34-.58,2.76-1.47,4.19-.71a3.47,3.47,0,0,1,1.78,3.79,6.88,6.88,0,0,1-.59,2.49A13,13,0,0,1,45,305.22c-.66.43-2.12,1.55-.6,2.09,1.88.67,1.32,1.53,1.07,2.72-.33,1.6-.07,2.39,1.89,1.51.84-.38,2.34-.74,3,.31s1.7,1.21,2.09,1A2.61,2.61,0,0,0,53.39,310.49Z"/><path class="cls-2" d="M62.81,330c-1.14.61-.6,3.16-2.87,2.82a3,3,0,0,1,.26.71,4.2,4.2,0,0,0,1.34,2.75,14.13,14.13,0,0,1,4.14-4.35,3,3,0,0,0,1.52-3c0-2.2-.43-4.55.16-6.6a17,17,0,0,1,7.51-9.91c.21-.13.66.18.57-.49-.45-3.75,3.15-4.56,4.8-6.9A7.22,7.22,0,0,0,73,302.5c-2.77.75-5.59.58-8.34,1.39a15.19,15.19,0,0,0-8.6,6.49,16.81,16.81,0,0,0-2.68,10.88c.13,1.67-.6,4.3,2.72,2.4.22-.12.66.1,1,.21a3.58,3.58,0,0,1,1.41,5.82c-1.34,1.46.31,1.16.35,2a23.47,23.47,0,0,1,1.48-3.5c.8-1.27,2.05-.89,3-.19C64.37,328.81,64,329.34,62.81,330Zm-2.34-6c-1.51.24-1.33-1.79-1.62-2.74s1.1-2.37,2-2.21a4.32,4.32,0,0,1,2.54,2.3C63.68,324.32,61.41,323.8,60.47,324Z"/><path class="cls-2" d="M148.13,352.84c-.22,2.12,2,3.34,1.54,5.64a28,28,0,0,0,.82,12.71c1.93-1.72,3.53-3,5.8-3.52a41.64,41.64,0,0,1,11.17-.95,1.9,1.9,0,0,0,2.26-1.56,37.93,37.93,0,0,0,1.06-6.64c.06-1.93-.31-4-3-4a5.67,5.67,0,0,1-2.18-.8A66.75,66.75,0,0,1,151,345.45c-.84-.6-1.65-.85-2.4-.33-3,2.12-4.08,5.56-5.29,8.77a4.71,4.71,0,0,0,1.25,5.64,5.25,5.25,0,0,0,.83-2.21,10.28,10.28,0,0,1,1.65-4.24C147.34,352.66,148.19,352.22,148.13,352.84Z"/><path class="cls-2" d="M201.15,369.62c-.3-1.69-1.8-2.11-2.8-2.7-2.32-1.37-3.72-3.83-6.51-4.68-4.51-1.38-9.19-2.29-13.49-4.31a1.59,1.59,0,0,0-1.69,0c-4,2.46-6.6,10.8-4.75,15.63l0,0c.54,2.16,1.14,4.31,1.56,6.5.12.62-1.09,1.5,0,2s1.42-.59,1.87-1.36a1.2,1.2,0,0,1,2-.31c.87.74.06,1.14-.28,1.73s-1.07,1.18-.68,2.05c.83.24,1.14-.43,1.53-.85.59-.64.87-.41,1.4.13s0,2.57,1.42,2.18-.24-1.82.22-2.75a3.66,3.66,0,0,0,.1-1.21c.68.89,1.23,1.62,1.78,2.36.3-1.32.42-1.3,2.05-1.05a.75.75,0,0,0,.69-1.22c-.46-.74.36-1,.39-1.58a7.15,7.15,0,0,1,1.14,1c.34.41.33.8,1.21.61s.78-.66,1-1.22-.12-1.11.6-1.39c.05,2.61,2,2.12,3.43,1.87,2-.36.6-1.7.4-2.61-.38-1.77-.75-3.15,2-3.52,1-.14,4-.28,3.12-3.31C198.67,371,199.15,368.85,201.15,369.62Zm-24.36,3.78c-1.54,1.93-2.53,2.05-4.88.17-.25-2.68,1.45-4.47,2.94-6.34a2.06,2.06,0,0,1,2.66-.36,2,2,0,0,1,1,2.57A11.23,11.23,0,0,1,176.79,373.4ZM185,377a1.23,1.23,0,0,1-2-.29c-.83-1.16-.9.19-1.27.54-.71.67-1.39,1.75-2.49,1.17-1.32-.69-1.25-2-.74-3.22a7,7,0,0,1,3-3.82c1.27,1.2,3.31,1.25,4.11,3A2.36,2.36,0,0,1,185,377Zm4.37-6.64c-2.89,0-5.28-1.77-5.23-3.83s2.16-3.62,5.11-3.61c2.62,0,4.43,1.5,4.46,3.66S192,370.42,189.37,370.4Z"/><path class="cls-2" d="M295.72,371.18c-.59,1-.57,1.58.2,2.28,2.4,2.2,3.68,5.21,5.69,7.71a6.82,6.82,0,0,0,9.57.79c2.05-1.76,2.71-4.73,5-6,4.37-2.41,4-6.61,3.73-10.21a13,13,0,0,0-6.59-10.71c-3.73-2.2-4.85-2.53-8,.28a17.8,17.8,0,0,1-5.77,3.31c-.59.22-1.48.27-1.44.88.13,1.83-1.27,3.22-1.26,5-.55.16-.47.62-.5,1,.46.07.61-.34.87-.59,1.16-.09,1.56.18.9,1.39C297.21,367.91,296.66,369.66,295.72,371.18Zm15.6-9a3.77,3.77,0,0,1,4.36.74c1.2,1,3,1.47,3,3.6,0,3.12-2.78,5-5.5,3.39a7.48,7.48,0,0,0-1.93-.62c-1.43-.41-2.63-1.11-2.15-2.83A4.19,4.19,0,0,1,311.32,362.18Zm-1.92,9.3c.57,0,1.22.46,1.05.78-.31.59-.17,1.83-1.62,1.57-.72.38-1.07-.33-1.07-.87C307.74,372,308.47,371.54,309.4,371.48Zm-2.49,1.64c0,1.65-1.39,1.69-2.37,2-1.18.42-1.34-.72-1.77-1.4,1.48-.62.94-3.12,2.57-3.22S306.18,372.38,306.91,373.12Zm-5.74-11.81c.59-.91,1-2.26,2.95-1.74s1.72,1.83,1.77,3.18-.1,2.61.09,4c.28,2-2,2.83-3.51,3.56-1.31.65-2.14-.16-2.56-1.93A8.62,8.62,0,0,1,301.17,361.31Z"/><path class="cls-2" d="M57.48,279.61c-1.46.53-2.32,1.05-1.9,2.25.85,2.44,5.09,3.95,7,2.38s3.35,0,3.86,1c2.67,5,4,10.35,1,16.66,1.79-1.15,3.46-.63,4.43-1.48,2.85-2.5,6.23-4.35,7.72-8.41s1.65-8-.23-11.92a1.58,1.58,0,0,0-1.58-1.1c-2.54.05-4.95-.82-7.43-1.17-5.46-.78-6.16-1.64-6.6-5.8-7.3,7.3-15.71,7.38-24.89,3.18l1.26,4.53A29.92,29.92,0,0,1,57.48,279.61Z"/><path class="cls-2" d="M121.46,371c.5-2.38,2.19-3,4.41-3.1-2.46-.94-3.92-3.1-6.38-3.93-4.76-1.63-9.52-1.52-14.4-1-5.17.54-10.44,4.56-11.7,9.23-.51,1.92,0,3.44,2.06,4.06,2.67.78,5.92.52,7.06,4,.13.39.38.21.59.15,3.5-1,7.13.06,10.64-.58-.84-2.86,0-5.28,1.44-7.7C117.14,368.85,118.42,368.49,121.46,371Z"/><path class="cls-2" d="M349.17,364.26a25.37,25.37,0,0,0-9.22-6.33c-5-2.11-7.12-1.81-10,1.38a8.19,8.19,0,0,0-1.68,6.09c.23,4.77,2.92,8.72,5.22,12.85a41.6,41.6,0,0,1,.05-4.18c.05-.51-.87-1.14.05-1.48a1.58,1.58,0,0,1,1.89.59,30.09,30.09,0,0,1,2.78,3.73c1.74,3.17,4.05,4.86,7.87,4.19a3.13,3.13,0,0,0,2.82-2.28c.86-2.38,1.41-4.9,3.9-6.44,1.49-.91,1-4-.23-5.26S350.12,365.31,349.17,364.26Zm-12.51,7.14c-2,.18-2.79-1.47-3-3.13-.21-1.47,1.84-3.77,3-3.7a3.27,3.27,0,0,1,2.76,3.46A2.79,2.79,0,0,1,336.66,371.4Zm9.52,4c-.19.95-1.15.87-1.95.89-1.49,0-1.72-.89-1.68-2.07,0-.13-.11-.25-.24-.51-.11.32-.21.54-.27.76-.2.89-.77,1.83-1.61,1.37-1-.58-.59-1.94-.39-2.89s.92-1.35,1.7-.39c.65.78,1,.14,1.34-.25.64-.66,1.25-1.2,2.24-.48C346.63,372.77,346.43,374.11,346.18,375.37Zm-2.81-4.93c-2.41.16-2.59-1.18-2.35-3-.53-2.47.91-2.91,3-2.91s3.13.93,3.35,2.83C347.53,369.09,345.7,370.28,343.37,370.44Z"/><path class="cls-2" d="M56.37,339.11c1.84.67,3.7-.16,5.61.59C60.9,339,61,337.77,60.46,337c-2.76-3.86-6.58-6.89-8.72-11.22-.26-.54-.63-.44-1-.53-4.54-1-9.15-.95-13.15,1.37-2.57,1.49-3.27.13-4.41-1.37l-1-1.51c-.06.75-.06,1.47.93,1.67a9,9,0,0,0,.74,2.2c3.45,5.3,6.43,10.88,10.19,16,1.23,1.68,2.31,1.54,3.82,1.31,2.06-.31,3.59-.86,4.2-3.39A3.36,3.36,0,0,1,56.37,339.11Z"/><path class="cls-2" d="M115.59,351.83v.09l0,0Z"/><path class="cls-2" d="M147.08,370.53c.55-2.73,1.35-5.54-1.25-8.33.2,1.75,1,3.58-1.1,3.87-2,.27-1.61-1.75-2-2.79-.51-1.44-.44-1.47-1.94-.58-2.32,1.36-5.27.81-8,.78A6,6,0,0,1,127,360c-1.29.43-1.72,1.7-3.49,1.89-2.23.24-3.19-1.52-5-1.85a4.48,4.48,0,0,1-3-5.27,13.93,13.93,0,0,0,.06-2.82c-2.15,1.29-2.77,3.76-4.22,5.59-.44.55-.58,1.18-1.49,1.1-3.24-.3-3.24-.28-4.66,2.92a29.81,29.81,0,0,1,16,.85c.69.21,1.5.23,1.78.88.69,1.61,2.18,2.16,3.53,2.84a14.83,14.83,0,0,1,8.66,12.17c.17,1.47,1,1.12,1.82,1.17,2.93.16,5.91-.41,8.79.51C144.57,376.59,146.46,373.65,147.08,370.53Z"/><path class="cls-2" d="M145.86,380l-.07,0s0,.05,0,.07Z"/><path class="cls-2" d="M178,425.45c-1.35-.35-1-3-3.25-1.9-3.68,1.78-8.11,2.84-11.64,1.28-7.32-3.24-15.5-5.73-19.39-13.95-.51-1.07-2.23-1.13-2.64-.29-1.49,3.06-2.62,3.11-4.74.18.11-1.11-.46-2.3.41-3.3,1.52-1.76,3.21,0,5.1,0-1.46-2-2.77-3.7-4-5.47-2.62-3.83-1.39-7.47,3.15-8.1,4-.56,7.24-1.38,8.87-5.71.53-1.43.62-2.29-.31-3.08a13.49,13.49,0,0,0-4.22-3c-4.66-1.55-9.32-1.13-14.07-.18-6.67,1.33-10.59,5.91-14,11.12-2,3.08-2.78,6.95-.86,9.84s.68,4-.82,5.77l-.08.05a28.71,28.71,0,0,0,8.86,5.24c-4.89-4.58-4.89-4.58-4.77-5.28,1.14.82,2.81.58,4.07,1.54,1.75,1.33,3.86.93,6,.84s4.32-2.94,6.29.12h0c1.38,2.89,1.28,5.59-1.19,7.94,17.26,7.64,39.18,14.34,42.54,13.56a13.05,13.05,0,0,0-1-1.81c-1.27-1.61-.83-2.94.67-4C177.55,426.43,178.8,425.66,178,425.45Zm-60.71-26.78c-.64-1.85,1.45-2.57,2.56-3.47,1.37-1.12,3.43-2.62,4.8-.85s-1.06,3-2.08,4.41c-.36.49-1.7.21-1.17,1.4C119.9,399.92,117.88,400.38,117.28,398.67Zm10.41,4.47c-.21,1.39-.36,3.24-2.5,3.42-1.47.12-1.61-1-1.86-2.07l-1.24,1.09a1.69,1.69,0,0,1-2.61-2.12c.57-1.12,1.29-2.17,1.94-3.25a3.32,3.32,0,0,1,3,1.18c.32.33.29.78,1.06.5C126.49,401.53,127.92,401.65,127.69,403.14Zm4.81-.31c-1.83,0-4.13-2.4-4.18-4.3-.06-2.12,1.56-4.15,3.37-4.2,2.06-.07,4.56,2.19,4.6,4.14C136.33,400.19,134,402.85,132.5,402.83Z"/><path class="cls-2" d="M252.14,433.39c-3.68-1.5-4.62-4.47-4.78-8.12-.16-3.82-.69-7.62-.64-11.5a12.74,12.74,0,0,0-1.48,3.44c-1.15,3.49-2,7.46-5.86,8.92-3.2,1.22-5.24,3.73-7.81,5.63-.85.63-2.06.87-2.57,1.64-1.74,2.66-4.14,3.19-7.1,3-4.64-.3-9.32-.38-14-.4-3.43,0-6.95.18-10.43.31,0,.4.33.53.69.52,4-.15,7.86.74,11.84.6,10-.34,19.93.32,29.9-.5,3.48-.29,7-1,10.5-.67a2.57,2.57,0,0,0,1.46-.48c.61-.39,1.8-.13,1.79-1.17C253.69,433.82,252.75,433.64,252.14,433.39Z"/><path class="cls-2" d="M197.46,436.32h.06s0,0,0-.05Z"/><path class="cls-2" d="M85.58,255.36c.14,0,.23-.65.18-1-.57-3.66-1.11-7.34-1.84-11-.14-.71-.5-2.44-1.08-2-1.19.84-3.16-.08-3.74,1.77-.61-.8-.6-2.22-2.26-1.95a16,16,0,0,0-10.21,6.16c-.63.8-1.21,1.86-.79,2.78,1.06,2.36.85,4.8.77,7.22-.06,1.64.66,2.58,2.16,3.42,0-1.14,0-2.1,0-3A6.52,6.52,0,0,1,72.26,252a5.07,5.07,0,0,1,5.57,1.2c2.73,2.52,1.9,7.25-1.66,9.74-2,.73-4.07,1-6-.35h0l-.72-.51a.58.58,0,0,0,.34.94c-.48.46,1.16,1.63-.18,1.45-2.26-.31-1.86,1.12-1.88,2.26,0,2,1,3.6,1.84,5.31.59,1.28,1.19,2.14,2.78,1.14.31-.2,1.52-.83,1.64-.08.28,1.93,1.6,1.55,2.77,1.57,1.79,0,3.67-.36,5.34.08,3.06.81,4.21-1.06,5.44-3.11.27-.44.63-.83.91-1.27,1.6-2.57.63-4.59-2.33-4.71a6.28,6.28,0,0,1-2.66-.94h0c-.45-.3-.15-1.1-.82-1.25a.78.78,0,0,1,0-.26C83.1,260.43,80.93,256.63,85.58,255.36Zm-2.5,9.81c.68,1,1.14,2.24-.13,2.91-1,.54-2.38.73-3-.86-.22-.55-.44-1.05-1.28-.63s-1.94,1.38-2.7.06a2.48,2.48,0,0,1,.64-3.28c2.29-.51,2.29-.51,3.07,1.57.6-1,1.21-2,2.58-1C82.7,264.2,82.41,265,83.08,265.17Z"/><path class="cls-2" d="M96.14,291.26c2.23-1.33,1.33-3,.67-4.62-.52-1.26-1.23-2.44-1.64-3.78a3,3,0,0,0-3.57-2.31,11.17,11.17,0,0,0-6.94,3.59c-1.94,2.13-1.37,4.71-2,7-.33,1.29-1.46,2.29-.81,4.13,1,2.75,1.48,5.64,3.57,7.71a10.81,10.81,0,0,0,3.37-4c.37-.78.84-1.3-.62-1.63a2.69,2.69,0,0,1-2.43-2.68c0-2.13.69-3.63,3-4.23s4.74,1.82,4.53,2.19c-1.88,3.32,2,4.73,2.07,7.24,0,.48-.16,1.4.49,1.28,3-.57,5.77,1.7,8.85,1l-1.5-2.89c-1-2-1.7-4.42-5-3.45-1.6.47-2.42-1.27-3.19-2.33S95.41,291.69,96.14,291.26Z"/><path class="cls-2" d="M18.14,261.61a7.84,7.84,0,0,0,6.11-1.67c.53-.47,1.21-1,.87-1.77-.74-1.73-1.13-3.15,1.4-3.67.45-.1.32-1.63,1.22-1.3s.45,1.55.65,2.36-.83,1.2-.35,1.94c4.36-.53,6.17-4.3,8.67-7,1.85-2,1.34-2.76-1.46-2.86-2.22-.08-3.75-1-3.1-3.34.89-3.27-1-3.1-3.13-3-1.19,0-2.37,0-3.8,0,2.43,2.95-.61,3.42-1.65,4.75l-4,0c-.59,0-1,0-1.4.78-1.39,2.89-3.77,5.5-2.07,9.09a1.06,1.06,0,0,1,0,.53C15.86,258.56,16.92,261.4,18.14,261.61Zm4.12-2.6c-.16.38-.64.2-.86-.09-1-1.26-.47-2.44.31-3.74A3.74,3.74,0,0,1,22.26,259Zm.09-11.32c.51-.52,1.52-.59,1.24-1.66a2.85,2.85,0,0,0,2.33-.17c2.12-.67,3.16-.16,3.49,2a4.86,4.86,0,0,1,0,1.32c-.13,1.07.57,2.66-.83,3-1.17.28-2-1.06-2.25-2.14s-.76-.47-1.18-.31-.55.41-.85.56c-1.33.66-3.29,1.44-4,.38C19.29,249.26,21.47,248.59,22.35,247.69Zm-4.61,9.79c0-1.34.37-2.51,1.86-3,.54,1.24.1,2.28-.23,3.36-.22.68.08,1.84-1,1.67S17.73,258.24,17.74,257.48Z"/><path class="cls-2" d="M118,318.89a10.72,10.72,0,0,1-4-2.73c-.6-.53-1.47-.4-2.23-.55-3.67-.72-6.35.95-8.75,3.42l.43.38a16.87,16.87,0,0,0,3.4,1.09c6.57,1.42,11.31,4.53,10.92,13-.07,1.58,0,3.17,0,4.84,1-.28,1.11-.79,1.06-1.34-.33-3.14,1.38-5.6,2.51-8.31.63-1.53,3.38-2.05,2.32-4.06-.78-1.49-2.41-2.54-3.66-3.79a1.94,1.94,0,0,0-.42-.25c-.49.7-.72,2.17-1.8,1.55-.78-.44.07-1.47.64-2.05S118.25,319,118,318.89Z"/><path class="cls-2" d="M380.64,233.24c-1.08,1.64-1.63,3.65,0,5.31s3.32,1.16,5.14,0c2.14-1.33,3.12-3.94,5.23-5,2.84-1.39,4.44-3.26,4.57-6.74-1.27,0-2.5,0-3.73,0C386.91,226.88,383.27,229.27,380.64,233.24Z"/><path class="cls-2" d="M376.17,267.79c-.88.34-2-.56-3,.74a7.37,7.37,0,0,0,3.73,11.41,5.62,5.62,0,0,0,6.75-2.88c.69-1.57-.75-2.31-1-3.49C381.84,269.52,379.93,267.8,376.17,267.79Z"/><path class="cls-2" d="M195.72,431.24c-1,0-2.07,1.59-2.48-.35s1.13-4.16-1.63-5.3c-.33-.13.43-1.34-.61-1.1-.49.12-1.46,0-1.21,1.41.34,2-.77,1.19-1.58.48l-.39.42c.15.6-.07,1.19-.61,1.28-.78.12-1.27-.64-1.38-1.23-.17-.83-.41-1.5-1.27-1.07s-.05,1,.27,1.39.47.73.13,1.14-.64.59-1,.09c-.63-.81-1-.13-1.43.23-.74.58-1.07-.08-1.46-.54-.59-.69.76-2.67-1.09-2.24-1,.24.71,1.75.06,2.75-.1.17,0,.49.06.73.7,3.8.71,3.62,4.8,3.86,3.24.2,6.38-.4,9.89-.89-1.26,2.7-3.57,2.16-5.43,2.81a29.27,29.27,0,0,0,8,1.15C195.74,435,195.79,433,195.72,431.24Z"/><path class="cls-2" d="M197.45,436.32l.06-.06h-.12Z"/><path class="cls-2" d="M46.47,233.07c1.45,2.39,2.48,5,3.79,7.41.4.76.81,1.37,1.94,1.3,2.2-.14,4.42,0,6.63-.05,3.4-.08,6.25-1.2,7.79-4.51.6-1.29,1.11-2.62,1.67-3.94,1.67-2,2.93-1,4,.61,1.34,1.94,3.19,3.38,5.5,3.22,1.54-.11,1.64.57,1.84,1.5.12.52-.11,1.26.81,1,1.12-.33,2.6-.12,3.08-1.5.22-.63.56-1.87-.36-2.11-3-.76-2-3.43-1.42-4.44,1.14-1.93.86-3.63.7-5.6-3.51,4.6-4.58,5.25-6.26,3.83-3-2.54-3.54-5.74-1.41-8.16,1.8-2.05,4.63-1.42,7.52,1.54,1.06-3.58.35-7.48,1.28-11.23.2-.79.19-1.62-1.08-1.57-1.5.06-3.11-.31-4.48.12-1.56.48-4.3.67-4.25,2.38.1,3.33-1.77,6.21-1.37,9.55a17.46,17.46,0,0,1-1.79,9.21c-1.74-3.18-.34-6.26-.25-9.42-1,.52-2.65.52-2.55,1.57.31,3.06-1.3,6.1,0,9.13h0c-2.62,1.88-4.47,5-8.27,5-3.39,0-7.09,1.34-9.56-2.38-.53-.79-1.25-1.46-1.69-2.28-.29-.55-1.14-1.2-.59-1.8.74-.81,1,.66,1.67.57,1.64-3.2-2.11-3.45-2.86-5.43C47.09,228.8,45.26,231.08,46.47,233.07Z"/><path class="cls-2" d="M52,314.29c-3.56-1.67-9.75-.21-10.68,3.86-.35,1.58-.85,3.14-1.21,5H51.2c.07-2.49-.26-5.14,1-7.57C52.38,315.31,52.61,314.61,52,314.29Z"/><path class="cls-2" d="M60.09,341.21c-.64,1-2.23-.69-2.47,1-1.87.67-5.42,4.46-5.33,5.74.39,5.77,2.66,9,6.87,9.78a.58.58,0,0,0,.93.34l-.49-.72c-1-2.18-.29-4.4.66-6.18,1.64-3.09,1.07-6.06.54-9.15C60.71,341.48,60.28,340.93,60.09,341.21Zm-1.94,7.5c0,1.58-.68,2.47-2,2.5-1.12,0-.58-1-.66-1.62a1.92,1.92,0,0,1,1.68-2.46C58.06,347.07,58.2,348.12,58.15,348.71ZM59.91,346c-.8,1-1.44-.05-2.1-.16a1.33,1.33,0,0,1-1-1.91c.23-.58.88-1,.89-1.71.53.62,1.09,1.23,1.58,1.89S60.77,345,59.91,346Z"/><path class="cls-2" d="M423.39,265.72c-1.74-1.1-3.61-2.16-5.87-1.66-1.12.37-2.65-.68-3.42.64s-2.23,3-.94,4.75,2.95,3,5.31,2.4a13.57,13.57,0,0,1,3.38-.45c1.6,0,3.44-.35,3.86-2.48C426.08,267.06,424.51,266.42,423.39,265.72Z"/><path class="cls-2" d="M44.4,236.54c-.5.92-1.6,1.19-2.62,1.51a35.6,35.6,0,0,1-10.42,1.22c3.12.88,6.42,1.82,8.83,3.76,2.69,2.17,5,1.38,7.57.7.47-.12,2.14-.49.34-1.48-.62-.34-.54-.74-.12-.75,1.61,0,.77-.91.54-1.44-.44-1-1-2-1.53-3C46.36,235.87,46,233.59,44.4,236.54Z"/><path class="cls-2" d="M364.1,363.71c-1.17.14-1.32-.16-1.92-.88-1.52-1.81-.1-4.2-1.37-6-2.38,1.58-1.61,4-1.76,6.22-.2,3,1.33,5,4.6,6.22,1.72.61,5-.63,6.16-2.49a20.42,20.42,0,0,0,1.31-3.12C368.79,362.84,366.4,363.43,364.1,363.71Z"/><path class="cls-2" d="M260.54,379.13c.17,0,.25-.73.4-1.21.32.77.61,1.38.81,2,.29.9,1,.56,1.55.5.36,0,.68-.46,1-.71-1.18-1.07.51-2.78-1-4a4.63,4.63,0,0,1-1.69-4.17c-.95,1.82-1.69,4-3.59,1.2-2.77,2-2.27,6.51-6.34,7.19a.52.52,0,0,0-.3,1c.3.27.36,1.16.61.84,1.24-1.53,1.23.43,1.77.64s1.07,1,1.84.67.9-1,.45-1.92c-.22-.48.4-1.37.74-2.37a6,6,0,0,0,1.64,3.15c1.45-1.22.19-3,.92-4.37C259.9,378,259.43,379.28,260.54,379.13Z"/><path class="cls-2" d="M272.12,360.74c1.85-1.87,4.6-2.93,5.36-5.8a2,2,0,0,0,.1-1.23c-.27-.57-.69-.07-1.08,0-2.78.65-5,2.71-8.05,2.86-2.38.12-4.69,1.45-7.49,2.39,1.81,1.39,3.63,1.65,5.18,2.44C268.33,362.54,270.32,362.57,272.12,360.74Z"/><path class="cls-2" d="M64.75,247.89c2.75-5.31,7.26-7.68,13.42-8.44-3.57-1.37-7-2.09-8.52-5.88a13.16,13.16,0,0,0-.92,4.15c-.15,3.82-1.22,4.83-5,5.08-2.46.16-4.87.85-7.41.7C59.44,244.39,62.81,244.7,64.75,247.89Z"/><path class="cls-2" d="M120.38,380c1,.07,2.47-.54,2.9.62,1,2.62,2.54,1.41,4,.92,1.21-.39,2.4-.87,4.2-1.53-3.83-1.39-2-4.23-1.33-5.41,1.14-2-.15-2.52-1-3.59s-1.33-2.64-3.4-2.69c1.17,1.82,1.25,4.2,2.21,5.34,2.07,2.47.5,3.49-.82,5-.59.67-1.27,1.21-2,.54s-1.47-1.36-.85-2.44c.53-.91.73-1.5-.67-1.76-.57-.11-1-.83-1.58-1.31a8.66,8.66,0,0,1-5,6.3C118.46,380,119.42,379.92,120.38,380Z"/><path class="cls-2" d="M102.8,312.45H98.63c.42,2.09,2.24,3.29,3.56,4.58.77.75,1.17-1.82,2.34-2.27.16-.06.33-.09.49-.16a8.63,8.63,0,0,1,7.86.16c.19-4.17-4.2-4.92-5-8.07a2.72,2.72,0,0,1-1.94,3c-.2.08-.83-.12-.71.68C105.44,312.09,104.25,312.47,102.8,312.45Z"/><path class="cls-2" d="M98.57,312.44h.06s0,0,0-.06Z"/><path class="cls-2" d="M349.94,384.33c-2.05.31-3.9-1-5.68-.7-1.52.3-1.83-1.88-2.89-1-1.38,1.1-2,.22-2.86-.56-1.14-1-2.38-1.94-3.59-2.92-.48.73-.17,1.1.13,1.58,1.72,2.84,4.43,4.58,7,6.48a6.44,6.44,0,0,0,8.52-1.08C351.46,385,350.81,384.19,349.94,384.33Z"/><path class="cls-2" d="M17,241.33c4.2-.17,7.76-3.25,12.13-2.3a30,30,0,0,1-11.92-7.66c.07,3.54.3,6.43-1.11,9.13C15.52,241.51,16,241.36,17,241.33Z"/><path class="cls-2" d="M256.25,397.69c-3.91.14-7.61-.81-12.14-1.37,3.14,3.51,3.71,7.1,4.29,10.83C250.54,403.54,252.77,400.15,256.25,397.69Z"/><path class="cls-2" d="M98.57,312.44l.05-.06-.09,0Z"/><path class="cls-2" d="M96.08,308.22c1.47-2.22,4.25-1.56,6.53-.77.82-1.94-.43-2.67-1.9-3.19a5.92,5.92,0,0,0-6.31,1.11c-1.75,1.7-.08,4.28-.9,6.34,1.67.33,3.25,1.29,5,.69C97.25,311.21,95.08,309.74,96.08,308.22Z"/><path class="cls-2" d="M206,383.45c3,0,3.53,3.45,6.06,3.91.39-.64.05-1.14-.08-1.73-.27-1.21-.88-2.69-.11-3.69,1.56-2,1.9-4.67,3.62-6.5,1.43-1.52-.35-2.29-.5-3.41-1.42.25-1-1.59-2.17-1.85C212.84,375.75,214,381.87,206,383.45Z"/><path class="cls-2" d="M282.52,428.78c5.52-.49,10.47-2.93,15.61-4.89a15.32,15.32,0,0,1-6.81-2.49C289.9,425.83,286.21,427.19,282.52,428.78Z"/><path class="cls-2" d="M244.16,395.69a1.5,1.5,0,0,0,.59-1.38c0-.95-3.37-4.69-4.31-4.76a13.45,13.45,0,0,0-6.9,1.33c3.53,1.09,6.76,2.05,9.29,4.45C243.21,395.68,243.53,396.16,244.16,395.69Z"/><path class="cls-2" d="M352.38,329.15c-3-3.64-8.68-5.17-11.73-3.14C344.43,328,347.74,331.21,352.38,329.15Z"/><path class="cls-2" d="M73.45,338c-.94-.67-1.93-1-2.32-1.71-1.1-1.94-2-2.46-3.37-.24-.81,1.34-2.32.77-3.39.71a5.15,5.15,0,0,0-2.05.47C65.76,340.24,69.22,339.76,73.45,338Z"/><path class="cls-2" d="M279.6,382.85a5.54,5.54,0,0,1,3.46,2c2.18,3,4.47,2.74,7.11.88.2-.15.25-.22,0-.38A17.57,17.57,0,0,0,279.6,382.85Z"/><path class="cls-2" d="M82.13,302.72c-.69-2.56-1.78-4.68-1.74-6.19L75,300.83C77.85,300.48,79.86,301.44,82.13,302.72Z"/><path class="cls-2" d="M85.94,277.55h0c-.72.51-1.44.28-2.24.15-1.65-.27-3.26-1.15-5-.61,2.52.63,4.93,2.25,7.65.85,3.63-.74,5-3,3.56-6.78C88.58,273.49,86.1,274.72,85.94,277.55Z"/><path class="cls-2" d="M360.85,293.26c2.07-.21,1.62-2.27,2.57-3.36-.48-.83-.4-2-1.78-1.9-3.53.27-1.34,2.76-1.67,4.28C359.8,293.07,360.23,293.32,360.85,293.26Z"/><path class="cls-2" d="M206.35,422.25c-1.21.18-1.58-.93-2.34-1.29-.5-.23-1.11-.76-1.48.38-.55,1.68-1.34,3.27-2,4.91l.29.35Z"/><path class="cls-2" d="M402.45,243.1c-1.73.79-2.85,1.33-4,1.82s-1.71,1.35-.71,2.17,2.34,2.41,4.63.67c-1.54.13-2.79.31-1.82-1.42C401.08,245.42,401.62,244.53,402.45,243.1Z"/><path class="cls-2" d="M417.14,261.75c-.75-1.45-1.1-2.9-2.55-4-.73,1.54-2.8,3.05-2,4.38C413.23,263.24,415.46,262,417.14,261.75Z"/><path class="cls-2" d="M306.82,418.58c-1.28.53-3.15.45-2.31,2.84a25.73,25.73,0,0,0,3.28-1.64c1-.71,3.6-.49,3-1.82S308.18,418,306.82,418.58Z"/><path class="cls-2" d="M221.09,387.16c-2.44.14-4.81,1.56-7.37.51-.57-.23-1.25.68-1.31,1.3s.8.7,1.16.5c3-1.68,6.34-.68,10.15-1.14C222.64,387.58,222.42,387.08,221.09,387.16Z"/><path class="cls-2" d="M299.29,415.77c1.76,2.18,3.95,2.41,6.88.51C303.87,416.47,301.65,415,299.29,415.77Z"/><path class="cls-2" d="M216.22,364.74c-5.72-.31-5.72-.31-4,3.27C213.62,367,214.39,365.29,216.22,364.74Z"/><path class="cls-2" d="M312.05,417.59Z"/><path class="cls-2" d="M315.19,414.21c-1-.11-3.14,2.28-3.14,3.38,1.41.65,2.32-.78,3.57-.92.77-.08.31-1,.34-1.59A.85.85,0,0,0,315.19,414.21Z"/><path class="cls-2" d="M115.59,351.83l0,.05,0-.09S115.59,351.82,115.59,351.83Z"/><path class="cls-2" d="M116,345.27c-2.73,2-1.41,4.28-.39,6.52C116.6,349.62,116.18,347.39,116,345.27Z"/><path class="cls-2" d="M413.51,297.19c-1.27,1.08-2,2.38-.84,4.25,1.52-1.09,2.43-2.29,2.13-4C414.7,296.82,413.86,296.89,413.51,297.19Z"/><path class="cls-2" d="M257.13,361.32c-1.58-1.42-3.07.3-4.66.31a5.18,5.18,0,0,1,4.13,2.47C255.66,362.82,258.39,362.46,257.13,361.32Z"/><path class="cls-2" d="M85.63,280.6c-1.4.54-2.52-1.24-3.9-.35.36,1.13.71,2.22,1.2,3.71C83.5,282.32,84.78,281.73,85.63,280.6Z"/><path class="cls-2" d="M297.48,385.34a38.92,38.92,0,0,1,7.64.35C302.68,385.22,300.4,382.38,297.48,385.34Z"/><path class="cls-2" d="M417.88,311.83c-1.3,1.85-2.42,3.37-2.36,5.33C416.54,315.68,417.88,314.26,417.88,311.83Z"/><path class="cls-2" d="M311.43,385.93c.53-.29,1.54-.36.93-1.26s-1.48-.6-2,.16c-.67,1-1.75.91-2.74,1.32a4.76,4.76,0,0,1,3,1.25A1.58,1.58,0,0,1,311.43,385.93Z"/><path class="cls-2" d="M310.62,387.48l.05-.05-.05,0Z"/><path class="cls-2" d="M294.92,367.05c-1.15,1.54-2.59,2.88-2.9,4.91-.47.17-.57.49-.34.93l.72-.5C293.33,370.67,295.36,369.46,294.92,367.05Z"/><path class="cls-2" d="M432.27,266.93c-.54,2.41-1.76,4.68-1.46,7.23-2.18,4.26-2.44,9-3.49,13.57a71.12,71.12,0,0,0,3.79-13.31h0C431.41,271.91,432.85,269.56,432.27,266.93Z"/><path class="cls-2" d="M279.41,352.29c-.52.18-.76.46-.49.92a1.37,1.37,0,0,0,1.29.72c.85-.05,1.7,0,3.27,0a29.08,29.08,0,0,1-2.48-1.79C280.34,351.51,279.94,352.12,279.41,352.29Z"/><path class="cls-2" d="M172.51,355.85v3.78a4,4,0,0,0,2.06-2.07C175.05,355.8,173.23,356.85,172.51,355.85Z"/><path class="cls-2" d="M26.7,315.46c.73.92,1.41,1.76,2.07,2.61.81,1.07.61,2.82,2.21,3.36C29.92,317.89,28.37,315.67,26.7,315.46Z"/><path class="cls-2" d="M31.06,321.46l-.08,0,0,.07,0,0v-.06Z"/><path class="cls-2" d="M435.79,245.34l.67,0V239l-.16-.12Z"/><path class="cls-2" d="M90.24,301.11c1.79.56,2.47.14,2-1.71a4.4,4.4,0,0,1,.06-2.1c.12-.52.21-.83-.45-.78s-.84.3-.54.85C92.11,298.87,91.45,300,90.24,301.11Z"/><path class="cls-2" d="M198.52,427.83c-1.28,2,.21,3.21,1.18,4.57,1.15,1.66,2.74,2.8,4.72,2.21a11.08,11.08,0,0,1,4.13-.37c4.2.3,8.38.65,12.69-.31-2.3-3.5-1-7.07,0-10.67-.67,1.54-2.06,2.59-2.18,4.4a2,2,0,0,1-2.8,1.65c-3-1.28-5.94-.62-8.93-.42-2.23.14-4.29-.95-6.58-1,.92,1.64.16,2.87-.58,4.1C200,430.49,198.53,429.45,198.52,427.83Z"/><path class="cls-2" d="M304.19,345c-.94.89-2.13,1.12-2.38,2.35,0,.13.65.54.68.52C303.18,347.13,304.43,346.71,304.19,345Z"/><path class="cls-2" d="M398.21,265.29h0c-.21-.35-.43-.7-.65-1.05-.35.57-.42,1.08.26,1.47l.76,2.42C399.41,267,401.09,265.85,398.21,265.29Z"/><path class="cls-2" d="M408.73,329.74c.58-1.14,1.1-2.14,1.61-3.15h0c.78-.83,1.55-1.66,1.32-2.93-.87.66-.94,1.8-1.58,2.59C409.46,327.29,408.4,328.15,408.73,329.74Z"/><path class="cls-2" d="M412.24,322.5c1.54-.19,1.21-1.5,1.77-2.84A3.74,3.74,0,0,0,412.24,322.5Z"/><path class="cls-2" d="M411.66,323.66l0,0-.05,0A.22.22,0,0,1,411.66,323.66Z"/><path class="cls-2" d="M265,373.66c-.21.69.2,1.08.76,1.38.29-.55.45-1.1-.2-1.49C265.45,373.47,265,373.57,265,373.66Z"/><path class="cls-2" d="M187.91,425.21a2.6,2.6,0,0,0-1,.16l.88,1.43.39-.42C187.61,426.11,188.69,425.37,187.91,425.21Z"/><path class="cls-2" d="M264.92,372.89c.16-.61-.28-.94-.68-1.27l-.39.42c.06.41,0,.86.5,1.09A.37.37,0,0,0,264.92,372.89Z"/><path class="cls-2" d="M32.07,323.64l0,.06v-.11Z"/><path class="cls-2" d="M280.41,429.37c.72,0,1.58.53,2.09-.49C281.81,429.1,280.91,428.44,280.41,429.37Z"/><path class="cls-2" d="M280.37,429.42l0-.05h-.08Z"/><path class="cls-2" d="M82.93,304.12c.11,0,.18-.44.15-.67s-.21-.36-.31-.52c-.42.14-.38.39-.26.6S82.43,304.24,82.93,304.12Z"/><path class="cls-2" d="M263.59,370.57c-.35.57-.43,1.08.26,1.47l.39-.42C264,371.27,263.8,370.92,263.59,370.57Z"/><path class="cls-2" d="M32.07,323.64l0-.05h0A.13.13,0,0,0,32.07,323.64Z"/><path class="cls-2" d="M31.53,322.57h0a.09.09,0,0,1,0-.05Z"/><path class="cls-2" d="M31.57,322.58c-.2.51-.11.88.49,1C32,323.19,32.19,322.69,31.57,322.58Z"/><path class="cls-2" d="M296.31,365.6v-.06h-.06Z"/><path class="cls-2" d="M411.7,323.57c.69-.08.8-.44.49-1C411.61,322.69,411.74,323.17,411.7,323.57Z"/><path class="cls-2" d="M411.7,323.62v-.05h-.05Z"/><path class="cls-2" d="M412.19,322.58l0,0s0,0,0-.06l-.07,0Z"/><path class="cls-2" d="M171.89,381c.08,0,.35-.17.34-.21a2.63,2.63,0,0,0-.27-.56l-.51.39A1.74,1.74,0,0,0,171.89,381Z"/><path class="cls-2" d="M102.43,319.75a.58.58,0,0,0,.94-.34l-.43-.38Z"/><path class="cls-2" d="M295.69,366.49c0,.06.17.13.22.11.53-.19.39-.6.35-1C295.87,365.77,295.58,366,295.69,366.49Z"/><path class="cls-2" d="M296.31,365.6l-.06-.05a.15.15,0,0,1,0,.07Z"/><path class="cls-2" d="M31.53,322.57l0,0h0S31.53,322.56,31.53,322.57Z"/><path class="cls-2" d="M31.05,321.52c-.11.46-.22.93.48,1C31.51,322.12,31.64,321.64,31.05,321.52Z"/><path class="cls-2" d="M312.31,417.87l-.22-.22C312.12,417.77,312,418,312.31,417.87Z"/><path class="cls-2" d="M312.06,417.6l-.05,0,.08.07S312.08,417.61,312.06,417.6Z"/><path class="cls-2" d="M145.86,380l-.05,0h.06S145.86,380,145.86,380Z"/><path class="cls-2" d="M146.59,380.41c.42-.09.59-.34.29-.68s-.43-.08-.53.2l-.48.08C145.92,380.46,146.2,380.53,146.59,380.41Z"/><path d="M308.22,338.64l.72-.5c.23.44.13.76-.35.93Z"/><path d="M155.47,384.8a.57.57,0,0,1-.93.34l.5-.72Z"/><path d="M190.53,401.14a14.61,14.61,0,0,0,2.19-1.36,14.53,14.53,0,0,0,1.5-1.95c2.18,2.8,2.14,7.31.27,9.28-.6.63-.82-.05-1.24-.18-3.76-1.17-4.53-4.38-4.76-7.57s-1.5-5.85-2-8.82c-.16-1-.5-1.88.23-2.71a2.63,2.63,0,0,1,1-.73c.1,0,.59.49.59.76C188.36,392.32,190.59,396.41,190.53,401.14Z"/><path d="M189.37,370.4c-2.89,0-5.28-1.77-5.23-3.83s2.16-3.62,5.11-3.61c2.62,0,4.43,1.5,4.46,3.66S192,370.42,189.37,370.4Z"/><path d="M171.91,373.59c-.26-2.69,1.45-4.49,2.94-6.36a2.06,2.06,0,0,1,2.66-.36,2,2,0,0,1,1,2.57,11.23,11.23,0,0,1-1.75,4c-1.55,1.94-2.54,2.06-4.93.13Z"/><path d="M181.51,371.42c1.27,1.2,3.31,1.25,4.11,3A2.36,2.36,0,0,1,185,377a1.23,1.23,0,0,1-2-.29c-.83-1.16-.9.19-1.27.54-.71.67-1.39,1.75-2.49,1.17-1.32-.69-1.25-2-.74-3.22A7,7,0,0,1,181.51,371.42Z"/><path d="M309.1,366.46a4.19,4.19,0,0,1,2.22-4.28,3.77,3.77,0,0,1,4.36.74c1.2,1,3,1.47,3,3.6,0,3.12-2.78,5-5.5,3.39a7.48,7.48,0,0,0-1.93-.62C309.82,368.88,308.62,368.18,309.1,366.46Z"/><path d="M305.89,362.75c.15,1.31-.1,2.61.09,4,.28,2-2,2.83-3.51,3.56-1.31.65-2.14-.16-2.56-1.93a8.62,8.62,0,0,1,1.26-7.05c.59-.91,1-2.26,2.95-1.74S305.84,361.4,305.89,362.75Z"/><path d="M306.91,373.12c0,1.65-1.39,1.69-2.37,2-1.18.42-1.34-.72-1.77-1.4,1.48-.62.94-3.12,2.57-3.22S306.18,372.38,306.91,373.12Z"/><path d="M308.83,373.83c-.72.38-1.07-.33-1.07-.87,0-1,.71-1.42,1.64-1.48.57,0,1.22.46,1.05.78C310.14,372.85,310.28,374.09,308.83,373.83Z"/><path d="M341,367.44c-.53-2.47.91-2.91,3-2.91s3.13.93,3.35,2.83c.2,1.73-1.63,2.92-4,3.08S340.78,369.26,341,367.44Z"/><path d="M339.39,368a2.79,2.79,0,0,1-2.73,3.37c-2,.18-2.79-1.47-3-3.13-.21-1.47,1.84-3.77,3-3.7A3.27,3.27,0,0,1,339.39,368Z"/><path d="M342.31,373.68c-.11.32-.21.54-.27.76-.2.89-.77,1.83-1.61,1.37-1-.58-.59-1.94-.39-2.89s.92-1.35,1.7-.39c.65.78,1,.14,1.34-.25.64-.66,1.25-1.2,2.24-.48,1.31,1,1.11,2.31.86,3.57-.19.95-1.15.87-1.95.89-1.49,0-1.72-.89-1.68-2.07C342.56,374.06,342.44,373.94,342.31,373.68Z"/></g></g></svg>